<?xml version="1.0"?>
<svg xmlns="http://www.w3.org/2000/svg" height="516.08" width="428.48" xmlns:xlink="http://www.w3.org/1999/xlink">
<defs>
<pattern id="a" width="360" patternUnits="userSpaceOnUse" patternTransform="translate(10,151.5)" height="76.78">
<path d="m0.01 0h359.99l-0.01 38.39h-359.99z" fill="#e10000"/>
<path d="m0.01 38.39h359.99l-0.01 38.39h-359.99z" fill="#fff"/>
</pattern>
</defs>
<use xlink:href="#f" stroke="#000" stroke-width="4.8"/>
<g fill="#00529f">
<use xlink:href="#d" stroke="#000" stroke-width="5.7"/>
<path id="d" d="m37.096 324.75c0 113.18 77.844 188.5 177.18 188.5 99.3 0 177.16-75.32 177.16-188.5l5.33-220.36h-365.01z" fill="#00529f"/>
<path d="m331.05 290.79-6.55-3.84c-13.73-8.45-34.11-35.34-34.11-55.12 0-1.19 0.05-2.37 0.11-3.51h-13.59c-0.98 3.4-2.73 7.61-5.47 11.24-1.6 2.11-3.65 7.54-3.65 14.72 0 1.16 0.07 2.35 0.18 3.59l0.22 2.39-2.31 0.52c-3.35 0.74-7.02 0-10.07-1.31 0.07 3.67 1.77 7.71 3.11 9.47l1.24 1.64-1.21 1.67c-1.04 1.44-2.39 2.71-3.94 3.77 2.88 3.17 5.68 5.68 8.22 7.38 6.48 4.27 13.4 8.23 20.1 12.03 19.88 11.3 38.67 22 38.67 39.01 0 3.01-0.59 5.61-1.66 7.72 2.69 1.6 5.39 2.26 9.46 2.26 14.93 0 25.78-11.15 25.78-26.51 0-13.14-12.46-20.24-24.53-27.12"/>
<path d="m214.03 169.64c-0.6-1.32-1.84-3.04-2.96-4.09-2.49-2.35-5.57-3.61-7.8-4.11-0.4 2.08-1.36 4.4-3.08 6.4-0.84 1-1.48 2.06-2.16 2.56 2.66-0.63 5.55-1.11 8.55-1.11 2.5 0 5.18 0.14 7.45 0.35"/>
<path d="m196.56 181.5c4.36 0 6.06 0.69 9.46 0.69 2.33 0 7.2-0.13 8.78-3.53-2.92-0.6-6.12-0.9-9.55-0.9-4.3 0-7.56 0.95-10.52 1.91 0.21 0.83 0.78 1.43 1.23 1.84 0.21 0 0.41-0.01 0.6-0.01"/>
</g>
<use xlink:href="#c" stroke="#000" stroke-width="5.5"/>
<use xlink:href="#e" stroke="#000" stroke-width="4"/>
<path id="c" fill="url(#a)" d="m199.47 137.12c0 1.75 1.24 3.63 3.48 3.63 1.73 0 3.21-1.91 3.57-2.91-1.23-1.34-3.85-2.94-6.39-3.19-0.46 0.59-0.66 1.66-0.66 2.47zm83.44 77.94c2.66-20.49 2.07-29.99 0.56-33.51 3.9-0.22 7.21-0.76 10.23-2.08-3.36-3.27-8.75-10.06-10.47-16.02-1.42-4.91-4.69-12.71-8.72-14.22 2.67-0.85 4.58-2.03 6.89-5.31-6.89-3.26-9.86-7.4-16.79-10.92 2.19-1.28 4.11-3.57 4.75-5.96-3.6-0.48-7.04-1.85-10.45-3.52-0.55 2.7-1.51 5.18-4.41 8.4l-1.99-1.69c1.81-2.09 3.92-5.37 3.92-8.01 0-3.66-2.96-7.26-4.99-8.44-2.21-1.27-4.19-1.07-8.82 2.08-1.55 1.11-5.16 4.41-7.23 6.19l-1.45-1.73c2.02-1.95 4.59-4.01 5.84-5.07-1.36-0.27-2.45-0.33-3.32-0.33-3.9 0-7.71 0.52-10.76 2.89-19.47 0-29.5 11.07-31.61 16.31-7.48 4.4-15.75 11.12-15.75 15.95 0 1.27 0.18 2.08 0.46 2.64 2.01-1.03 3.96-2.74 5.71-4.3l1.19 1.33c-1.49 1.52-4.59 3.95-5.89 4.79-0.97 1.28-1.21 3.39-1.21 5.21 0 5.38 5.58 10 11.37 10 8.25 0 11.17-7.64 10.69-11.16 4.48-0.36 17.21 4.16 17.21 17.21 0 8.14-8.93 9-12.05 9-3.14 0-5.46-0.97-8.91-0.97-3.47 0-5.06 1.23-5.06 3.56 0 3.15 3.65 5.99 7.61 5.99 3.89 0 4.18-3.21 7.3-3.21 1.83 0 4.96 0.96 4.96 6.06 0 5.06-5.31 7.2-10.59 7.2-12.2 0-20.59-8.89-24.14-8.89v11.12c-11.3 0-15.06-3.15-19.75-7.46-3.87 3.15-8.12 9.21-8.12 16.08 0 4.76 0.4 8.68 1.36 11.4-9.66 1.37-19.61 10.79-24.35 21.81-3.03 7.02-3.85 10.75-10.06 13.4 3.48 8.59 11.21 12.95 18.53 13.23-4.61 5.24-1.92 16.73 1.49 17.23 4.47-4.1 9.23-5.02 14.38-5.02 11.87 0 18.28 4.22 29.79 4.22 21.91 0 35.88-7.45 46.47-16.76 4.82 2.31 11.87 3.56 15.16 3.56 6.46 0 11.99-2.45 14.8-6.34-2.22-2.94-4.95-10.16-3.02-15.43 2.67 2.17 7.66 3.77 11.51 2.93-0.83-8.95 1.42-16.8 4.02-20.24 2.96-3.94 4.84-9 5.53-12.38h10.79c-1.57-2.4-3.24-6.04-2.61-10.82zm-72.97-73.38s-1.14-1.93-2.33-3.05c-0.52 1.41-2.57 3.47-4.63 3.47-2.98 0-4.86-2.7-4.86-5.14 0-1.13 0.56-2.92 1.44-3.92 3.55 0.32 8.29 2.29 11.93 7.41-0.01-0.02-1.55 1.23-1.55 1.23zm151.54 201.07c11.1-13.7 6.99-28.64 6.99-35.51 0-10.05 10.12-16.61 10.12-24.9 0-2.29-0.07-4.25-1.16-6.34-4.62 4.58-7.42 4.17-11.52 5.93-4.65 2-8.99 6.81-7.86 12.23-6.53-4.61-16.78-10.5-16.78-19.99 0-13.61 24.51-9.85 24.51-24.33-2.44 3.62-5.41 5.28-9.69 5.28-4.24 0-9.88-2.61-15.51-2.61-10.5 0-14.77 7.42-14.77 11.09 0 3.68 0.06 6.63 1.76 9.65-7.89-2.87-14.21-10.49-14.21-20.61 0-30.08 41.43-21.21 46.58-42.04-14.63 11.28-25.52 1.47-39.11 10.54 0.68-3.54 1.99-5.83 5.15-8.49-8.52 0.68-14.35 2.66-21.82 9.51 5.67-17.86 15.5-24.15 29.47-26.26 26.16-3.95 38.45-20.87 38.45-39.25 0-6.89-0.59-11.58-2.3-16.55-4.19 10.87-15.25 18.4-25.37 21.76 1.83-3.5 3.15-8.47 1.57-14.37-2.1 1.06-7.1 4.16-10 5.5-6.13 2.87-25.11 10.48-21.82 35.86-7.86 6.89-21.21 18.67-21.21 43.32 0 18.88 19.78 44.74 32.81 52.78 13.05 8.05 32.38 15.83 32.38 33.29 0 16.97-12.14 29.24-28.45 29.24-5.47 0-9.08-1.01-13.14-4.21 1.76-1.88 2.67-4.87 2.67-8.48 0-20.71-31.05-31.97-57.56-48.79-3.51-2.22-6.11-4.52-9.1-8.08-2.45 1.39-7.15 1.69-10.94 1.69-3.3 0-8.47-1.07-13.73-2.92-9.98 8.18-25.44 16.33-47.33 16.33-11.53 0-18.92-4.26-29.14-4.26-5.14 0-10.77 1.35-14.45 6.27-5.92-1.87-9.02-11.23-5.92-19.04-5.42-1.2-10.35-3.64-14.36-9.02-5.94 3.87-14.83 9.61-20.661 11.11-5.817 1.47-18.838 8.24-22.238 8.24-5.25 0-8.419-5.5-12.153-5.5-4.444 0-9.224 5.3-9.224 8.5 0 3.81 3.24 7.3 6.419 8.74-8.14-0.27-10.758 2.19-10.421 7.18 4.587 0.74 7.476 6.93 6.346 10.71 0.353 0.96 2.129 1.93 4.018 1.38-0.587 2.47-1.994 7.7 1.749 10.76 1.448-2.74 3.371-3.67 6.141-3.67 2.75 0 5.131 2.63 5.791 4.52 1.814-0.41 3.841-2.16 3.841-4.58 0-4.82 2.419-8.04 4.47-8.16 0.661 2.95 3.211 3.91 5.308 4.58-0.339-5.25 3.169-6.92 5.468-6.92 3.639 0 5.207 1.58 6.589 4.25 2.117-0.8 3.437-3.13 3.337-5.76-0.09-2.63-0.51-3.72-1.934-4.98 1.114-1.26 6.734-4.03 12.944-4.03 9.22 0 13.4 3.13 19.34 6.97 1.83-1.26 3.55-3.39 3.77-6.61 4.04-0.45 7.05 4.54 10.88 9.79 2.36-1.32 6.05-6.06 5.47-10.28 8.18 0.62 12.53 2.87 17.7 6.07 3.42-1.67 4.64-5.64 4.83-9.17 18.58 18.18 36.64 23.29 60.1 24.85 17.89 1.19 28.29 11.72 29.83 16.99-2.79-1.45-6.29-2.2-10.76-2.2-11.72 0-21.15 14.35-21.15 28.77 0 10.2 1.63 18.96 11.61 29.74 9.31 9.97 11.76 11.2 11.76 20.97 5.11-1.48 6.49-4 7.87-7.35 0.07 7.54 3.49 14.05 8.61 15.67 2.77-5.28 5.12-8.48 8.41-10.58 0.94 21.45-19.94 33.49-27.37 33.49-5.97 0-6.39-3.33-11.22-3.33-4.76 0-10.35 3.96-10.35 9.51 0 3.46 2.18 5.85 4.53 7.23-5.7 3.01-6.39 6.06-5.97 10.27 7.12-1.44 10.04 5.24 8.73 9.59 4.4 0.94 7.61-1.12 9.88-3.16 0.7 2.16 2.72 4.22 5.14 4.87 1.52-2.64 3.89-4.56 6.8-4.56 2.93 0 5.36 1.13 6.59 5.2 3.3-0.72 7.23-6.82 5.3-11.03 3.36-0.91 6.71-5.7 6.87-9.01 2.24 2.93 5.19 5.2 8.35 3.76-0.32-5.63 4.42-9.7 7.58-9.7 1.84 0 3.35 0.26 4.53 0.87 0.41-0.74 0.74-1.78 0.74-2.91 0-2.67-2.25-4.68-4.26-5.77 6.08-3.9 11.9-11.83 13.63-16.97 0.48 3.33 2.19 5.94 5.54 6.64 2.3-1.94 3.12-3.54 3.47-7.82 6.31 2.05 12.79 1.64 15.04-2.29-1.68-1.43-3.37-3.88-3.37-7.1 0-8.32 2.8-11.62 2.8-19.19 0-7.75-5.49-14.07-12.45-14.07-4.59 0-8.55 1.81-10.57 4.11-8.73 0-17.72-9.63-17.72-20.2 0-10.07 6.41-16.07 14.11-19.74 4.74 2.07 12.44 4.44 20.54 4.44 8.08 0 14.31-2.37 17.24-5.15 1.12 1.16 3.58 3.23 6.97 3.23 5.87 0 9.61-1.71 12.55-5.37 2.9-3.66 5.22-7.28 10.36-11.61-4.04-2.3-9.1-1.62-13.28 1.55m-129.74-13c-1.72 1.97-3.64 3.64-5.41 3.64-7.13 0-11.82-0.37-18.37-0.37-28.85 0-50.12 18.11-50.12 38.84 0 12.67-0.54 15.46-4.48 19.79 1.73 1.36 4.4 2.23 6.67 2.14-3.83 10.35-21.39 13.71-25.64 13.71-5.96 0-6.12-5.59-12.85-5.59-4.37 0-9.88 2.01-9.88 7.04 0 2.29 0.54 4.8 1.41 6.22-2.44-1.35-5.18-1.67-7.47-1.67-4.04 0-8.542 3.75-8.542 8.9 0 4.79 3.122 9.7 6.902 9.7 2.2 0 3.93-0.17 5.74-0.65-3.39 4.64-4.12 8.88-0.53 12.33 0.69-1.69 3.06-4.37 7.69-4.37 3.45 0 7.17 3.27 6.31 8.15 3.8-0.92 9.27-4.04 8.24-13.62 2.98 0 6.14-0.87 7.45-2.35 0.7 3.14 2.59 6.25 6.35 7.7 1.02-1.92 3.74-4.97 6.95-4.97 3.53 0 5.19 1.58 6.21 3.23 1.84-2.53 2.92-4.67 1.37-9.22 5.19-1.33 16.46-5.45 22.5-9.62l2.66 5.29c4.32-1.68 8.46-5.44 10.82-9.13 2.12 2.88 2.29 5.68 2.5 9.27 8.41-5.84 16.71-13.43 16.71-27 0-12.38-4.8-12.26-4.8-18.96 0-6.66 6.07-15.76 15.86-15.76 2.19 0 3.18 0.03 4.34 0.11 1.63-10.96 8.72-21.19 16.78-24.13-3.25-4.03-8.73-6.97-15.37-8.65m-106.77-84.92c4.76-9.36 13.34-18.95 23.02-21.25-0.52-2.71-1.05-4.66-1.05-9.41 0-1.84 0.55-4.79 1.06-6.48-11.4-5.93-29.74-17.02-33.2-21.95-9.87-14.01-18.254-19.24-18.137-26.87 0.041-3.16 2.152-7.64 2.152-11.62s-4.876-5.76-7.97-5.76c-3.581 0-7.334 1.11-7.511 4.42-0.162 3.32 1.158 6.27 1.628 7.98 0.614 2.29 0.322 5.53-0.071 8.07-3.257-3.55-6.425-7.67-6.425-11.3 0-3.72-3.228-6.43-6.962-6.26-3.737 0.18-9.69 4.67-9.69 9.02 0 3.8 2.828 5.28 5.425 6.95 1.686 1.12 3.545 2.46 4.628 6.44-2.843-1.61-5.013-2.16-8.426-2.16-3.416 0-8.125 1.62-8.125 7.58 0 7.48 5.497 10.36 11.674 11.19-0.469 5.48 4.338 13.94 12.856 13.94 1.861 0 3.723-0.93 4.545-2.16 10.263 13.96 11.806 24.49 11.858 32.7 3.891 0 7.381-1.02 8.141-6.96 3.8 11.08 3.25 19.86 0.23 28.23 4.08 0.67 10-1.28 11.48-5.76 3.79 6.35 4.1 8.4 4.21 11.54 2.47-3.38 2.21-5.31 4.66-10.12m133.86 93.14c-5.54-6.51-17.07-10.08-25.36-10.38-0.03 0 0.03-0.06-0.08 0.06 9.92 2.43 14.07 6.21 16.83 9.96 3.95-0.61 7.31-0.23 8.61 0.36"/>
<use xlink:href="#b" stroke="#000" stroke-width="4.5" fill="#efcf4d"/>
<path id="b" d="m85.5 133.34c-4.31 0-6.771 1.71-8.125 3.88 2.759 1.54 4.213 2.76 5.344 4.62 1.818-1.86 4.276-2.59 6.5-2.59 1.926 0 3.409 0.08 4.812 0.5-1.513-4.01-4.093-6.41-8.531-6.41zm-20.812 5c-4.942 0-8.008 4.24-8.5 8.35 2.296 0.11 3.719 0.59 5.156 1.47 1.865-2.53 5.993-6.11 10.906-5.82-1.727-2.85-4.268-4-7.562-4zm-11.094 30.57c-3.765 0.76-7.125 4.55-7.125 9.65 0 4.1 2.197 7.32 3.812 9.25 0.92-3.91 3.203-6.32 5.281-7.28-2.004-2.71-3.388-6.84-1.968-11.62zm16.094 26.71c-1.758 1.5-2.709 2.43-7.063 3.32 0.937 1.72 4.159 5.62 8.406 5.62 3.244 0 6.899-1.71 9.125-5.09-5.657 0.06-8.352-1.95-10.468-3.85zm-16 83.66c-5.26 0-8.43 3.6-10.157 7.66 2.874-0.14 4.919 0.29 6.5 1.12 0.294-2.45 2.627-6.32 7.157-8.34-0.766-0.18-2.002-0.44-3.5-0.44zm-6.563 27.91c-2.907 1.06-4.313 3.7-4.313 6.4 0 3.66 2.044 6.55 5.094 9.22 0.967-3.93 3.184-5.65 4.532-6.43 0.956-2.8-0.812-8.51-5.313-9.19zm44.469 8.59c-4.147 0-3.821 4.22-3.688 6.66 0.513 1.52 1.985 3.77 3.344 5.31 4.226-2.99 4.872-4.75 5.469-7.37-0.939-3.04-2.693-4.6-5.125-4.6zm-25.563 11c-3.018 0-4.006 2.57-4.375 3.44-0.426 3.78 3.686 7.92 8.125 7.72-0.216-2.37 0.219-4.97 0.907-6.75-0.878-2.63-2.485-4.41-4.657-4.41zm45.749 72.1c-5.19 0-7.99 4.53-8.37 8.9 1.54-0.27 4.41-0.34 6 0.34-0.02-4.04 2.86-6.45 6.78-7.96-0.74-0.59-2.04-1.28-4.41-1.28zm-15.655 18.53c-2.872 0.5-7.469 3.79-7.469 9.37 0 4.11 1.851 7.12 3.625 9.28 1.359-3.43 3.185-4.66 4.813-5.84-2.659-3.75-3.131-9.47-0.969-12.81zm56.315 19.03c-3.21 0-5.27 3.93-5.28 3.9 1.75 1.76 2.58 3.36 1.22 7.16 4.58-0.13 9.56-3.58 9.09-7.16 0 0-1.79-3.9-5.03-3.9zm-35.97 5.18c-3.74 0-5.61 3.08-6 4.5-0.07 3.4 3.27 6.91 5.87 8.32 1.97-1.42 3.59-4.1 4.25-5.53 1-2.58 0.09-7.29-4.12-7.29zm115.75 3.97c-6.87 0-9.88 6.07-8.34 14.1 1.74-2.15 3.53-2.92 5.4-3.38-0.47-3.78 2.65-8.48 6.5-10-0.69-0.42-2.15-0.72-3.56-0.72zm63.44 17.07c-1.9 0-5.53 2.9-5.13 7.96 1.58 0.74 3 1.91 4.72 5.94 2.46-0.41 6.78-4.48 6.78-8.28 0-0.8-0.33-2.72-1.47-4.16-1.26-0.98-3.43-1.46-4.9-1.46zm-63.82 13.43c-0.86 0-2.07 0.17-3.28 0.63-1.63 1.32-2.94 3.16-2.94 7.28 0 3.26 1.74 6.28 3.76 7.19 2.68-4.26 5.54-6.26 7-7.03 1.38-3.85-0.28-8.07-4.54-8.07zm29 6.94c-2.21 0-3.89 1.55-5.43 4.19 1.66 3.55 2.81 7.08 2.97 10.4 3.98-2.48 6.38-5.82 7.09-9.24-0.24-2.5-1.7-5.35-4.63-5.35z" fill="#efcf4d"/>
<g id="f">
<path fill="#efcf4d" d="m418.47 12.284-0.6 1.122-0.97-0.778c-1.21-0.946-2.63-1.626-3.22-1.769-0.99-0.257-1.29-0.235-1.4-0.154-0.87 0.753-0.36 7.159-0.19 9.264l0.15 2.043-1.75-1.008c-1.05-0.621-2.8-1.245-3.95-1.545-1.25-0.35-1.57-0.226-1.67-0.179-0.04 0.028-0.16 0.165-0.32 0.773-0.45 1.78 0.43 3.68 1.36 5.701 1.05 2.205 2.12 4.48 1.51 6.879-0.54 2.074-2.49 3.938-5.57 3.129-2.77-0.739-4-2.913-4.98-4.665l-0.28-0.485c-1.16-2.012-3.67-4.685-7-5.575-1.24-0.325-2.49-0.624-2.97-0.338-0.57 0.324-1.03 1.984-1.49 3.778-1.31 5.155-0.13 12.378 2.83 17.565l0.38 0.652-0.46 0.582c-2.29 2.941-3.69 6.244-4.07 7.746-0.87 3.351-0.67 3.65 2.53 4.506 4.11 1.097 8.6-0.705 12.16-2.143 2.87-1.159 5.13-2.06 6.95-1.579 2.72 0.719 2.94 2.096 2.94 3.826 0 5.388-6.87 10.75-19.34 15.175-0.32 0.142-5.45 1.76-10.5 3.865-6.97 2.893-11.9 5.885-14.74 9.291l-0.81 0.983-0.83-0.983c-2.67-3.243-6.94-6.008-13.75-8.858-1.88 0.888-4.02 1.862-7.63 3.479 4.24 1.957 6.76 3.563 6.76 5.976 0 3.596-3.11 5.407-9.24 5.407s-9.21-1.811-9.21-5.407c0-2.822 3.55-4.661 8.58-6.98 0 0 6.16-2.749 8.08-3.74 1.91-0.987 5.35-2.82 5.35-2.82 3.08-1.781 6.87-4.229 11.46-8.926l0.77-0.786 0.74 0.803c4.31 4.514 8.21 7.033 11.49 8.909l2.4 1.262c2.64-1.12 4.59-1.755 6.1-2.264-9.61-3.983-17.68-9.788-20.77-14.971-3.22 5.225-11.48 11.131-21.21 15.13-2.46 1.145-8.32 3.109-12.88 5.111-6.1 2.625-11.98 6.739-15.01 10.55l-0.84 1.039-0.82-1.058c-3.05-3.854-7.87-7.349-14.25-10.386-1.69 0.826-3.48 1.699-6.73 3.137 4 1.931 6.49 3.594 6.49 5.99 0 3.621-3.2 5.454-9.48 5.454-6.3 0-9.5-1.833-9.5-5.454 0-2.897 3.53-4.577 9.29-7.098 0 0 5.44-2.371 7.35-3.289 1.91-0.931 5.38-2.851 5.38-2.851 3.07-1.775 7.61-4.657 11.41-9.172l0.8-0.957 0.81 0.957c3.79 4.515 8.36 7.397 11.43 9.172l2.92 1.531c2.97-1.277 5.12-2.032 6.79-2.625-11.44-4.311-17.7-9.452-17.7-14.596 0-2.116 1.38-4.248 4.03-4.248 1.88 0 3.84 1.458 6.33 3.324 3.13 2.321 7 5.209 11.24 5.209 3.34 0 3.57-0.26 3.57-3.711 0-1.545-0.54-5.105-2.03-8.559l-0.3-0.677 0.52-0.523c4.17-4.268 7.1-10.943 7.1-16.263 0-4.487 0-4.487-3.48-4.487-3.42 0-6.52 1.931-8.14 3.594l-0.4 0.389c-1.37 1.438-3.11 3.24-5.97 3.24-3.17 0-4.61-2.317-4.61-4.478 0-2.46 1.6-4.399 3.15-6.274 1.41-1.693 2.73-3.322 2.73-5.141 0-0.949 0-1.103-1.77-1.103-1.21 0-3.05 0.165-4.22 0.481l-1.94 0.521 0.66-1.934c0.7-1.976 2.78-8.046 2.09-9.0145-0.06-0.101-0.36-0.2099-1.37-0.2099-0.6 0-2.15 0.2714-3.54 0.8874l-1.16 0.501-0.29-1.2292c-0.65-2.6109-3.42-6.1597-6.45-7.3267-3.03 1.167-5.77 4.7158-6.42 7.3267l-0.3 1.2292-1.15-0.501c-1.41-0.616-2.95-0.8874-3.55-0.8874-1 0-1.31 0.1089-1.37 0.2099-0.67 0.9685 1.4 7.0385 2.08 9.0145l0.67 1.934-1.93-0.521c-1.2-0.316-3.03-0.481-4.23-0.481-1.79 0-1.79 0.154-1.79 1.103 0 1.819 1.34 3.448 2.76 5.141 1.54 1.875 3.13 3.814 3.13 6.274 0 2.161-1.44 4.478-4.6 4.478-2.87 0-4.6-1.802-5.98-3.24l-0.39-0.389c-1.6-1.663-4.71-3.594-8.14-3.594-3.46 0-3.46 0-3.46 4.487 0 5.32 2.9 11.995 7.08 16.263l0.51 0.523-0.3 0.677c-1.48 3.454-2.03 7.014-2.03 8.559 0 3.451 0.23 3.711 3.58 3.711 4.25 0 8.12-2.888 11.23-5.209 2.49-1.866 4.45-3.324 6.33-3.324 2.66 0 4.03 2.132 4.03 4.248 0 5.301-6.62 10.588-18.68 14.959-2.05 0.815-7.1 2.533-11.26 4.137-5.02 1.953-11.61 5.801-14.48 9.143l-0.81 0.96-0.78-0.96c-2.74-3.227-7.01-5.975-13.87-8.841-1.89 0.901-3.97 1.833-7.64 3.482 4.35 1.989 6.93 3.593 6.93 6.048 0 3.711-2.99 5.44-9.44 5.44s-9.46-1.729-9.46-5.44c0-2.953 3.62-4.8 8.74-7.109 0 0 5.85-2.505 8.09-3.611 2.25-1.102 5.17-2.82 5.17-2.82 3.11-1.781 6.88-4.229 11.48-8.926l0.75-0.758 0.75 0.758c3.92 3.885 7.37 6.555 11.5 8.926l2.49 1.326c2.67-1.145 4.62-1.755 6.14-2.286-9.67-3.963-17.78-9.802-20.89-14.999-3.24 5.273-11.44 11.172-21.09 15.085-0.98 0.454-7.97 2.776-13.01 4.945-6.98 2.97-12.12 6.395-15.03 10.149l-0.81 1.046-0.84-0.999c-3.07-3.646-7.74-6.972-13.83-9.885-1.65 0.82-3.53 1.707-6.76 3.143 4.03 1.931 6.55 3.619 6.55 6.015 0 2.479-1.64 5.454-9.49 5.454-7.84 0-9.48-2.975-9.48-5.454 0-2.897 3.52-4.577 9.26-7.098 0 0 5.23-2.3 7.68-3.434 2.45-1.142 5.07-2.706 5.07-2.706 3.08-1.775 7.61-4.657 11.41-9.172l0.82-0.957 0.8 0.957c3.8 4.515 8.33 7.397 11.42 9.172l2.55 1.416c2.98-1.282 5.21-2.06 6.85-2.631-11.24-4.285-17.4-9.367-17.4-14.475 0-2.116 1.4-4.248 4.06-4.248 1.88 0 3.84 1.458 6.33 3.324 3.11 2.321 6.98 5.209 11.22 5.209 3.34 0 3.57-0.26 3.57-3.711 0-1.545-0.53-5.105-2.02-8.559l-0.28-0.677 0.5-0.523c4.18-4.268 7.09-10.943 7.09-16.263 0-4.487 0-4.487-3.46-4.487-3.43 0-6.55 1.931-8.16 3.594l-0.38 0.389c-1.39 1.438-3.12 3.24-6 3.24-3.15 0-4.59-2.317-4.59-4.478 0-2.46 1.6-4.399 3.14-6.274 1.41-1.693 2.73-3.322 2.73-5.141 0-0.949 0-1.103-1.77-1.103-1.19 0-3.02 0.165-4.21 0.481l-1.94 0.521 0.66-1.934c0.67-1.976 2.75-8.046 2.08-9.0145-0.06-0.101-0.35-0.2099-1.36-0.2099-0.62 0-2.14 0.2714-3.56 0.8874l-1.13 0.501-0.31-1.2292c-0.65-2.6109-3.41-6.1597-6.43-7.3267-3.02 1.167-5.79 4.7158-6.44 7.3267l-0.31 1.2292-1.14-0.501c-1.4-0.616-2.95-0.8874-3.56-0.8874-1 0-1.3 0.1089-1.35 0.2099-0.68 0.9685 1.39 7.0385 2.08 9.0145l0.67 1.934-1.95-0.521c-1.18-0.316-3.02-0.481-4.21-0.481-1.78 0-1.78 0.154-1.78 1.103 0 1.819 1.33 3.448 2.72 5.141 1.56 1.875 3.15 3.814 3.15 6.274 0 2.161-1.43 4.478-4.59 4.478-2.89 0-4.6-1.802-6.01-3.24l-0.36-0.389c-1.63-1.663-4.74-3.594-8.14-3.594-3.48 0-3.48 0-3.48 4.487 0 5.32 2.92 11.995 7.08 16.263l0.52 0.523-0.29 0.677c-1.48 3.454-2.03 7.014-2.03 8.559 0 3.451 0.24 3.711 3.57 3.711 4.25 0 8.1-2.888 11.23-5.209 2.49-1.866 4.47-3.324 6.35-3.324 2.64 0 4.03 2.132 4.03 4.248 0 5.575-7.32 11.128-20.6 15.628 0 0-5.95 2.04-9.34 3.468-6.79 2.837-11.79 5.888-14.64 9.328l-0.83 0.987-0.81-0.987c-2.68-3.311-7.01-6.101-13.93-8.998-1.8 0.904-3.72 1.847-7.51 3.54 4.24 1.959 6.75 3.566 6.75 5.962 0 3.649-3.05 5.423-9.3 5.423-6.26 0-9.29-1.774-9.29-5.423 0-2.936 3.56-4.772 8.58-7.034 0 0 5.74-2.527 8.26-3.725 2.51-1.22 5.17-2.781 5.17-2.781 3.09-1.781 6.88-4.229 11.46-8.926l0.77-0.758 0.74 0.758c3.93 3.885 7.37 6.555 11.48 8.926l2.37 1.334c2.65-1.116 4.66-1.791 6.21-2.323-9.66-3.968-17.73-9.787-20.82-14.984-3.27 5.315-11.5 11.215-21.19 15.147-3.16 1.307-6.61 2.286-13.07 4.953-6.49 2.69-12.02 6.404-14.93 10.168l-0.79 1.036-0.86-0.994c-2.98-3.54-7.78-6.859-14.166-9.86-1.658 0.809-3.51 1.682-6.731 3.129 3.927 1.903 6.406 3.549 6.406 5.934 0 3.711-2.993 5.44-9.396 5.44-6.393 0-9.385-1.729-9.385-5.44 0-2.835 3.461-4.543 9.176-7.05 0 0 5.705-2.463 7.334-3.241 1.628-0.784 5.502-2.947 5.502-2.947 3.08-1.775 7.61-4.657 11.42-9.172l0.8-0.957 0.81 0.957c3.79 4.515 8.32 7.397 11.42 9.172l2.67 1.455c2.97-1.29 5.2-2.043 6.87-2.614-11.34-4.288-17.53-9.401-17.53-14.531 0-2.116 1.39-4.248 4.05-4.248 1.86 0 3.84 1.458 6.33 3.324 3.11 2.321 6.96 5.209 11.21 5.209 3.37 0 3.58-0.26 3.58-3.711 0-1.545-0.54-5.105-2.02-8.559l-0.31-0.677 0.53-0.523c4.18-4.268 7.08-10.943 7.08-16.263 0-4.487 0-4.487-3.48-4.487-3.41 0-6.52 1.931-8.13 3.594l-0.39 0.389c-1.39 1.438-3.11 3.24-5.98 3.24-3.17 0-4.6-2.317-4.6-4.478 0-2.46 1.6-4.399 3.14-6.274 1.39-1.693 2.74-3.322 2.74-5.141 0-0.949 0-1.103-1.78-1.103-1.19 0-3.03 0.165-4.22 0.481l-1.93 0.521 0.65-1.934c0.68-1.976 2.75-8.046 2.09-9.0145-0.06-0.101-0.35-0.2099-1.36-0.2099-0.62 0-2.16 0.2714-3.57 0.8874l-1.12 0.501-0.31-1.2292c-0.66-2.6109-3.42-6.1597-6.44-7.3267-3.02 1.167-5.77 4.7158-6.42 7.3267l-0.32 1.2292-1.14-0.501c-1.4-0.616-2.94-0.8874-3.54-0.8874-1.02 0-1.32 0.1089-1.4 0.2099-0.66 0.9685 1.43 7.0385 2.12 9.0145l0.66 1.934-1.93-0.521c-1.2-0.316-3.041-0.481-4.228-0.481-1.791 0-1.791 0.154-1.791 1.103 0 1.819 1.334 3.448 2.745 5.141 1.534 1.875 3.154 3.814 3.154 6.274 0 2.161-1.46 4.478-4.617 4.478-2.866 0-4.594-1.802-5.973-3.24l-0.396-0.389c-1.627-1.663-4.72-3.594-8.139-3.594-3.473 0-3.473 0-3.473 4.487 0 5.32 2.918 11.995 7.084 16.263l0.527 0.523-0.307 0.677c-1.482 3.454-2.028 7.014-2.028 8.559 0 3.451 0.238 3.711 3.581 3.711 4.241 0 8.109-2.888 11.221-5.209 2.49-1.866 4.46-3.324 6.34-3.324 2.64 0 4.03 2.132 4.03 4.248 0 5.301-6.59 10.574-18.658 14.959-2.035 0.804-4.21 1.316-9.661 3.451l-1.737 0.733c-6.974 2.911-11.532 5.799-14.352 9.096l-0.807 0.946-0.815-0.96c-2.756-3.272-7.111-6.034-14.035-8.928-1.73 0.823-3.711 1.738-7.244 3.283 4.334 2.208 6.791 4.078 6.791 6.348 0 2.616-3.068 5.44-9.809 5.44-6.905 0-9.354-2.807-9.354-5.44 0-3.269 3.648-5.088 9.225-7.493 0 0 6.359-2.684 7.722-3.341 1.367-0.661 5.063-2.706 5.063-2.706 3.258-1.876 7.15-4.395 11.448-8.909l0.748-0.803 0.775 0.786c4.594 4.697 8.371 7.145 11.463 8.926l2.675 1.46c2.668-1.142 4.556-1.864 6.113-2.401-9.622-3.999-17.753-9.849-20.98-15.032-3.241 5.438-11.952 11.578-22.201 15.544-0.507 0.201-6.567 2.331-11.258 4.24-7.068 3.19-9.823 6.359-9.823 11.329 0 6.496 5.075 10 9.851 10h364.98c4.78 0 9.86-3.504 9.86-10 0-4.869-2.64-8.021-9.41-11.13-1.66 0.795-3.63 1.662-6.61 3.02 4.29 1.967 7.01 3.688 7.01 6.51 0 3.711-2.98 5.44-9.37 5.44-6.52 0-9.82-1.838-9.82-5.44 0-2.64 3.33-4.739 9.09-7.478 0 0 6.77-3.135 8.37-3.885 1.61-0.761 5.85-2.841 5.85-2.841 9.57-4.951 12.05-9.435 12.05-21.796v-0.138s10.98-42.932 11.66-45.573c-3.3 0.3717-5.86 3.45-6.93 5.435m-398.38 47.348c0-1.73 0.22-3.107 2.932-3.826 1.817-0.481 4.094 0.42 6.968 1.579 3.573 1.438 8.032 3.24 12.153 2.143 1.687-0.453 2.52-0.845 2.798-1.326 0.279-0.459 0.19-1.394-0.262-3.18-0.384-1.502-1.788-4.805-4.077-7.746l-0.469-0.582 0.382-0.652c2.989-5.187 4.148-12.41 2.845-17.565-0.469-1.794-0.939-3.454-1.513-3.778-0.468-0.286-1.732 0.013-2.975 0.338-3.301 0.89-5.821 3.563-6.994 5.575l-0.26 0.493c-1.004 1.744-2.218 3.918-4.989 4.657-3.064 0.809-5.028-1.055-5.558-3.129-0.614-2.399 0.455-4.674 1.48-6.879 0.956-2.021 1.838-3.921 1.379-5.701-0.161-0.608-0.277-0.745-0.325-0.773-0.067-0.047-0.404-0.171-1.679 0.179-1.148 0.3-2.862 0.924-3.949 1.545l-1.742 1.008 0.148-2.043c0.19-2.105 0.703-8.511-0.194-9.264-0.086-0.081-0.409-0.103-1.377 0.154-0.584 0.143-2.01 0.823-3.209 1.769l-0.999 0.778-0.599-1.122c-1.0552-1.985-3.6343-5.0633-6.9355-5.4354 0.6718 2.6416 11.688 45.573 11.688 45.573l0.002 0.138c0 12.361 2.458 16.845 12.02 21.796l4.468 2.211c2.682-1.172 4.634-1.922 6.158-2.488-11.186-4.282-17.314-9.356-17.314-14.447"/>
<path fill="#00529f" d="m363.34 47.406c-2.96 0-5.37 2.455-5.37 5.469 0 3.02 2.41 5.469 5.37 5.469s5.38-2.449 5.38-5.469c0-3.014-2.42-5.469-5.38-5.469zm-99.53 0c-2.96 0-5.37 2.455-5.37 5.469 0 3.02 2.41 5.469 5.37 5.469s5.38-2.449 5.38-5.469c0-3.014-2.42-5.469-5.38-5.469zm-99.06 0c-2.97 0-5.37 2.455-5.37 5.469 0 3.02 2.4 5.469 5.37 5.469 2.94 0 5.34-2.449 5.34-5.469 0-3.014-2.4-5.469-5.34-5.469zm-99.594 0c-2.949 0-5.375 2.455-5.375 5.469 0 3.02 2.426 5.469 5.375 5.469 2.961 0 5.344-2.449 5.344-5.469 0-3.014-2.383-5.469-5.344-5.469z"/>
</g>
<path id="e" d="m189.59 173s2.23-0.57 2.23-0.59c0.04-0.21 0.05-0.7 0.05-0.99-1.05 0.33-2.02 0.3-2.89 0.26 0.14 0.45 0.43 1.1 0.61 1.32zm4.41 8.78c-0.41-0.65-0.66-1.08-0.82-1.65 0-0.01-1.88 0.71-1.88 0.69-0.14 0.6-0.31 1.33 0.08 2.51 0.58-0.86 1.34-1.28 2.62-1.55zm12.54-10.18c-5.91 0-11.31 1.9-15.41 3.1-4.12 1.2-6.42 2.13-12.21 2.13-11.34 0-15.77-5.67-15.77-10.23 0-3 1.04-5.41 3.04-7.89-0.94-0.78-2.23-1.09-3.47-1.09-3.9 0-8.38 3.35-8.38 10.1 0 10.34 9.44 15.13 18.74 15.13 8.52 0 16.64-3.62 20.26-4.93 3.62-1.29 8.7-2.48 11.86-2.48 5.68 0 7.75 0.43 10.27 1.03 0.04-0.27 0.1-0.79 0.1-1.23 0-1.38-0.19-2.31-0.43-3.17-1.76-0.26-3.82-0.47-8.6-0.47z" fill="#e10000"/>
</svg>