<?xml version="1.0" encoding="UTF-8" standalone="no"?>
<!DOCTYPE svg  PUBLIC '-//W3C//DTD SVG 1.0//EN'  'http://www.w3.org/TR/2001/REC-SVG-20010904/DTD/svg10.dtd'>
<svg id="svg1882" xmlns:rdf="http://www.w3.org/1999/02/22-rdf-syntax-ns#" xmlns="http://www.w3.org/2000/svg" xml:space="preserve" height="734.54" width="600" version="1.0" xmlns:cc="http://creativecommons.org/ns#" xmlns:dc="http://purl.org/dc/elements/1.1/" viewBox="0 0 599.998 734.534"><metadata id="metadata281"><rdf:RDF><cc:Work rdf:about=""><dc:format>image/svg+xml</dc:format><dc:type rdf:resource="http://purl.org/dc/dcmitype/StillImage"/></cc:Work></rdf:RDF></metadata>
	<g id="Ebene_1" transform="translate(-.00016664 -.00052248)">
		<path id="path1885" fill="#1b1c20" d="m308.42 4.2505c3.84 4.0444 7.48 8.8195 9.78 13.614 6.34-1.139 12.85 1.142 15.93 6.522 1.71 3.635-3.28 1.149-4.43 2.689-2.86 0.946-6.33 3.061-7.07 6.14-0.8 3.06 0.56 4.766 2.84 6.491 1.91 1.16 4.06-0.185 5.95-0.575 3.64-2.29 5.57-5.74 6.92-9.385 3.25-0.381 6.12 2.3 7.46 5.185 1.35 3.05 1.74 7.104-0.19 9.96 0.39 1.735 2.88 2.68 3.84 4.22 2.69 3.821 8.05 7.855 4.99 12.835-2.69 5-8.05 9.015-11.89 12.846 0.17 3.449 1.91 7.095-0.39 10.155-2.87-1.326-6.12-2.671-9.18-1.52-2.13 1.13-3.84 2.865-4.04 5.184 0.37 2.67 0.98 5.165 3.45 6.891 4.39 3.255 12.26 2.885 17.06 0.38 2.69-1.735 4.4-4.415 4.99-7.271-0.2-1.549-1.72-2.709-2.89-3.664l-4.97-0.39c0.96-4.015 4.97-7.475 8.79-8.031 1.74-0.769 4.06-0.185 6.16-0.575 2.11-6.13 5.17-12.095 9.98-17.065 3.82 5.166 6.86 11.315 7.86 17.64 0.76 1.151 2.08 0.37 3.06 1.151 2.49 0.564 4.6 3.05 5.16 5.554 0.39 2.875-4.03 1.141-5.36 2.875-2.67 2.116-2.67 5.556-1.71 8.246 1.52 4.785 6.51 6.138 10.91 6.508 5.73 0 10.74-2.289 14.76-6.908l1.34-3.44c-0.58-2.116-1.54-4.406-3.82-5.361-3.86-1.92-7.68 0.576-11.32 0.751-0.76-3.45 0.95-6.111 3.25-8.82-3.25-5.546-7.09-10.916-7.66-17.251 3.84-3.82 8.62-5.555 13.61-6.899l0.76-0.761c0.39-4.396 2.69-7.864 5.38-11.11 2.3 2.105 4.79 4.22 8.05 3.45 1.93 0.185 3.25-1.92 4.4-3.265 0.59-2.115 0.96-4.025 0-5.945-2.47-2.476-6.12-3.061-9.39-2.086l-0.37-0.584c1.91-4.99 6.9-8.245 12.26-8.441 2.1-0.759 4.4 1.726 5.55-1.335 3.47-5.935 8.83-10.35 14.57-13.235 6.72 3.265 10.17 10.165 11.5 16.86 4.03 1.92 8.44 5.76 8.63 10.741l-0.19 3.264c-2.68 0-6.71-1.734-8.44 1.93-0.96 1.326-0.37 3.051 0 4.591 0.97 1.15 2.31 1.325 3.45 1.705 2.49 0 4.61-2.085 5.57-4.2 1.93-1.16 3.06 1.91 4.42 2.68 0.96 2.105 1.14 4.795 0.75 6.9 4.99 3.83 10.17 8.82 10.93 15.331-1.91 4.805-6.7 8.644-10.93 11.704-0.57 3.431 0 7.485-3.45 9.581-2.87-1.16-6.13-2.69-9.01-0.195-2.69 1.51-2.3 4.99-1.52 7.27 3.82 6.728 12.46 6.528 19.55 5.578 3.25-0.77 6.71-3.06 7.84-6.523v-4.016c-0.96-2.309-3.05-3.83-5.17-4.804-0.19-3.07 2.89-5.565 4.99-7.105 1.91-1.9 5.19-0.556 6.9-2.846 2.67-4.035 5.38-8.245 9.96-10.174 1.54-0.39 2.3 0.779 3.45 1.344 5.75 4.795 7.68 11.676 8.25 18.781 2.69 2.105 4.99 5.565 3.82 9.405-2.67 0.585-5.91 0-7.47 3.258-1.15 3.46 0 6.9 2.11 9.58 6.33 5.93 16.49 8.04 24.54 4.41 2.49-1.54 4.79-4.23 5.75-6.9 0.21-3.08-2.28-5.38-4.6-6.72l-6.32-2.293c-1.71-0.186-2.88 0.955-4.6 0.555-0.97-3.43 2.48-5.73 3.45-8.8-4.03-2.68-8.22-6.696-9.2-11.5 3.08-6.901 10.16-10.731 17.25-11.881 3.45-4.405 6.71-11.305 13.24-11.305 1.32 2.66-0.78 6.12 2.47 8.03 1.15 0.79 3.06 0.585 4.43 0.196 1.32-0.761 3.06-2.106 3.06-3.821 0-3.645-1.93-6.51-5.19-8.06-1.15-0.556-3.45-0.75-3.25-2.485 2.47-4.795 8.44-6.14 13.21-5.555l5.95 0.945c5.18-4.591 8.83-11.315 15.73-12.836 5.75 3.45 7.85 10.175 8.81 16.286 2.88 1.355 5.94 4.406 6.53 7.68-0.59 1.715-2.3 3.44-3.45 5.175-6.14 9.2-7.29 20.136-6.9 31.246-1.74 11.113-10.94 18.983-19.96 25.293-4.21 3.85-7.27 9.02-7.08 14.96l8.25 8.62c0 2.67-2.87 3.83-4.41 5.95-2.12 0.95-3.06 3.46-4.62 4.98 0.39 7.67 10.94 1.89 12.67 9.38 0.57 1.92 1.35 3.65 0.37 5.56-1.32 3.45-4.4 6.33-8.03 7.29l-0.78 1.16c0.2 8.05-0.37 17.23 0.39 24.91-0.19 30.46 0.57 63.25 0 93.94l0.57 4.01c-0.96 26.63 0.97 52.31 0 78.57l0.58 1.73c0 14.41-0.39 30.31 0.39 44.48-0.78 17.99 0.57 36.04 0 54.05-0.39 23.98-4.79 45.81-10.91 68.05-18.44 65.75-68.26 125.16-130.19 157.57-28.95 14.95-60.19 25.28-93.35 29.14l-0.56 0.35c-7.29 0-13.8 1.91-21.09 1.35l-1.17 0.56c-7.66-0.37-15.15 0.41-23.37-0.56-14.95-0.18-28.54-3.06-42.57-5.75-54.05-11.85-104.85-39.84-142.8-82.8-34.502-39.45-55.981-86.63-62.882-137.81-2.105-11.33-2.3-24.56-2.495-37.19-0.76-19.57 0.39-39.3-0.37-59.61 0.37-0.97 0.37-2.69-0.39-3.64 0.585-31.64-0.565-61.73 0-91.82-0.76-4.01-0.195-8.81-0.389-13.4 0.389-24.93-0.566-48.88-0.176-72.47-0.761-2.89-0.39-6.89-0.585-10.34-0.176-12.47 0.761-25.88-0.176-39.49-4.229-1.54-8.635-4.79-8.635-9.77-0.194-2.7 1.521-5.01 3.256-6.73 2.69-1.52 8.05-1.15 7.29-5.94l-0.78-2.68c-2.865-2.69-5.731-5.35-8.245-8.43 2.514-3.25 6.53-5.93 8.635-9.39-0.39-3.65-2.69-6.89-5.185-9.77-9.96-5.17-21.09-13.81-22.221-25.89-1.5397-4.788 0.1951-9.769 0.5658-14.173 0.3896-8.811 2.4942-18.985-3.8208-27.046-1.7344-0.75-3.2549-1.91-5.3599-1.529-0.19532-2.476 1.3252-5.166 3.2549-7.281 1.5205-1.91 4.7754-0.38 5.7304-3.05 1.5596-4.62 4.0356-9.22 8.0706-12.475 5.379 1.725 9.57 6.13 12.844 11.13 1.911 0.945 3.041-1.55 4.971-1.55 4.795-0.565 9.395 1.16 12.085 5.565 0.175 0.585 0.76 0.974 0.566 1.715-0.956 0.39-2.301-0.185-3.431 0-3.275 0.78-5.38 3.47-6.92 6.13 0 2.32-0.585 5 1.131 6.725 1.188 1.55 2.904 2.485 4.424 3.07 3.84 0.76 6.53-1.335 9.006-3.44 2.495-2.69 2.689-6.92 1.559-10.36 2.65-0.76 5.731 0.965 8.4 2.105 3.47 1.9 5.4 5.565 5.965 9.006 2.866 2.104 6.51 2.689 9.396 4.229 3.43 2.29 7.66 5.351 7.66 9.776-1.716 4.775-4.405 9.014-8.051 12.639 2.086 4.026 2.301 9.594-0.584 13.224-3.821-1.72-8.031-4.22-12.065-1.32-2.321 1.52-2.886 4.2-3.256 6.88 0.37 2.87 2.105 5.37 4.211 7.68 5.73 4.22 14.17 2.48 20.115-0.21 3.275-1.71 4.99-5.36 4.795-8.79-0.195-3.09-2.865-5.39-5.165-6.92h-2.495c0.39-4.998 4.619-9.004 9.2-10.544l2.69-0.769c0.955-5.936 1.929-12.251 6.896-15.896 6.12 1.901 10.72 7.856 13.04 13.8 3.63-0.38 7.66 0.936 9.57 4.405 0.38 1.336 0.98 2.885 0.59 4.231-1.93 0-3.63 0.945-4.23 2.853-0.57 2.3 0.39 5.37 1.93 7.48 4.21 4.02 10.15 4.02 15.73 3.27 4.77-1.91 10.72-3.84 12.44-9.39-0.2-2.11-1.72-3.083-3.24-4.213-4.04-2.7-10.18-1.346-14.19 0.38-1.17-1.355-0.59-4.035-0.59-5.955 0.39-1.521 1.35-3.061 0.76-4.415-6.31-2.486-12.06-8.226-14.75-14.571 2.3-4.969 6.7-9.005 11.3-11.695 0.59-1.92-0.56-5.359 0.98-7.27 0.93-0.76 1.33-2.495 2.86-1.92 1.15 1.715 3.26 3.265 5.17 4.22 2.69 0.39 4.99-0.575 6.14-2.885 1.17-1.54 0-3.44-0.37-4.785-2.5-2.69-5.93-4.22-9.59-4.6-0.96-2.29 0.76-4.805 2.1-6.901 2.89-3.069 7.29-4.599 11.51-3.255 1.91-0.964 1.91-3.634 2.88-5.554 2.47-5.575 5.36-11.881 10.74-15.731 5.73 2.291 9.76 8.05 13.8 12.465 2.09-0.965 4.78-1.53 7.25-1.149 3.08 0.779 5.21 3.635 5.58 6.705-0.96 0.955-2.11-0.37-3.45 0.194-2.29 0.761-4.78 2.476-4.97 4.99-0.2 2.3 1.54 4.036 3.06 5.556 1.91 1.335 3.64-0.205 5.36-0.77 1.15-2.486 3.64-1.355 5.38-0.576 3.45 2.291 6.12 6.141 7.09 10.156 4.41 1.53 9.2 2.495 12.26 6.715 3.82 5.175-0.78 11.315-3.64 15.896-1.33 1.354-3.26 3.089-1.33 4.814 1.13 1.901 0.57 4.386 0 6.13-3.64 0.575-8.07 0.176-10.37 3.441-1.93 2.29-1.93 5.184-1.93 7.865 0.39 2.689 3.08 4.405 5.01 5.918 4.41 1.74 10.35 1.17 14.17-1.513 2.69-2.485 6.34-5.76 4.41-10.155-1.15-2.495-4.02-4.805-6.9-4.805-1.33-0.946 0.19-2.115 0-3.246 2.1-3.264 5.55-4.024 9.04-4.024 0.74-1.336 0.94-3.071 1.31-4.231 1.54-4.21 4.23-7.66 6.92-11.12l1.32 0.4c4.04 3.831 6.53 9.2 8.64 14.17 4.6 0 9 0.576 11.69 4.23-0.56 2.105-2.69 3.645-3.45 5.556-1.54 3.07-1.17 7.094 0.39 10.155 2.69 4.993 7.86 6.143 13.22 5.943 5.75-1.15 12.65-3.643 14.19-9.959 1.54-2.309-0.2-4.599-0.59-6.919-2.49-3.07-6.14-5.546-10.35-4.99-2.28 0.4-4.77 1.54-6.9 3.284-0.95-4.025 0.98-7.114 2.5-10.359l-0.18-0.975c-5.16-3.041-10.17-6.696-13.23-12.436 0.56-4.22 3.84-7.865 7.46-10.175l4.6-2.68c0.98-5.156 2.11-10.35 6.12-14.18h1.17c0.57 3.83 3.26 7.67 7.29 9.2 2.85 0.185 5.17-1.151 6.49-3.645 0.39-1.725 0.8-4.201-0.17-5.731-2.67-4.044-7.29-5.935-12.07-5.194 0-3.07 3.06-4.406 4.97-6.316 3.63-2.495 8.07-2.319 12.28-1.734 0.94-1.355 2.3-3.051 2.48-4.981 2.71-4.415 6.35-9.5798 10.74-13.215 3.45-4.4151 7.11 0.5648 9.96 2.4755z"/>
		<path id="path1887" fill="#ffe900" d="m302.22 5.1665c5.94 5.1845 9.78 11.314 12.67 17.836 3.45-0.965 6.51-3.061 10.15-1.726 1.35 0.196 3.08 0.38 4.02 1.726-1.33 0.76-3.26 1.325-4.97 2.104-3.26 1.93-7.27 5.176-7.7 9.396 0.6 3.83 2.53 7.28 5.79 9.19 2.1 1.54 5.16 1.54 7.68 0.955 5.34-1.53 8.03-7.095 10.91-11.1 1.33 0.37 1.92 2.095 2.3 3.255 0 3.44-1.15 6.51-3.27 8.82 0.76 1.9 3.47 1.715 4.6 3.44 2.51 2.3 5.36 4.99 6.55 8.44-1.77 6.715-9.42 9.386-14.97 12.065 1.71 2.71 3.64 5.556 3.82 8.46l-0.37 0.361c-4.23-0.946-8.25 0.38-11.7 1.91-4.6 3.83-6.9 9.21-6.9 14.58 0.37 5.552 4.02 10.332 9.4 12.262 3.84 1.71 8.22 0.57 12.65 0.57 7.1-1.52 14.95-4.79 17.44-12.637 1.14-4.22 0-8.235-2.49-11.501l-3.43-2.309c1.91-2.31 5.36-3.236 8.4-2.495 0.97 0.389 1.93 0.594 2.89 0.78 1.54-1.92 1.13-4.61 2.29-6.53 1.16-2.67 2.11-5.75 4.02-8.04h0.78c2.49 4.21 4.02 9.21 4.6 14.179 1.15 1.141 2.13-0.769 3.45 0 1.54 0.391 3.45 0.585 3.84 2.495-5.56 0.761-9.4 6.92-10.74 11.881-0.95 5.565 1.52 10.167 5.73 13.227 7.68 5.18 19.01 4.42 26.67-0.57 4.99-3.46 9.2-8.447 8.61-14.947-0.95-4.62-4.21-9.98-9.39-10.74l-6.69 0.185c0.57-1.14 1.33-2.866 2.87-3.246 0.37-1.344 2.28-1.344 2.86-2.689-4.01-3.46-7.66-8.041-9.96-13.235 0.57-2.662 4.41-3.061 6.51-4.591l7.86-1.92c0.39-1.735-0.94-3.44-0.57-5.555 0.76-1.345 0.96-3.07 2.3-4.22 2.5 1.52 5.75 2.875 8.81 2.495 2.89-0.39 5.77-1.911 7.08-4.61 2.32-3.06 1.56-6.685 0-9.765-1.52-2.875-4.39-3.84-7.08-4.991 1.35-1.519 3.65-1.724 5.77-1.325 1.72 0 3.24 2.671 4.8 0.936 2.86-5.361 7.46-10.721 12.63-14.385l0.78-0.185c3.82 4.424 5.55 9.98 5.36 15.915 3.64 1.355 8.83 1.735 10.93 5.945-2.51 0.77-6.53 0.38-8.83 2.68-1.32 2.3-2.86 4.425-2.3 7.475 0.78 2.31 2.3 4.23 4.6 5.76 3.65 2.301 7.47 0.185 10.74-2.115-0.39-0.389 0.37-0.565 0.57-0.955 1.36 0.566 0.76 2.866 0.58 4.025l-2.1 2.115c4.4 3.061 10.54 7.466 11.87 13.391-3.43 4.639-8.62 6.91-13.22 9.395 1.91 2.329 4.23 3.84 4.04 7.095l-0.59 2.105c-3.25-1.53-9.2-1.725-12.26 0.605-5.18 3.431-7.48 9.96-6.92 15.522 0.39 5.74 6.53 10.54 11.72 12.24 8.42 2.32 18.57 0.98 24.52-5.34 4.79-4.61 7.85-11.302 5.55-17.822-0.56-2.7-2.67-5-5.18-6.345-0.37-1.91 2.32-2.865 3.66-3.441 2.3-1.149 4.99 1.531 6.34-0.779 1.91-3.431 3.62-6.881 7.27-9.58 1.15-0.195 2.12 1.345 2.47 2.124 3.47 4.61 2.89 10.906 2.32 16.091 2.28 0.575 4.97 0.575 6.34 2.495 0.19 1.53-2.11 0.779-2.89 1.345-4.79 1.335-8.42 5.75-8.63 10.532-0.37 4.59 1.91 10.35 6.14 13.25 1.93 1.51 4.21 2.67 5.94 4 4.41 0.95 8.42 3.45 13.8 3.06 2.69 1.35 4.99-0.56 7.88-0.56 4.97-1.36 9.57-4.59 11.87-9.4 0.95-4.02 0.76-8.62-1.54-12.06-3.06-3.852-7.29-5.957-11.5-7.097-0.98-0.195-2.11 0.555-2.67-0.565 0.95-3.265 4.4-4.815 7.27-6.159 0.56-0.751-0.59-1.511-1.15-1.726-4.23-1.131-8.05-4.21-10.55-7.855 0.2-2.486 2.69-3.246 4.21-4.776 3.84-2.124 7.9-3.644 11.91-4.609 1.33-3.266 2.87-7.67 6.88-8.245 0.37 1.92 1.17 3.84 2.89 5.184 2.1 1.316 5.36 2.106 7.85 0.946 1.35-1.151 3.06-0.946 4.02-2.67l-0.37-0.381c2.88-0.4 2.69-3.655 3.25-5.76 0.78-4.21-2.69-6.715-5.38-9.2l-1.91-0.584 1.37-1.336c4.58-0.76 8.42 1.16 12.06 2.875 4.04-4.21 6.71-9.766 12.28-12.855 2.09-0.741 1.89 1.93 2.65 2.885 2.32 4.035 0.8 9.21 1.35 13.81 1.36 0.381 2.51-1.559 4.05-1.559 1.52 0.204 3.43-0.176 3.82 1.559-4.4 5.37-9.39 11.11-10.54 18.225-2.11 6.111-0.76 13.215-2.3 19.726-1.15 13.607-15.54 18.007-21.85 28.747-2.3 2.88-2.5 6.7-3.06 10.17-2.91 3.05-6.73 5.93-8.83 9.58 0.78 1.34 1.54 2.86 3.06 3.62 1.93 2.9 7.48 5.01 5.94 9.02-3.08-1.14-6.9-0.38-9.76-2.09-14.56-2.11-29.53-5.38-44.09-7.3-13.8-2.5-26.65-3.83-40.64-5.75l-0.57-0.39c-12.47-1.33-23.58-2.48-36.06-3.83-7.46-0.18-14.36-0.76-21.65-1.72-13.22-0.96-23.37-0.96-36.41-1.72-3.26-0.8-7.49 0-10.92-0.58-14.95-0.96-29.16 0-44.68-0.77-1.73 0.39-4.21 0.55-5.94 0-9.38 0.77-19.38 0.19-29.14 0.39-4.41 0.77-9.01 0.16-13.61 0.57-3.64 0.59-7.83-0.41-11.3 0.77-12.85 0.2-24.93 0.95-37.19 2.11-5.95 0.19-12.07 1.14-17.64 1.33-2.48 0.59-5.93 0.59-8.64 0.97-13.21 1.92-27.6 2.29-41.01 4.79-6.31 0.39-12.26 1.92-18.59 2.67-13.24 1.93-26.43 4.04-39.475 6.54-16.12 2.48-31.635 6.31-47.755 9.39-0.76-1.16 0-2.89 0.39-4.04l9.005-9.77-0.156-0.76-9.025-9.03c-2.514-8.81-11.13-14.75-18.615-18.96-8.05-5.18-10.525-14.57-11.129-22.992 0.409-2.31 0.604-5.37 0.974-8.06 1.735-5.36 0.39-11.11 0.955-16.296-0.74-2.884-0.955-6.139-2.69-8.625-1.325-2.29-3.2544-4.58-5.1651-6.509 0.585-1.346 2.4951-1.161 3.6451-1.911 0.955-0.39 1.715 1.13 2.69 0.175-0.195-4.599 0.78-8.83 3.625-12.075 5.965 2.115 8.811 8.06 12.085 12.465 3.451-1.725 7.29-4.989 11.5-2.875-2.104 1.92-5.75 3.236-6.899 6.325-0.761 3.07-2.495 7.476 0 10.74 2.104 4.21 6.899 5.546 11.11 5.156 5.185-0.38 9.784-4.015 11.696-8.81 0.194-1.346 0.779-2.505 0.974-3.626 3.84 1.335 5.165 5.556 5.925 9.386 6.725 1.335 13.995 3.05 18.03 9.014-1.15 4.406-5.184 8.996-9.979 9.58h-4.581c-0.196 2.671 3.43 3.831 4.015 6.326 0.566 1.725 1.911 3.255 1.15 5.37-5.574 0-10.935 1.342-14.755 6.122-4.21 4.81-4.99 11.89-2.495 17.65 4.795 8.99 16.295 9.57 25.495 8.05 7.875-1.74 15.516-6.53 18.985-14.19 1.33-5.17 0-10.57-3.84-13.99-2.105-2.3-5.009-2.891-7.679-4.042 0-1.325 1.54-2.875 3.08-3.44 2.494-0.575 6.12-1.17 8.439 0.565 1.13-0.185 0.37-1.735 0.37-2.29 0.2-1.91-0.955-3.46-0.564-5.36 0.194-2.485 0.954-5.38 2.474-7.67 3.28 1.529 4.6 4.97 6.51 7.855 0.78 2.291 1.56 4.804 2.52 7.095 1.15 0 1.15-1.54 2.3-2.105 1.17-1.16 2.86-1.725 4.58-0.965 0.97-0.195 1.54 0.965 2.12 1.53-3.45 1.91-5.77 5.936-6.31 9.777-0.96 6.52 2.47 12.08 7.66 15.33 6.7 4.61 16.1 3.44 23.19 0.58 5.95-2.09 10.92-7.85 11.7-14.2 0.58-3.24-0.2-6.498-2.11-8.992-3.84-5.546-10.37-4.98-16.12-4.785-0.56-2.115 1.74-3.45 3.28-4.405 0.56-0.215 1.15-0.605 1.32-0.984-2.28-1.726-5.53-1.726-8.22-3.061-4.23-2.29-8.25-5.556-10.55-10.155 0-2.67 2.69-3.83 4.21-5.566 2.28-1.91 5.17-2.67 8.05-3.069l0.39-0.751c-0.58-1.93-2.69-3.83-1.34-5.944 3.62 1.92 9 4.775 12.84 1.149 3.06-2.495 3.84-6.14 2.87-9.784-2.67-4.026-6.32-5.936-10.35-7.476-0.18-1.53 1.54-2.865 2.86-3.645 2.89-0.936 6.73-0.936 9.03 1.16l0.56-0.38c1.93-7.095 4.21-14.57 9.2-20.135 3.82 1.53 5.97 5.76 8.46 8.839l3.24 5.731c1.56 0.205 1.56-2.29 2.69-3.06 1.71-1.93 4.21-3.645 6.9-2.485 0 0.184 0.76 0.555 0.56 1.139-5.16 1.531-8.59 6.521-9 12.085 0.19 2.291 2.12 4.201 4.03 5.751 4.04 1.53 7.86-0.195 10.72-3.08 4.23 2.3 6.36 6.725 6.36 11.5 2.84 0.39 6.31-1.345 8.98 0.195 2.52 1.15 5.19 2.115 6.34 4.61-0.39 5.176-4.41 9.386-9.2 11.11l-4.99 1.745c1.71 1.521 3.84 2.846 4.79 5.351l-0.37 0.584c-6.53 1.706-13.43 7.466-14.77 14.366-1.15 0.575 0.19 1.725-0.57 2.495-1.34 5.747 1.52 10.337 5.56 13.777 6.7 5.95 18.01 4.81 25.32 0.6 4.58-3.26 9.37-7.28 9.74-13.422 0.96-4.415-1.32-8.05-3.82-10.935-1.15-1.15-2.69-1.705-4.01-2.865 1.32-2.31 4.77-1.725 7.07-1.54 1.15-4.035 1.72-8.411 4.62-11.88 3.45 3.06 4.58 8.225 5.54 12.27 3.08-0.78 7.85-1.53 10.54 0.77-3.82 4.19-8.61 9.395-6.7 15.525 0.56 4.797 4.21 8.627 8.05 11.297 9.98 3.64 23.39 2.51 31.24-4.97 0.57-1.72 2.48-2.5 3.08-4.231 2.87-5.166 3.06-10.536 0.2-15.711-3.28-4.99-8.46-9.005-15.15-8.236-0.97 0-1.73 0.76-2.71 0.186-0.56-1.16 1.17-2.505 1.74-3.84 0.58-0.955 1.93-0.77 2.1-1.9-1.34-1.726-4.21-1.356-6.14-2.505-3.62-2.106-7.83-4.795-9.76-8.811 0.95-5.555 7.31-8.069 11.89-9.395 0-1.345-0.2-3.255 0-4.785 0.54-1.56 0.54-3.275 1.73-4.61 1.35 0.38 2.28 2.505 3.43 3.645 3.67 2.495 9.2 4.99 13.43 1.725 2.48-1.92 4.8-4.415 4.8-7.875 0-6.501-6.34-10.72-11.13-13.03 3.06-2.29 7.87-1.91 11.13 0 2.12-1.53 1.93-4.775 3.43-7.076 2.32-4.415 5.18-8.8198 9.39-12.084l0.96-0.0005z"/>
		<path id="path1889" fill="#1b1c20" d="m304.73 33.352c3.43 13.4-1.36 27.21 0.96 40.836h0.56c5.19-8.645 12.67-17.855 23.2-19.181 1.73-0.76 2.88 0 4.42 0.4 0.37 1.12-0.97 1.715-1.71 2.651-10.57 0.798-20.53 9.21-24.37 18.79-1.34 3.84-3.27 7.855-2.28 12.085-0.41 1.15-1.73 0.964-2.71 0.76-1.34-1.53 0.57-2.671 0-4.6-0.58-8.06-5.75-15.71-13.23-19.736-5.56-3.08-12.07-3.839-17.43-7.299 0.2-0.75-0.97-1.316-0.19-2.096 4.4 0 9.02 1.735 13.23 3.46 6.49 2.475 12.05 7.466 16.49 13.03 0.37-2.3 0.76-4.405-0.21-6.724-0.39-5.565 0.97-11.481 0.97-17.621 0.18-5.945 0-13.225 0.18-18.215 1.54 0.585 1.54 2.3 2.12 3.46z"/>
		<path id="path1891" fill="#1b1c20" d="m440.07 39.481c-0.39 13.616-4.02 25.876-5.95 39.472l0.2 0.204c5.55-5.359 11.67-11.11 18.96-12.649 2.11 0.76 4.23-1.53 5.95 0.38-2.69 4.025-8.44 2.115-12.09 4.59l-5.34 3.839c-1.93 0.205-1.73 2.505-3.47 3.451-1.15 1.15-2.69 2.495-3.25 4.23-2.11 2.095-4.23 5.351-3.45 8.05-0.96 2.3 0.78 6.325-1.93 7.27-4.39-0.575-0.37-4.97-0.96-7.66 1.93-4.98-1.54-8.615-2.86-12.631-3.28-5.575-8.83-9.415-13.98-13.049-0.78 0.184-1.36-0.38-1.75-1.161 1.54-2.495 4.4-0.379 6.14 0.4 5.94 4.025 10.74 9.581 13.62 16.081 1.52-0.936 1.15-3.645 1.72-5.36 0.56-3.645 1.71-6.696 1.52-10.721 1.17-1.335 0.39-3.655 0.78-5.175 0.19-2.515 0.76-4.795 1.15-7.3 0.97-4.599 2.67-9.005 4.03-13.41 0.76-0.39 0.37 0.76 0.96 1.149z"/>
		<path id="path1893" fill="#1b1c20" d="m167.47 51.177c1.54 8.43 4.04 16.286 4.99 24.921 0.76 1.344 0.39 3.264 1.35 4.59 1.71-1.531 1.52-3.84 2.86-5.371 3.84-7.464 11.13-13.04 18.79-15.33 0.98 0.965 0.37 2.29 0 3.451-3.06 3.07-7.46 2.884-10.54 5.565-8.25 7.845-10.55 19.16-9.59 30.27 0.41 0.787-0.74 1.737-1.52 1.927-0.76-0.19-1.54-0.77-1.93-1.731 0-5.556-1.72-11.676-5.93-15.897-5.94-7.66-15.53-9.384-24.17-11.295-1.91-0.594-2.1-2.514-2.3-4.035 1.54-0.389 3.08 1.141 4.6 1.521 9.98 0 18.79 4.035 24.93 11.5 0.76-0.965 0.59-2.875 0.2-4.026-0.96-12.639-6.34-23.38-4.82-35.27 0.59-0.38 1.17 0.4 1.56 0.77 0.94 2.68 1.72 5.565 1.52 8.44z"/>
		<path id="path1895" fill="#1b1c20" d="m23.719 60.952c7.641 7.29 4.21 19.171 4.386 28.556 0.975 3.46 2.319 7.095 5.38 9.395 4.21-6.724 7.66-15.515 15.71-18.78 3.645-1.17 8.051-2.681 11.89-0.966 0.584 0.585-0.195 1.531-0.565 2.106-1.54 1.92-4.405 0.965-6.511 1.92-7.484 1.91-13.995 8.625-16.49 15.72-1.734 3.647 2.106 5.177 3.431 7.667 2.514 3.83 5.38 7.85 5.38 12.47-0.975 0.55-1.93-0.2-3.08 0.18l-0.76-0.18c-1.345-11.13-15.146-15.34-17.446-26.072-1.325-9.025 1.521-18.606-2.105-26.646 0-1.92-1.539-3.849 0.195-5.37h0.585z"/>
		<path id="path1897" fill="#1b1c20" d="m582.47 63.252c-8.24 9.386-3.84 21.656-9.2 32.191-3.82 9.397-14.56 14.207-19.35 23.197 0.19 1.53-1.72 1.53-2.5 2.49-2.1-1.54-0.17-4.21 0-5.93 1.17-4.02 5.95-6.35 7.88-9.99 1.73-8.042-1.93-16.638-9.42-21.267-1.32-1.53-2.47-3.255-2.47-5.175 0.37-0.741 0.19-1.735 0.93-2.115 5.19 5.945 12.48 10.945 14.02 19.17 0.95 2.135 0 4.427 0.76 6.727 1.93-0.19 2.69-2.49 4.03-3.647 7.29-9.395 4.02-22.805 9.57-32.98 1.54-1.325 3.28-3.84 5.75-2.671z"/>
		<path id="path1899" fill="#ffe900" d="m326.19 92.003c-0.39 0.399-1.34 0.575-1.34-0.195 0-0.955 0.56-1.911 0.76-2.68 0.41 0.565 1.17 1.92 0.58 2.875z"/>
		<path id="path1901" fill="#ffe900" d="m281.56 94.108l-0.22 0.77c-0.78 0.38-0.97-0.37-1.34-0.77l0.97-3.255c0.94 0.585 0.94 2.3 0.59 3.255z"/>
		<path id="path1903" fill="#ffe900" d="m411.9 91.438c0 0.565 0.37 1.344-0.41 1.53-0.76-0.566-0.17-1.53 0.41-1.53z"/>
		<path id="path1905" fill="#ffe900" d="m355.71 97.168c-0.38 0.205-0.75-0.175-0.94-0.565l2.48-3.07c0.19 1.345-0.57 2.68-1.54 3.635z"/>
		<path id="path1907" fill="#ffe900" d="m192.58 96.408c0.97 1.335 1.93 2.865 2.1 4.412l-1.89 1.54c-1.54-1.93-2.32-4.617-1.34-7.287l0.56-0.39c0.57 0.39 0.57 1.14 0.57 1.725z"/>
		<path id="path1909" fill="#ffe900" d="m331.18 98.522c-0.41 1.141-0.41 2.678-1.73 3.068-1.91-0.58-3.84-2.492-3.84-4.597 0.58-0.78 1.36-1.17 2.3-1.55 1.15 0.585 2.32 2.115 3.27 3.079z"/>
		<path id="path1911" fill="#ffe900" d="m410.15 96.993c-0.39 0.75-0.76 1.91-1.72 2.105-0.58 0.175-0.76-0.38-1.15-0.78 0.57-0.76 0.78-1.91 1.91-2.29 0.39 0.185 1.15 0.38 0.96 0.965z"/>
		<path id="path1913" fill="#ffe900" d="m451.37 100.43l-1.34 0.96c-0.76-1.33-0.2-2.868 0-4.222 0.39 0.965 1.91 1.93 1.34 3.262z"/>
		<path id="path1915" fill="#ffe900" d="m247.43 99.098c0 0.565-0.41 1.152-0.98 1.332-0.76-0.767-1.93-2.112-1.15-3.057 0.96 0.185 1.15 1.149 2.13 1.725z"/>
		<path id="path1917" fill="#ffe900" d="m378.92 99.098l-0.19 0.371c-0.39-0.566-0.98-1.511-0.78-2.096 0.78 0.185 0.58 1.149 0.97 1.725z"/>
		<path id="path1919" fill="#ffe900" d="m279.41 98.718c-0.37 0.751-1.15 1.712-2.1 2.102-0.59 0.19-1.13-0.39-1.33-0.952 0.37-0.77 1.15-1.735 2.11-2.495 0.56 0.185 1.15 0.76 1.32 1.345z"/>
		<path id="path1921" fill="#ffe900" d="m352.47 100.06c0.19 0.95-0.78 0.95-1.15 1.53-1.17 0.96-1.93-0.39-2.5-1.16 0.18-1.332 1.54-1.527 2.5-1.712 0.74 0 0.94 0.751 1.15 1.342z"/>
		<path id="path1923" fill="#ffe900" d="m220.2 103.31c-0.57-0.2-0.96-0.58-1.15-0.95 0.76-1.35 1.71-2.492 3.06-3.262 0.76 1.722-1.15 3.072-1.91 4.212z"/>
		<path id="path1925" fill="#ffe900" d="m338.65 104.08c-1.73 0.38-3.64 0.18-4.58-0.97 0.37-1.13 0.17-2.86 1.33-3.447l3.05 0.767 0.2 3.65z"/>
		<path id="path1927" fill="#ffe900" d="m345.94 101.78c0.57 1.92-1.15 1.92-2.3 2.48-1.72 0-0.57-2.09-0.95-3.06 0.58-0.57 3.42-1.332 3.25 0.58z"/>
		<path id="path1929" fill="#ffe900" d="m404.59 102.73c-0.58 0.38-1.13 0.97-1.93 0.77-0.37-0.58-1.32-1.33-0.56-2.11 1.15-1.33 4.23-0.19 2.49 1.34z"/>
		<path id="path1931" fill="#1b1c20" d="m368.36 103.7c1.54 1.51 0.19 3.83-0.38 5.56-0.95 1.33-2.47 1.52-4.01 1.92-1.54-0.2-2.9-0.78-4.03-1.73-1.53-1.35-1.16-3.26-0.76-5.19 0.58-1.53 2.1-2.48 3.62-3.06 2.11 0 4.6 0.19 5.56 2.5z"/>
		<path id="path1933" fill="#ffe900" d="m252.2 103.11c-0.39 0.59-0.39 1.35-1.17 1.54-0.93-0.39-2.08-0.39-2.47-1.54 0.17-0.56 0.56-1.52 1.15-1.72 1.32-0.19 1.73 0.97 2.49 1.72z"/>
		<path id="path1935" fill="#1b1c20" d="m236.49 104.84c0 1.35 0.74 3.46-0.58 4.81-1.15 1.33-2.67 1.9-4.41 2.11-1.73-0.39-4.03-1.55-4.79-3.46-0.57-1.92 0.39-3.28 0.95-4.8 1.17-0.95 2.69-1.72 4.23-2.11 1.93 0.39 3.82 1.53 4.6 3.45z"/>
		<path id="path1937" fill="#ffe900" d="m384.28 102.36c-0.39 0.56 0.2 1.9-0.97 1.9-0.76-0.18-1.54-0.38-1.91-1.15-0.38-1.91 2.49-2.29 2.88-0.75z"/>
		<path id="path1939" fill="#ffe900" d="m274.25 103.11c-0.59 0.97-1.56 1.35-2.48 1.54l-0.97-1.34c0.56-1.33 3.08-2.49 3.45-0.2z"/>
		<path id="path1941" fill="#1b1c20" d="m309.72 108.3c1.72 2.29 5.36 3.25 5.17 6.5-3.65 3.45-7.66 7.69-11.52 10.92l-1.33-0.56-10.54-10.74 0.58-1.35 10.92-10.71c2.69 1.52 4.01 4.21 6.72 5.94z"/>
		<path id="path1943" fill="#ffe900" d="m399.04 104.08c0.39 1.53-1.72 0.94-2.3 1.7-1.35 0.22-1.15-1.13-1.15-1.9 0-1.15 1.15-0.77 1.73-1.33 0.96-0.19 1.54 0.76 1.72 1.53z"/>
		<path id="path1945" fill="#ffe900" d="m457.12 105.02c0.39 1.36-0.76 2.12-1.15 3.08-1.91 0.57-3.06-1.72-4.03-2.89 0-1.13 1.34-1.51 1.73-2.48 1.35 0.38 2.3 1.35 3.45 2.29z"/>
		<path id="path1947" fill="#ffe900" d="m391.57 103.7v2.3c-1.34 0-3.64 0.94-4.03-0.79 0.19-0.75-0.39-1.9 0.58-2.48 0.96 0.58 2.65-0.37 3.45 0.97z"/>
		<path id="path1949" fill="#ffe900" d="m200.06 105.21c-0.37 1.17 0 2.89-1.34 3.46-1.33-0.37-2.69-0.96-3.45-2.29-0.37-1.54 1.34-1.92 2.12-3.07 1.13 0 2.11 1.15 2.67 1.9z"/>
		<path id="path1951" fill="#ffe900" d="m481.86 104.08c-0.96 0.94-1.76 2.49-3.1 2.11l-0.37-0.41c0.37-1.32 2.12-1.32 2.88-2.47 0.2 0.19 0.59 0.39 0.59 0.77z"/>
		<path id="path1953" fill="#ffe900" d="m216.36 104.84c0.17 2.1-2.5 2.1-3.82 2.87-0.78-0.57-1.37-1.52-1.17-2.5 1.73 0.2 3.45-3.23 4.99-0.37z"/>
		<path id="path1955" fill="#ffe900" d="m259.1 104.84v1.92c-1.32 0.38-3.08 0.18-4.4-0.57-0.2-0.78 0.19-1.54 0.76-2.31 1.17 0.38 2.69 0.38 3.64 0.96z"/>
		<path id="path1957" fill="#ffe900" d="m268.13 105.21c0.17 1.93-2.32 1.17-3.47 1.73-0.57-0.18-1.54 0-1.54-0.75-0.37-1.54 0.78-1.54 1.54-1.93 1.15 0.2 3.06-0.76 3.47 0.95z"/>
		<path id="path1959" fill="#ffe900" d="m365.88 106.19c-0.37 0.75-0.97 1.91-1.91 1.91-0.97 0.2-1.74-0.96-1.93-1.72 0-0.77 0.19-2.12 1.35-2.12 0.95 0.2 2.68 0.39 2.49 1.93z"/>
		<path id="path1961" fill="#ffe900" d="m233.63 106.19c0.56 1.52-0.61 2.11-1.56 2.48-1.13 0-1.52-0.96-2.11-1.73-0.19-1.16 0.59-1.92 1.54-2.1 0.96-0.19 1.74 0.77 2.13 1.35z"/>
		<path id="path1963" fill="#ffe900" d="m207.94 105.78c-0.2 1.36 1.52 3.87-0.98 3.87-1.34-0.2-3.06 0.56-4.01-0.8-0.39-1.32 0.37-2.47 0.95-3.44l4.04 0.37z"/>
		<path id="path1965" fill="#1b1c20" d="m437.01 118.64c0 1.92-2.32 2.33-3.47 3.44l-9.96 6.91c-4.04-3.83-6.71-9.02-10.16-13.41 2.3-2.11 4.97-4.4 7.66-5.93l6.12-4.24 0.98 0.2 8.83 13.03z"/>
		<path id="path1967" fill="#ffe900" d="m464.22 107.91c-0.76 0.94 0.37 3.07-1.54 3.07-0.96-0.97-3.26 0.2-2.87-1.92 0.37-0.76 0.57-1.73 1.35-2.3 0.93 0.38 2.3 0.18 3.06 1.15z"/>
		<path id="path1969" fill="#ffe900" d="m475.52 108.1c0.2 0.96-0.58 1.35-1.34 1.55-1.15 0-0.37-1.35-1.15-1.74 0.19-1.15 2.49-1.53 2.49 0.19z"/>
		<path id="path1971" fill="#ffe900" d="m96.17 109.26c-0.585 0.57-0.955-0.59-0.955-0.96l0.176-0.97c0.194 0.58 0.779 1.14 0.779 1.93z"/>
		<path id="path1973" fill="#ffe900" d="m152.15 107.71c-0.19 0.96-0.19 1.94-1.17 2.5-0.37 0-0.95-0.2-0.76-0.56 0.2-0.59 1.35-2.12 1.93-1.94z"/>
		<path id="path1975" fill="#ffe900" d="m470.14 109.45c0.39 1.53-1.32 0.76-2.1 1.33h-0.76c0.19-0.95-0.39-2.48 0.39-3.07 1.15 0 2.86 0.2 2.47 1.74z"/>
		<path id="path1977" fill="#e51819" d="m309.33 114.23c-1.54 2.12-3.64 3.83-5.75 5.74-2.12-0.93-4.05-2.84-5.36-4.97l-0.99-0.4 0.21-1.13 5.56-5.37c2.32 1.73 4.79 3.45 6.33 6.13z"/>
		<path id="path1979" fill="#ffe900" d="m506.2 110.78c-1.17 0.2-0.97-1.13-1.17-1.93v-0.55c0.78 0.55 1.91 1.53 1.17 2.48z"/>
		<path id="path1981" fill="#ffe900" d="m120.91 112.31c-0.39 0.59-1.17 0.2-1.17-0.18l-1.35-3.07c1.17 0.59 2.3 1.92 2.52 3.25z"/>
		<path id="path1983" fill="#1b1c20" d="m170.94 111.55c4 3.25 8.23 6.51 11.87 9.58-2.88 4.59-6.14 8.63-9.76 12.65h-1.74l-11.3-8.81c-0.39-0.58-0.59-1.53-0.39-2.3 3.25-4.22 6.51-7.67 9.76-11.49l1.56 0.37z"/>
		<path id="path1985" fill="#e51819" d="m428.18 113.47c0.56 2.11 4.4 4.02 2.49 5.94-2.49 0.76-4.05 3.26-6.33 3.46-1.52-2.12-3.45-4.03-4.6-6.73l0.58-0.94c2.5-0.4 5.75-7.29 7.86-1.73z"/>
		<path id="path1987" fill="#ffe900" d="m147.36 112.69c-0.37 1.73-2.5 1.91-3.67 2.89-1.32 0.38-1.13-0.98-1.71-1.54 0.58-1.53 2.88-1.35 4.23-2.49 1.15-0.57 0.78 0.76 1.15 1.14z"/>
		<path id="path1989" fill="#1b1c20" d="m337.52 113.07c0.93 0.79 0.37 2.32 0.37 3.28-5.56 0.38-11.5 0.57-16.88-0.21-1.35-0.94 0.19-2.1-0.18-3.07l0.96-0.38c5.36 0 10.54 0.21 15.73 0.38z"/>
		<path id="path1991" fill="#ffe900" d="m96.95 114.04c-0.409 0.96 0 2.49-1.365 3.09-0.759-0.4-1.52-0.78-2.085-1.55 0.76-0.98 0.956-2.3 1.715-2.89 0.546 0.38 1.735 0.38 1.735 1.35z"/>
		<path id="path1993" fill="#ffe900" d="m129.13 116.14c-1.54 0.78-3.25 0.21-4.6-0.56-0.95-0.58-0.58-1.92-0.37-2.68 1.72 1.14 5.75 0.17 4.97 3.24z"/>
		<path id="path1995" fill="#1b1c20" d="m276.18 114.23c0.17 4.41-5.38 1.54-7.29 2.69l-9.59 0.21c-0.96-0.6-0.96-2.13-0.57-3.09 4.58-1.53 9.2-0.18 13.8-1.14 1.35 0 3.45-0.39 3.65 1.33z"/>
		<path id="path1997" fill="#1b1c20" d="m356.31 116.53c0.17 2.11-0.21 4.6-2.32 5.55l-2.87 0.98c-1.94-0.57-3.64-1.17-4.61-3.26-0.94-1.16 0.21-2.67 0.21-4.03 0.93-1.91 3.04-3.08 5.54-2.7 1.73 0.59 3.45 1.53 4.05 3.46z"/>
		<path id="path1999" fill="#ffe900" d="m511.56 114.23c0.2 0.37 0.2 0.97-0.37 1.35-0.97 0.38-1.73-0.58-2.51-0.98v-1.53c1.34-0.56 1.73 1.16 2.88 1.16z"/>
		<path id="path2001" fill="#1b1c20" d="m247.21 114.6c0.96 1.36 2.89 3.07 1.52 4.99-0.37 1.92-1.91 2.49-3.04 3.47-2.12 0.57-4.21-0.19-5.75-1.55-1.17-1.54-1.17-4.02-0.41-5.55 0.8-1.54 2.32-2.1 3.86-2.68 1.33 0 2.67 0.58 3.82 1.32z"/>
		<path id="path2003" fill="#1b1c20" d="m494.14 117.13c0.37 2.09-0.22 3.84-1.74 5.36-1.34 0.95-3.08 1.7-4.79 0.95-1.54-0.57-2.89-1.93-3.67-3.47-0.56-2.66 0.78-4.77 2.89-5.74 1.32-0.76 2.88-0.57 4.42-0.19 0.94 0.56 2.28 1.73 2.89 3.09z"/>
		<path id="path2005" fill="#ffe900" d="m138.14 114.6c0.39 1.75-0.18 2.53-1.72 2.71-1.34-0.18-3.25 0.75-3.64-0.78 0-0.95-0.39-2.49 1.17-2.3 1.52 0.57 3.45-1.33 4.19 0.37z"/>
		<path id="path2007" fill="#1b1c20" d="m378.73 117.13c1.13 1.32 0.38 3.43-0.39 4.76-0.96 1.55-2.68 1.92-4.41 2.3-1.15-0.38-2.49-0.38-3.45-1.52-0.96-1.54-1.73-3.08-1.34-5 0.95-1.71 2.47-3.25 4.42-3.44 2.28-0.37 4.19 1.16 5.17 2.9z"/>
		<path id="path2009" fill="#ffe900" d="m539.36 114.6c-0.39 0.79-0.76 1.93-1.72 2.32-1.73-1.15 1.15-1.72 1.72-2.32z"/>
		<path id="path2011" fill="#ffe900" d="m60.325 119.41l-1.345 0.95c-0.955-1.52-1.54-3.44-0.955-5.56 1.52 1.16 2.689 2.69 2.3 4.61z"/>
		<path id="path2013" fill="#1b1c20" d="m225.56 116.92c1.15 1.53 0.95 3.64 0.39 5.16-1.17 1.55-2.69 2.5-4.41 2.89-1.34-0.58-2.9-0.78-3.86-1.72-1.52-1.53-1.15-2.89-1.15-5 0.39-1.52 2.11-2.48 3.28-3.25 2.3-0.2 4.4 0 5.75 1.92z"/>
		<path id="path2015" fill="#1b1c20" d="m403.64 116.53c0.95 0.78 0.37 2.11 0.37 2.88-2.09 0.95-5.34 0.39-7.84 0.39l-9.02-0.76c-0.76-0.59-0.76-1.73-0.57-2.69 0.18-0.58 0.96-0.39 1.35-0.77 5.53-0.19 10.74 0.56 15.71 0.95z"/>
		<path id="path2017" fill="#1b1c20" d="m113.23 119.59c0.58 1.38 0 3.08-0.59 4.42-0.95 1.71-2.86 1.92-4.6 2.5-1.91-0.19-3.82-1.35-4.6-3.26-0.95-1.74 0-3.66 0.78-5.19 0.96-1.14 2.48-1.71 3.82-1.92 2.32 0 4.06 1.53 5.19 3.45z"/>
		<path id="path2019" fill="#1b1c20" d="m207.53 117.88c0 0.76 0.21 1.71-0.57 2.09-5.16 0.59-10.52 1-15.34 1.37-1.54 0-0.95-1.54-1.54-2.7 0.78-2.11 3.65-0.39 4.99-1.51 3.06 0.18 6.14-0.6 9.01-0.99 1.15 0.21 3.86-0.56 3.45 1.74z"/>
		<path id="path2021" fill="#ffe900" d="m353.23 117.88c-0.2 0.96-0.76 1.92-1.91 1.92-1.17 0.17-1.74-0.76-1.93-1.74 0.37-0.75 0.37-1.92 1.56-1.92 1.31-0.37 2.08 0.78 2.28 1.74z"/>
		<path id="path2023" fill="#ffe900" d="m518.66 117.67c0 1.55-1.35 1.37-2.3 0.97-0.57-0.58-1.52-0.76-1.52-1.72 0.74-1.34 2.86-0.19 3.82 0.75z"/>
		<path id="path2025" fill="#ffe900" d="m245.87 118.06c-0.18 0.98-0.78 2.3-1.89 1.91-0.98 0.2-1.93-0.38-1.76-1.33 0-0.76 0.2-1.91 1.17-2.11 1.33-0.18 1.91 0.78 2.48 1.53z"/>
		<path id="path2027" fill="#e51819" d="m172.85 118.06c1.33 1.35 3.26 2.11 4.41 3.83-0.39 1.55-2.67 2.5-2.67 3.65-0.78 1.16-1.74 2.11-2.71 2.89-2.67-1.36-4.8-3.27-6.9-5.18 0.97-2.5 3.66-4.41 5.18-6.72 1.35-0.39 1.72 1.35 2.69 1.53z"/>
		<path id="path2029" fill="#ffe900" d="m490.86 117.88c0.39 1.16-0.39 2.29-1.54 2.48-1.17-0.19-2.49-0.77-2.1-2.11 0-0.76 0.76-1.12 1.34-1.52 0.96 0 1.74 0.4 2.3 1.15z"/>
		<path id="path2031" fill="#ffe900" d="m376.02 118.64c0.19 1.16-0.75 1.72-1.52 2.11-0.94 0.38-1.91-0.19-2.13-0.95-0.37-1.35 0.41-2.49 1.56-2.67 0.97-0.21 1.52 0.93 2.09 1.51z"/>
		<path id="path2033" fill="#ffe900" d="m533.61 118.64c0.19 1.16-1.13 0.77-1.91 1.33-0.61 0.2-1.15-0.38-1.54-0.93 0-1.37 2.1-0.98 3.08-1.55l0.37 1.15z"/>
		<path id="path2035" fill="#ffe900" d="m223.45 119.22c0 1.14-0.58 2.12-1.54 2.5-0.95 0.36-1.91-0.38-2.1-1.16-0.18-0.97 0-1.92 0.95-2.5 0.78 0 2.3 0 2.69 1.16z"/>
		<path id="path2037" fill="#1b1c20" d="m276.35 119.04c0.2 0.93 0.2 1.93-0.37 2.68-5.94-0.21-10.93 1.15-16.88 0.36-0.56-0.95-0.37-1.91 0-2.86 3.82-1.55 9.59-0.18 13.78-1.16 1.37 0 2.91-0.18 3.47 0.98z"/>
		<path id="path2039" fill="#1b1c20" d="m337.69 118.64c0.39 0.77 0.57 2.11-0.17 2.87-5.19 0.21-11.5 0.57-16.69-0.38-0.58-0.57-0.39-1.91 0-2.68l0.37-0.39c5.58 0 11.5-0.39 16.49 0.58z"/>
		<path id="path2041" fill="#ffe900" d="m93.09 119.97c0.196 1.16-0.955 1.37-1.519 2.11-1.54 0-1.151-1.72-2.106-2.11-0.389-0.93 0.39-1.52 1.151-1.91 0.955 0.39 2.104 0.98 2.474 1.91z"/>
		<path id="path2043" fill="#ffe900" d="m526.69 120.17c-1.33 0-3.24 0.8-3.82-0.58 0-0.37-0.37-0.95 0.39-1.34 0.95 0.79 4.03-0.58 3.43 1.92z"/>
		<path id="path2045" fill="#ffe900" d="m110.36 121.13c-0.21 0.76-0.78 1.74-1.73 2.12-1.35 0.19-1.93-1.17-2.3-1.91 0.19-0.78 0.56-1.54 1.34-1.75 1.13-0.18 2.3 0.21 2.69 1.54z"/>
		<path id="path2047" fill="#1b1c20" d="m460.75 122.67c0.97 0.77 0.41 2.12 0 2.87-6.12 0.39-11.48-0.96-16.84-2.48 0.37-0.98-0.59-2.7 0.93-3.09 5.38 0.59 10.74 1.54 15.91 2.7z"/>
		<path id="path2049" fill="#ffe900" d="m66.27 122.49c-0.78 1.14-0.37 4.21-2.885 2.86-1.15-0.56-2.086-1.72-1.15-2.86l1.345-1.93c1.13 0.19 2.69 0.57 2.69 1.93z"/>
		<path id="path2051" fill="#ffe900" d="m87.73 123.81c-0.37 1.35-1.91 1.35-3.06 1.73-0.585-1.15-1.54-2.29-1.54-3.82 0.955-0.75 3.451-2.31 3.84 0.36l0.76 1.73z"/>
		<path id="path2053" fill="#1b1c20" d="m400.95 121.51c0.97 0.38 2.69-0.17 2.69 1.36l-0.18 2.1c-5.55 0.75-11.52-0.18-16.88-0.96 0.18-0.95-0.78-3.04 0.57-3.26 4.6-0.39 9.2 0.59 13.8 0.76z"/>
		<path id="path2055" fill="#1b1c20" d="m207.94 121.51c0.17 1.16 0.37 2.3-0.2 3.46-5.18 1.14-10.93 1.14-16.29 1.54-1.37-0.97-0.39-2.12-0.39-3.26 3.84-1.36 8.44-1.17 12.84-1.74h4.04z"/>
		<path id="path2057" fill="#ffe900" d="m81.22 126.11c-1.345 0.96-2.514 0.96-3.84 1.16-0.76-1.34-0.935-2.88-0.585-4.4 2.905-2.12 4.23 1.14 4.425 3.24z"/>
		<path id="path2059" fill="#ffe900" d="m73.365 125.54c0 1.34-1.169 2.11-2.495 1.73-0.76-0.39-1.93-0.39-2.514-1.34 0.779-0.96-0.176-3.06 1.559-3.44 1.52 0.76 4.581 0.38 3.45 3.05z"/>
		<path id="path2061" fill="#1b1c20" d="m152.33 125.35c-0.37 1.92-2.67 1.72-4.02 2.1-3.25 0.57-6.53 0.78-9.59 1.54-1.73-0.56-3.45 1.16-4.01-1.34 0-0.95-0.2-2.3 1.15-2.3 1.32-0.56 3.23 0 4.6-0.96 2.86-0.2 6.31-0.58 9.2-1.33 1.71-0.39 2.3 1.13 2.67 2.29z"/>
		<path id="path2063" fill="#1b1c20" d="m479.54 126.88c0.19 1.92 0.56 4.41-0.96 5.75-1.52 1.15-3.84 1.34-5.75 0.76-2.47-0.56-2.69-3.24-3.06-5.37 0.37-2.09 2.5-3.63 4.21-4.21 2.3 0.2 4.78 0.77 5.56 3.07z"/>
		<path id="path2065" fill="#1b1c20" d="m460.18 127.84c0 1.15 0.57 2.88-0.76 3.45-5.75-0.19-10.35-2.3-15.9-2.67-1.54-0.78-0.2-1.92-0.2-2.9 2.11-1.14 4.21-0.18 6.51 0.21 3.45-0.21 6.53 1.91 10.35 1.91z"/>
		<path id="path2067" fill="#1b1c20" d="m125.29 127.45c1.17 1.54 1.76 3.27 1.37 5.18-0.78 1.75-2.5 3.28-4.62 3.46-1.52 0.38-2.69-0.57-4.02-1.17-0.95-1.53-1.54-3.25-1.15-5.16 0.59-1.74 2.11-3.44 3.82-3.65 1.93-0.39 3.26 0.59 4.6 1.34z"/>
		<path id="path2069" fill="#ffe900" d="m476.87 128.43c0.19 0.75-0.2 2.11-1.15 2.29-1.54 0.2-2.69-0.38-2.89-1.73 0-0.97 1.15-1.54 2.11-2.11 0.97-0.18 1.54 0.96 1.93 1.55z"/>
		<path id="path2071" fill="#1b1c20" d="m502.54 129.76c0.78 1.53 0.97 3.63 0.58 5.55-0.95 1.92-3.04 2.3-4.97 2.69-1.73-0.18-3.45-0.95-4.23-2.69-1.52-1.92-0.19-3.64 0.39-5.36 1.15-1.33 2.5-1.72 3.84-2.11 1.72-0.19 3.04 0.96 4.39 1.92z"/>
		<path id="path2073" fill="#1b1c20" d="m152.72 129.18c0.17 1.36 0 3.27-1.91 3.08-4.8 0.57-9.79 1.71-14.58 1.52-0.57-0.57-0.76-1.72-0.37-2.49 1.71-2.11 4.4-0.57 6.51-1.53l6.7-0.77c0.96-0.76 3.08-1.15 3.65 0.19z"/>
		<path id="path2075" fill="#ffe900" d="m123.58 130.34c0.19 1.33-0.39 2.68-1.54 2.68-1.13 0.37-1.72-0.57-2.3-1.16-0.18-1.32 0.58-1.71 1.34-2.48 0.96 0 1.93 0.16 2.5 0.96z"/>
		<path id="path2077" fill="#1b1c20" d="m103.27 132.45c1.15 1.52 1.52 3.26 1.15 4.97-0.37 1.15-0.98 2.32-2.13 2.89-1.15-0.79-0.74 0.76-1.91 0.56-2.494 0.77-4.405-0.95-5.36-2.87-0.564-1.72-0.39-3.84 0.741-5.37 2.32-1.53 5.209-1.91 7.509-0.18z"/>
		<path id="path2079" fill="#ffe900" d="m500.63 132.83c-0.55 0.77-0.94 1.92-1.91 2.09-1.15-0.17-2.11-0.95-2.3-2.09-0.2-0.97 0.76-0.97 1.34-1.35 1.54-0.38 2.32 0.38 2.87 1.35z"/>
		<path id="path2081" fill="#1b1c20" d="m529.01 132.83c3.25 0.95 7.07 0.95 9.59 2.88l-0.78 2.67c-3.82-0.77-8.25-1.53-11.89-2.1-1.35-1.53-4.97 0.38-4.78-2.68 0.96-4.06 5.17-0.58 7.86-0.77z"/>
		<path id="path2083" fill="#ffe900" d="m330.23 133.02c12.06 0.76 22.61 0.37 34.5 0.76 5.54-0.18 10.72 1.14 16.29 0.97 8.45 0.77 17.84 0.77 26.83 1.53l0.97 0.38c6.9 0.57 13.78 0.39 20.12 1.72 8.44 0 16.1 1.93 24.17 2.3 34.3 4.03 69.76 9.4 103.69 16.31 0.76 0.93 2.5 0 3.43 0.75 3.67 0.58 7.29 1.53 10.76 2.87 0.96 1.34 1.52 2.69 1.13 4.22-1.32 2.68-4.01 3.46-6.88 3.08-26.84-6.14-55.78-10.92-83.58-14.57-13.04-1.55-26.08-3.46-39.29-4.79-12.26-1.35-24.74-2.5-36.82-3.25-7.64-0.39-14.95-1.18-22.61-1.55-13.22-0.77-26.84-0.95-39.87-1.54-19.37-0.57-39.7-0.37-59.25-0.18-5.93 0.77-10.31 0-16.28 0.77-9.39-0.21-18.59 0.37-27.6 0.95-2.32 0.96-5.18 0.2-7.48 0.77-8.25 0.78-16.49 0.39-24.52 1.92-26.47 1.72-51.77 4.97-77.46 8.63-2.69 1.14-5.95 0.56-8.44 1.54l-5.36 0.56c-3.82 1.35-8.42 0.75-12.07 2.3-13.605 1.91-27.23 4.61-41.03 7.28-2.866 1.33-5.555 0.76-8.44 1.92-5.945 0.96-11.89 2.29-17.815 3.64-1.54 0-3.276-0.57-3.84-1.91-1.151-0.97-0.566-2.49-0.195-3.45 2.105-3.84 6.724-2.67 9.96-4.23 23.956-5.18 47.911-9.96 71.91-13.78 6.31-0.6 12.43-1.92 18.38-2.71 22.43-3.43 45.43-6.71 67.67-7.85 9.96-1.33 19.94-2.29 30.1-2.86 4.6 0.39 9.96-0.97 14.56-0.6 2.69-0.54 5.94 0.39 8.42-0.76 25.9-0.95 49.68-1.53 75.94-1.14z"/>
		<path id="path2085" fill="#ffe900" d="m101.34 135.52c0.41 1.14-0.37 1.9-1.15 2.3-1.135 0.18-2.109-0.21-2.499-1.35-0.585-1.34 0.779-1.72 1.54-2.31 0.959 0 1.739 0.59 2.109 1.36z"/>
		<path id="path2087" fill="#e51819" d="m567.15 140.31c-1.54 2.49-3.84 4.21-5.94 6.13-2.11-1.92-4.21-3.08-5.97-5.57 0.2-2.3 3.28-4.02 4.99-5.95 2.89 0.39 4.82 3.46 6.92 5.39z"/>
		<path id="path2089" fill="#1b1c20" d="m82.741 137.05c-0.196 0.95 0 1.93-0.761 2.47-5.535 0.4-10.545 3.28-16.08 2.32-0.585-0.97-0.585-1.73-0.41-2.86 5.185-1.75 10.955-2.32 16.296-3.07l0.955 1.14z"/>
		<path id="path2091" fill="#1b1c20" d="m537.08 140.31c0.37 0.76 0.37 1.9-0.22 2.67-3.25 0.38-6.7-0.39-9.78-1.52-2.3-0.39-4.58-0.78-6.71-1.35-0.19-0.96-0.39-2.29 0.39-3.06 4.97-0.2 9.96 1.93 14.95 2.47l1.37 0.79z"/>
		<path id="path2093" fill="#e51819" d="m46.915 144.71c-1.736 2.1-4.036 4.23-6.16 5.93l-0.955-0.18-4.99-5.16c0.779-2.5 3.664-4.43 5.77-6.54 2.105 1.55 4.97 3.45 6.335 5.95z"/>
		<path id="path2095" fill="#1b1c20" d="m83.5 141.84c0 1.33 0.585 2.87-1.129 3.07-4.991 0.76-10.175 1.9-15.165 2.29-0.176-0.97-1.306-1.72-0.761-3.08 3.665-1.53 8.051-1.71 11.89-2.66 1.735 0.18 4.036-1.54 5.165 0.38z"/>
		<path id="path2097" fill="#e51819" d="m321.59 147.2c7.66 1.14 16.49-0.18 24.35 0.39 10.91 0.39 20.7 0.75 31.25 1.35 7.67 0 13.41 1.14 20.89 1.33 9.01 0.37 17.84 1.52 26.84 2.3 23.96 1.54 48.11 5.17 71.89 8.42 3.06 0.59 5.92 1.36 9.18 1.55 16.51 2.69 32.61 5.54 48.88 8.81l-0.56 0.39 1.13 0.57c0.41 7.1-0.76 14.19 0.41 21.09l-0.2 0.38c0.57 11.7-0.21 24.73 0.2 36.81l0.37 0.96c0 10.73-0.2 22.21-0.37 32.97l0.37 0.75c-0.2 13.42 0.78 27.79-0.37 41.03 1.71 0.37-0.2 1.35 0.76 2.09v38.92c0.76 0.39 0.39 0.97 0.19 1.73 0 24.15 0.96 49.65 0.37 73.58-0.56 0.41 0.59 0.98 0.2 1.54 0.39 14.78-0.37 28.19 0.39 42.75-0.76 4.6 0.19 11.54-0.96 16.3 0 10.93-1.56 20.89-3.64 31.65-0.78 5.93-2.71 11.85-4.23 17.23-0.18-0.39-0.59 0.2-0.76 0.2 0 0.58 0.76 0.19 0.76 0.37 0.21 1.93-1.33 3.84-1.15 5.38-0.57 1.15-1.13 2.49-1.13 3.64-1.93 5.93-3.84 12.26-6.34 17.43-9.22-5.17-17.81-13.61-25.88-19.14-4.02-3.3-6.51-6.36-10.53-9.4-0.39-0.97-1.91-1.75-2.3-2.49-1.91-2.11-5.38-5.19-8.44-7.88-1.73-1.52-2.3-2.88-4.6-4.4-5.96-5.54-11.89-11.89-17.05-17.06v-0.19c-0.39 0-1.37-1.15-0.98-1.93-2.67-1.13-3.64-2.67-5.94-4.95-2.5-3.28-5.36-5.75-8.05-8.46h0.19c-2.1-1.9-4.21-5.17-7.27-7.84-1.73-1.93-3.08-3.86-4.23-5.77-1.91-0.19-2.1-2.49-4.23-3.43-1.52-1.95-1.52-3.28-3.99-4.99 0.17-1.72-2.13-1.36-1.93-2.89-0.96-0.74-2.5-1.91-2.67-3.25-1.74-0.2-0.98-2.28-2.3-2.28-0.98-1.95-2.69-3.28-3.49-5.01-0.74-1.15-2.48-2.5-2.87-3.61l-3.82-5.2h0.2c-2.5-2.28-4.8-5.56-6.34-8.83-6.51-8.03-10.15-13.98-15.51-21.44l0.39-1c-1.56-0.37-1.74-1.3-1.93-1.69-4.21-5.58-8.62-13.04-12.07-18.6-0.95-2.49-3.08-4.23-4.03-7.09-1.91-1.72-2.3-5.17-4.21-6.9-1.33-3.08-3.45-6.32-4.99-9.22-1.72-3.82-4.04-7.47-5.56-11.87-2.88-4.6-3.65-7.1-5.94-11.88-4.8-10.34-9.79-20.91-14-32.77-1.54-0.98-1.36-2.69-1.91-3.83-2.5-4.8-3.26-10.37-5.58-14.77 0-1.16-1.73-3.07-1.53-4.4-1.72-3.65-2.48-8.63-4.41-11.7-4.21-12.65-8.03-26.07-12.07-39.3-0.39-2.48-0.95-4.04-1.34-6.51-0.96-0.76 0.19-2.31-0.96-2.69-1.32-6.51-2.67-13.04-4.03-20.5-0.94-4.42-1.13-7.86-2.3-12.66l0.58-0.2c-1.91-3.05-1.32-7.08-2.1-10.92-1.74-9.59-2.69-19.56-4.23-29.9l0.19-2.49 4.39-0.58c3.66-0.18 7.31 0.58 10.95 0z"/>
		<path id="path2099" fill="#fff" d="m301.07 148.16c0.19 24.73-3.45 45.81-7.47 69.01-2.1 6.33-2.1 13.61-4.79 19.93-3.82 14.01-7.25 27.61-13.02 40.84l-1 0.37c-21.44 0.97-45.02-0.2-65.92 0.78l-12.26-0.2-0.78-2.87c0.41-22.82-0.76-42.76-0.56-66.13 0-18.41-0.76-37.77-0.37-56.93 7.29-1.55 15.14-1.91 22.78-2.32 4.8 0 9.42-0.95 14.39-0.76l0.95-0.36c12.48 0.17 23.39-1.93 35.87-1.36 10.52-1.35 20.68-0.57 31.61-0.75l0.57 0.75z"/>
		<path id="path2101" fill="#e51819" d="m189.52 154.48c0.95 9.98-0.2 20.13 0.78 29.34-0.22 8.04 0 18.97-0.22 27.02-0.95 0.77 0.39 1.16 0 2.11 0.78 18.4 0.59 36.41 0.78 55.4l-0.39 0.38 0.59 0.37v13.83l0.95 0.75c27.23 0.76 53.86-1.16 80.52 0 0.35 1.91-0.95 4.6-1.93 6.32-1.34 4.61-4.01 9.02-5.38 13.62-4.75 11.12-9.94 23.19-14.95 32.95-0.17 1.93-0.93 2.32-1.91 4.25l-1.91 1.31c-13.04 0.2-26.45-0.55-38.92 0.59-4.97-0.19-10.92-0.19-15.91 0l-0.56 0.94c-0.39 21.68 0.76 41.03 0.19 62.32l-0.39 0.39 0.59 0.37c0 10.74 0 20.91-0.39 30.27-6.53 8.65-11.7 16.49-18.6 24.95-2.86 3.24-5.18 6.67-8.61 9.55 0 1.56-1.93 1.93-2.32 3.08-7.08 7.29-13.02 15.53-20.7 23.57-1.91 1.73-3.65 3.06-4.97 5.38l-4.62 4.21c-0.37-11.13-1.13-19.36-0.37-29.3-0.39-2.34-0.39-4.6-0.22-7.13 0-5.74-0.17-11.86 0.22-17.04 0 0.18 0.19 0.18 0.37 0.18l0.19-0.18-0.78-0.39c-0.17-6.9-0.54-13.41-0.17-20.7 0.17-8.64 0.17-17.84-0.37-26.08 0-3.63 0.17-7.29 0.17-11.11-0.56-8.4 0.37-17.43-0.78-27.02-0.19-4.6 0-7.29 0.41-11.91-0.6-4.94 0.2-8.21-0.78-13.04l-1.13-0.74-57.13 0.19c-1.93 0.18-4.425 0.78-5.964 0.18-4.386 0-10.331 0.37-14.561-0.37-0.565-3.07 0.585-7.85-0.565-11.29-0.196-11.13 0.176-24.16 0-35.11-0.196-3.83-0.37-7.46-0.196-11.49l1.151-0.75h74.385c1.15-0.78 3.45 0.58 3.82-1.55-0.2-8.62 0.19-16.28 0-25.09-0.94-1.54-0.2-3.06-0.37-4.81-0.2-3.45 0.37-9.02 0-12.65 0.17-2.49 0-5.37 0-7.67 0.56-1.71 0-3.83 0-6.31-0.2-16.11 0.37-32.6 0.17-48.88-0.74-4.43-0.37-10.94-0.17-15.74 1.71-1.72 4.4-1.13 6.9-1.51 12.45-2.32 27.79-4.43 41.4-5.96 4.21-0.19 7.66-1.34 12.26-0.96l0.39 0.96z"/>
		<path id="path2103" fill="#fff" d="m123.19 162.16c0.58 10.33 0.21 21.66 0.39 31.42l0.19 69.4v15.71l-0.95 0.78h-33.744c-0.975 0.95-2.495-0.78-3.47 0.56-0.741-0.94-1.325 0.39-2.106 0l-33.72-0.17-0.585-0.58c-0.566-9.2 0.585-19.18-0.566-28.57 1.327-1.52-0.565-2.88 0-4.6 0.196-13.78 0.566-31.25-0.194-45.05l0.194-25.3c21.657-4.98 43.136-9.21 65.551-12.46l0.78-0.38c2.69 0 5.36-1.34 8.23-0.76z"/>
		<path id="path2105" fill="#fff" d="m563.31 173.26c-0.39 29.16 0.39 55.41 0.39 84.92v46.19c0.94 1.19-0.39 2.3 0.57 3.47-0.96 32.18 0.37 62.27 0.37 93.69 0.19 17.66 0 37.02 0.19 54.47 0.78 2.1 0.59 4.79 0.22 6.89 0.76 10.96-0.78 19.36-0.98 30.3-0.56 5.75-1.71 11.3-2.3 17.07-1.54 6.32-1.91 11.46-3.82 17.82-15.34 68.02-61.53 130.16-124.41 165.21-33.16 18.77-69.2 30.31-108.32 33.72-4.78 0.6-9.94 0.6-14.93 1.19-10.76 0.56-19.92-0.41-30.49-0.96-3.08-0.42-6.72-0.78-10.15-1.16-1.72-0.4-3.65-0.4-5.17-0.98-46.21-6.69-88.74-25.28-125.17-54.05-41.424-32.96-70.954-78.77-85.886-127.26-4.405-15.52-8.245-32.2-9.2-48.5l-0.39-0.97-0.37-9.94c-1.734-16.88-0.214-32.4-0.585-48.71l-0.565-2.85c0.176-39.3 0-75.93-0.37-114.06l-0.214-19.74c-0.391-12.85 0-26.07-0.195-39.48l-0.39-0.76c0.585-26.45-0.761-54.07 0.194-81.47 0.605-0.41 1.346-0.59 2.125-0.41l0.566 0.79c0.194 12.06-0.39 25.1 0.194 36.98l-0.194 43.34 0.37 1.53c-0.37 31.24 0.779 58.07 0.585 89.11-0.585 27.82 0.955 53.47 0.194 80.33l0.566 1.32-0.195 48.89 0.584 3.64c0.196 6.32 0.781 12.27 1.151 18.97l0.389 0.76c3.256 31.46 13.801 61.15 28.186 88.59 17.036 32.16 42.75 61.91 73.21 84.13 4.6 3.08 9.4 7.29 14.39 9.59 4.4 3.27 9.2 5.38 13.6 8.42 14 7.68 28.56 13.82 43.51 18.98 23.41 7.29 48.69 13.04 74.01 13.04l2.86 0.57c4.78-0.2 10.16 0.2 14.95-0.57 8.81-0.39 17.64-0.39 25.87-2.31 27.04-2.87 52.34-11.49 76.68-22.42 48.69-23.2 94.52-64.99 118.86-113.85 15.13-29.34 24.35-60.95 27.8-94.13 0.37-2.1-0.57-4.79 0.76-6.33l0.19-8.81c0.37-8.99 0.37-18.58 0-27.78v-31.25c-0.58-0.95-0.78-2.47-0.39-3.66-0.19-31.05 0-61.53-0.56-92.56 0-7.29 0.37-15.91-0.39-22.81v-36.25l-0.39-1.14 0.21-32.96-0.39-0.96c0.18-14.56 0.18-31.43-0.19-46.2v-8.81c0.76-1.34 1.91-0.38 2.86 0.18z"/>
		<path id="path2107" fill="#1b1c20" d="m510.78 213.53c19.38 13.23 32.79 34.89 37.97 55.78 1.13 5.17 1.93 9.97 2.28 15.92 1.17 2.66 0 3.45 0.59 6.29-0.2 2.13 0 4.83-0.76 6.74 0 1.72 0.56 3.83-0.41 5.18 0.23 2.48-0.94 5.56-1.31 8.41-2.1 10.93-6.33 19.94-11.91 29.52 0.22 0.58-0.74 1.35-1.15 1.92-21.46 33.18-59.41 50.23-100.03 43.9-23.39-4.04-46.58-17.27-60.95-36.42-6.16-7.85-11.71-17.24-14.41-27.04-1.51-1.9-1.51-4.59-2.47-7.08-1.17-5.74-2.69-10.73-2.89-16.67 0.59-4.23-1.34-7.47 0.2-12.47-0.39-4.02 0.57-7.65 1.15-11.69 0.76-4.4 2.5-9.58 3.45-14.2l-0.37-0.55c1.31-1.16 1.89-3.28 2.67-4.99 6.9-16.29 19.34-33.16 35.26-43.33 14.39-10.71 32.42-15.52 50.43-17.25 23.95-1.15 44.28 5.37 62.66 18.03z"/>
		<path id="path2109" fill="#fff" d="m487.22 206.42c25.49 9.03 47.34 32.59 54.83 58.48 1.32 5.38 3.06 10.14 3.45 15.72 1.15 7.08 0.76 14.94 0.17 22.02-1.54 3.47-0.76 7.88-2.3 11.13-5.92 22.04-19.55 42.93-40.25 54.8-5.75 4.25-12.65 7.29-19.55 9.81-13.43 4.58-29.7 6.14-44.46 3.82-21.67-3.43-42.37-13.63-56.56-30.86-15.52-17.44-22.42-38.52-22.42-62.48 0.76-3.63 0.94-7.1 1.52-10.92 4.6-33.76 31.64-64.41 64.62-73.61 10.74-3.08 22.8-4.62 33.91-3.65 2.89-0.38 5.17 1.16 8.05 0.96 6.51 1.15 13.04 2.49 18.99 4.78z"/>
		<path id="path2111" fill="#1b1c20" d="m457.12 206.05c1.15 1.55 1.54 3.84 0.59 5.56-1.35 2.31-4.43 2.68-6.53 1.55-1.52-0.6-1.91-2.32-2.67-3.46 0.17-2.3 1.52-4.62 3.82-5.37 1.91-0.38 3.25 0.75 4.79 1.72z"/>
		<path id="path2113" fill="#fff" d="m455.39 208.36c0.58 1.34-0.76 2.1-1.52 2.88-1.35 0.37-2.11-0.96-2.5-1.92 0.18-1.16 0.96-2.12 1.91-2.32 0.78 0.6 1.74 0.6 2.11 1.36z"/>
		<path id="path2115" fill="#1b1c20" d="m493.16 229.24c26.06 16.31 39.32 46.4 33.74 76.68-3.84 20.12-17.44 39.28-35.47 49.44-9.77 5.36-20.12 9.39-32.01 9.98-3.64 0.95-7.87 0.37-11.89 0.56-2.69-0.74-5.55-0.93-8.42-1.32-25.88-4.23-50.6-25.51-57.71-50.99-2.87-8.43-3.65-18.79-2.87-28.36 2.11-22.25 14.76-43.33 34.5-55.62 16.3-10.32 37.56-14.75 57.5-9.58 8.23 1.54 15.54 5.19 22.63 9.21z"/>
		<path id="path2117" fill="#fff" d="m458.66 223.3c1.72 4.98 2.67 10.95 3.06 16.08-0.39 6.54 0.2 14.78-1.91 21.32-1.32 0.55-2.69 0-3.84 0-3.06-0.21-6.14 0-9.02 0.37l-0.96-1.16c-1.52-7.27-1.52-15.73-1.52-22.99 0.76-4.04 1.35-8.83 2.48-12.87 0.39-0.75 1.17-0.93 1.93-0.93l9.78 0.18z"/>
		<path id="path2119" fill="#e51819" d="m494.9 236.72c4.01 3.27 8.22 7.11 11.67 10.92l0.37 0.95c-8.22 3.08-17.05 6.92-24.13 11.9-0.39-0.39-0.95 0-1.34 0.21v0.92c-3.65 1.17-6.34 9.03-10.35 3.86 0.19 0 0.39 0.18 0.39 0-0.39-0.39-1.15 0-1.74-0.58-1.15-1.75-5.55-1.35-4.23-4.02 0-4.03 1.74-6.33 1.17-10.55 1.15-8.61-0.95-18-1.54-26.07 10.74 1.71 20.9 6.52 29.73 12.46z"/>
		<path id="path2121" fill="#e51819" d="m440.07 233.46c-1.35 9.39-0.96 17.25 0.76 27.03v2.12l-8.05 4.78c-3.65-2.49-7.1-5.16-10.92-7.85-7.31-4.41-14.38-7.48-22.06-10.35 0.95-2.51 4.21-4.8 6.14-7.11 1.15-1.53 3.45-1.92 4.03-3.45 9.18-7.28 19.55-12.46 31.03-14.18 0.39 2.88-1.13 6.14-0.93 9.01z"/>
		<path id="path2123" fill="#1b1c20" d="m553.92 231.35c0 0.39-0.57 0.2-0.76 0.2 0-0.38 0.37-0.2 0.76-0.2z"/>
		<path id="path2125" fill="#1b1c20" d="m374.9 231.55c0 0.4-0.6 0.19-0.79 0.4v-0.4h0.79z"/>
		<path id="path2127" fill="#1b1c20" d="m383.13 248.99c1.15 1.34 1.15 3.65 0.59 5.17-0.78 1.16-1.76 1.92-2.89 2.5-2.1 0.38-3.45-0.39-4.99-1.34-0.94-1.56-1.73-3.46-0.74-5.37 0.56-1.53 1.91-2.12 3.24-2.68 1.91-0.2 3.62 0.2 4.79 1.72z"/>
		<path id="path2129" fill="#1b1c20" d="m530.16 248.79c1.32 1.54 1.91 4.03 0.76 5.76-0.96 1.34-2.5 2.49-4.43 2.49-1.91 0-3.23-1.35-4.19-2.69-0.6-1.71-0.19-4.02 0.96-5.56 1.91-1.52 5.16-1.72 6.9 0z"/>
		<path id="path2131" fill="#fff" d="m381.4 251.86c0 1.34-0.76 1.9-1.89 2.3-0.78-0.2-1.56-0.57-1.76-1.34-0.17-1.33 0.2-2.87 1.76-2.87 1.13 0.17 1.71 0.76 1.89 1.91z"/>
		<path id="path2133" fill="#fff" d="m528.42 251.86c0 1.17-0.37 2.49-1.93 2.3-0.95-0.2-1.91-0.96-1.71-2.1 0-1.35 0.95-1.35 1.91-1.94 0.78 0.21 1.73 0.79 1.73 1.74z"/>
		<path id="path2135" fill="#fff" d="m517.31 264.9c-0.95 2.89-4.4 4.2-6.31 6.12-8.27 5.76-17.27 10.18-26.86 12.28-1.72-3.83-3.04-7.85-5.93-11.12 0.18-1.35 1.33-2.69 2.69-3.26 8.42-7.49 18.97-12.26 29.51-15.72 3.45 3.07 4.97 7.68 6.9 11.7z"/>
		<path id="path2137" fill="#fff" d="m428.74 271.42c-2.47 3.25-4.4 6.69-5.92 10.53-1.54 1.15-2.89-0.19-4.43-0.38-10.33-4.02-20.31-9.01-28.55-17.05 1.15-4.03 3.06-7.67 5.75-10.76 12.26 2.9 23.56 8.65 33.15 17.66z"/>
		<polygon id="polygon2139" points="480.32 261.07 480.32 260.88 480.69 260.88" fill="#1b1c20"/>
		<path id="path2141" fill="#fff" d="m478.39 280.79c1.71 4.99 3.64 11.13 2.12 17.09-1.93 9.77-10.54 18.77-20.33 20.88-11.11 2.67-21.46-0.96-28.94-9.59-6.14-7.67-7.1-19.35-3.06-28.38 3.45-8.98 13.04-14.36 22.24-15.89 11.67-0.19 23.02 4.8 27.97 15.89z"/>
		<path id="path2143" fill="#e51819" d="m415.14 285.59c1.54 1.17 3.82 0.97 5.38 2.11 0.37 2.3 0.56 6.14-0.2 8.83-11.32 3.45-23 9.95-31.81 17.61l-0.97-0.55c-1.35-4.8-2.87-10.15-3.44-15.14l0.18-5.76c0.58 0.19 0.39-0.58 0.39-0.58-1.15-0.19 0-1.72-0.57-2.11-0.58-3.44 1.14-6.13 0.57-8.61 1.52-1.74 0.57-4.99 1.91-6.91 0.39-1.53 0.18-3.06 1.15-4.03 8.05 5.95 17.64 11.89 27.41 15.14z"/>
		<path id="path2145" fill="#e51819" d="m519.44 271.61c3.06 6.12 2.86 15.51 3.25 22.23l-0.58 0.59c1.34 1.13-0.22 3.64 0.19 5.16-0.19 4.23-1.73 8.62-2.86 12.63-1.56-0.37-2.89-1.53-4.25-2.46-8.79-6.32-18.97-10.74-29.12-13.81-0.96-0.78 0-1.34-0.59-2.3 0.98-0.96 0-2.13 0-2.87-1.15-2.3 2.13-2.3 3.84-3.08 7.29-2.47 14.19-5.75 20.7-9.76 2.69-1.74 5.95-4.22 8.46-6.33h0.96z"/>
		<path id="path2147" fill="#1b1c20" d="m555.24 272.75c0.2 0.39-0.15 0.2-0.37 0.39v-0.58s0.37 0 0.37 0.19z"/>
		<path id="path2149" fill="#1b1c20" d="m461.33 283.49c0.98 1.54 2.3 2.87 3.06 4.79 0.96 3.83 0.78 8.44-1.89 11.31-2.49 2.89-5.77 4.98-9.59 4.6-3.08 0-5.57-1.35-7.87-3.08-3.06-3.23-4.97-7.84-3.24-12.43 1.33-4.03 5.54-7.68 9.75-8.26 3.84-0.19 6.94 0.97 9.78 3.07z"/>
		<path id="path2151" fill="#fff" d="m459.81 289.23c0.76 2.11 0.76 5.57-1.15 7.49-1.93 2.49-5.18 2.87-8.24 2.3-2.69-1.54-4.43-4.41-4.43-7.68 0.39-1.34 0.96-3.06 2.13-3.64 0.95-1.34 2.67-2.11 4.4-2.47 3.06-0.38 5.56 1.72 7.29 4z"/>
		<path id="path2153" fill="#1b1c20" d="m552.2 300.73l-0.78-0.56c0.2-0.19 0.41-0.77 0.96-0.58l-0.18 1.14z"/>
		<path id="path2155" fill="#fff" d="m516.92 318.19l0.39 0.76c-1.34 3.83-3.45 7.29-5.75 10.35l-1.54 0.2c-11.5-3.46-23.19-7.67-31.81-16.68 0.18-1.74 1.89-2.3 2.3-4.03 1.91-2.12 2.3-4.97 3.82-7.29 12.09 2.51 23.22 8.63 32.59 16.69z"/>
		<path id="path2157" fill="#fff" d="m422.43 302.09c1.32 4.21 3.84 7.47 6.12 11.11-9.01 8.83-20.12 14.2-31.44 17.82l-1.33-0.18c-2.49-3.06-4.42-6.73-5.75-10.54 9.01-8.82 19.94-15.14 31.64-18.6l0.76 0.39z"/>
		<path id="path2159" fill="#e51819" d="m474.94 317.04c7.29 6.9 17.25 11.3 26.25 15.51l5.97 1.72-0.59 1.72c-10.15 10.95-23.97 20.71-39.49 22.82l-0.76-0.19c0.76-1.36 0.2-3.06 1.35-3.83-1.15-3.26 0.56-4.99 0.19-8.04 0.76-3.27-0.19-7.1 0.37-10.55 0.2-1.54-0.56-2.67-0.56-4.41-0.78-2.87-0.39-6.16-1.35-8.82 0.39-0.76 0.39-0.76 0.39-1.34 2.28-0.76 2.67-2.49 5.36-2.87 0.76-0.77 1.37-2.11 2.87-1.72z"/>
		<path id="path2161" fill="#e51819" d="m441 322.21c-1.52 6.32-1.52 11.69-2.28 18.21-0.39 0.18-0.58 0.18-0.97 0.4 1.73 0 0.97 2.66 1.17 4 0.19 1.54-0.59 3.06 0.39 4.41-0.39 3.27 0.76 6.73 0.56 9.58-1.34 0.37-1.73-0.58-2.86-0.19-8.66-2.29-15.93-5.17-23.22-10.34-4.97-3.46-9.78-6.91-13.6-11.9 2.3-2.11 7.09-3.06 10.35-4.96 8.24-3.08 15.14-8.83 22.04-14.19 2.69 1.72 5.38 4.02 8.42 4.98z"/>
		<path id="path2163" fill="#fff" d="m461.16 324.11c1.91 9.42 2.67 24.17-0.59 34.51 0.18 0.99-0.95 1.36-1.34 1.93-4.6 0-9.2 0.77-13.24-0.78-2.67-10.73-2.67-25.32 0.2-35.83 4.23-0.97 8.24 1.33 12.08-0.4 0.96 0.19 2.69-1.13 2.89 0.57z"/>
		<path id="path2165" fill="#1b1c20" d="m530.72 327.96c1.17 1.54 1.17 3.83 0.98 5.57-0.61 1.71-2.52 2.28-4.04 2.85-1.93-0.18-4.21-0.57-4.79-2.85-0.98-1.53-0.37-3.45 0.39-4.82 1.91-2.47 5.16-2.28 7.46-0.75z"/>
		<path id="path2167" fill="#1b1c20" d="m383.13 328.71c0.97 1.37 1.35 2.71 1.54 4.22-0.78 1.93-1.93 3.84-4.03 4.43-1.72 0.37-3.26-0.59-4.43-1.73-1.52-1.53-1.91-3.84-0.76-5.55 0.39-1.37 1.74-1.74 2.89-2.3 1.71-0.38 3.25 0.39 4.79 0.93z"/>
		<path id="path2169" fill="#fff" d="m529.18 331.22c0.39 1.15-0.76 2.31-1.71 2.31-0.98 0.18-2.5-0.98-2.11-1.92-0.19-1.16 0.96-1.73 1.72-2.11 0.97 0.19 1.93 0.76 2.1 1.72z"/>
		<path id="path2171" fill="#fff" d="m381.4 332.37c0 0.76-0.38 1.9-1.35 1.73-0.94 0.17-1.71-0.2-2.1-1.17-0.37-1.14 0.39-2.48 1.56-2.48 1.32 0 1.51 0.97 1.89 1.92z"/>
		<path id="path2173" fill="#fff" d="m244.93 348.65c-13.43 26.47-28.96 52.14-45.82 77.25-0.98 0.37-0.98 1.93-2.11 1.93-0.76-19.36-0.56-35.48-0.76-54.27v-25.68l0.57-0.57 26.45-0.19 0.39-0.37 21.65 0.37-0.37 1.53z"/>
		<path id="path2175" fill="#fff" d="m124.53 349.23c-0.37 23.42 0.98 49.65 0.59 74 0.17 15.14 0.17 29.7 0 44.27l0.56 1.55-0.17 45.42c-17.64 18.01-36.61 33.92-55.595 49.45-2.124-0.21-2.124-3.29-3.275-4.99-4.58-11.5-8.245-23.56-10.721-35.67-2.689-12.82-4.405-26.45-4.989-39.47l-0.585-0.96 0.195-23.76c-0.76-15.53 0-29.9-0.195-45.63-0.761-3.64-0.176-7.85-0.389-11.91 0.584-17.6-0.546-34.89 0-52.12l0.779-0.76h58.845l0.78-0.58h12.83l1.34 1.16z"/>
		<path id="path2177" fill="#e51819" d="m331.77 361.12c0.74 0.57 1.91 1.52 2.84 0.57l2.71 0.76c-0.76 2.89-3.64 5.36-1.73 8.44 1.52 1.76 2.67 5.15 5.57 3.84 1.91-0.97 3.42-2.51 5.35-2.71 0-0.17 0.58-0.54 0.21-0.74-0.21-0.39-0.21-0.78-0.41-1.36 1.54-0.35 0-2.85 2.11-2.65 0.97 1.3 0.58 3.23 2.31 4.21l4.6-0.2c-0.19 1.37-1.53 2.11-2.49 3.08-0.58 0.2-1.35-0.21-1.35 0.55h0.2c-2.87 2.3-7.11 5.38-9.4 8.24-3.25 0.78-7.09-1.15-10.52-1.54-6.73-1.5-12.85-1.71-19.38-2.3-1.91 0-4.6 0.39-5.57-0.93 0-0.59-0.94-1.72-0.57-2.69-1.34-1.93-0.56-2.5-1.15-5.19 0.96-1.15-1.73-1.52-1.52-2.49-0.97-0.39-0.78-1.91-1.36-2.46 2.88 1.09 5.38-2.91 6.92-2.49 0 2.49 0.19 4.75 2.67 6.29 0.58-0.17 1.36 0.76 1.17 1.15 1.73 0.98 3.62 2.32 5.55 0.98 3.45-1.17 4.97-3.86 4.97-6.51-0.74-1.17-0.19-3.65-1.13-4.25 2.28-1.54 4.41 1.55 6.32-1.11 0.37-0.8 0.96-1.54 1.93-1.54 0.37 0.74 0.74 2.09 1.15 3.05z"/>
		<path id="path2179" fill="#1b1c20" d="m457.3 371.85c1.19 1.54 1.19 3.84 0.41 5.55-1.17 2.11-3.28 1.91-5.19 2.3-1.73-0.93-3.84-1.91-4.01-4.4l0.37-2.89c2.1-2.49 6.14-2.84 8.42-0.56z"/>
		<path id="path2181" fill="#fff" d="m455.39 374.36c-0.2 0.94-0.37 2.65-1.91 2.3-0.96 0.18-1.54-0.62-1.93-1.36-0.18-1.15 0.78-1.91 1.56-2.3 1.13-0.35 1.52 1.15 2.28 1.36z"/>
		<path id="path2183" fill="#1b1c20" d="m556.02 377.01c0 0.2-0.93 0.2-0.58-0.17 0.21 0.17 0.58 0 0.58 0.17z"/>
		<path id="path2185" fill="#e51819" d="m252.22 408.49c0.3-1.19 0.2-2.41-0.02-3.47-0.58-0.39-0.76-0.78-0.39-1.15-0.37-0.58 0.39-0.78 0.39-1.56 2.09-1.32 4.21-3.82 4.02-5.73 0.97-0.19 1.56 1.35 2.32 1.91 0.56 1.52-0.39 2.69 0.37 4.43 1.34 0.95 2.86 1.32 3.08 2.84l-2.85 4-6.92-1.27z"/>
		<path id="path2187" fill="#ffe900" d="m259.14 409.76l-0.04 0.04c0.76 1.32 1.15 2.69 2.48 3.84 0.6 2.12 0.19 4.62-1.52 6.51-5.77 3.64-5.36 11.87-4.04 18.22 1 3.05 2.52 6.51 5.75 7.49 1.15 4.21-3.43 7.83-6.49 10.33-0.99 0-1.54 0.78-1.93 1.72 0 0.58 0.76 1.16 1.35 0.97 5.55-2.11 10.89-7.1 10.89-13.63 1.74 0.2 1.56 2.71 3.3 3.08h9c4.99-1.13 9.4-5.94 14.95-4.42 1.35 0.23 1.54-1.52 2.5-1.89l7.46-1.17c0.98-1.15 0.98-2.67 1.17-4.19 0.18-1.56 0.18-3.84-1.93-3.67-3.45-0.17-6.33 0-8.63-2.49 0.78-2.11-1.91-4.97 1.34-5.54 2.11-0.8 2.48 1.31 3.84 1.91 4.02 0.78 7.1-0.97 11.13 0-2.12 3.24-8.05-0.39-9.59 3.63 4.97 0.76 9.96 0.19 14.35-0.96 1.56-1.15 2.71-2.3 3.27-4.01-0.17-4.99-1.36-9.57-5.55-12.65v-0.39c3.43 0.58 5.18 4.4 6.53 7.29 0.37 0.37 1.13 0.37 1.32 0.93 0.78 1.74-2.3 3.84 0.59 4.04 3.25-1.52 3.84-4.6 4.21-7.86 0.19-2.69-1.54-4.99-3.84-6.31-0.76-0.39-1.91-1.17-2.67-0.39-0.59 0.39-0.59 0.93-0.2 1.52 0.2 0.78 1.35 0.78 1.35 1.73-1.54 0.2-2.67-2.12-4.02-2.86-4.4-2.5-9.41-3.47-14.01-5.19-2.67 0.59-4.8-0.54-7.08-0.95-0.78-1.91-2.1-4.97-0.6-6.51 1.17 0.37 2.88 2.47 4.62 1.15 0.58-0.98 0.95-2.11 0.76-3.08-0.76-1.15-1.93-2.48-3.65-2.48-1.73-0.58-2.49 0.96-3.04 1.89-0.8-0.37-1.36-1.52-0.8-2.47 0.98-1.54 2.91-1.54 4.64-2.13 2.85-1.32 6.3-0.93 8.42-3.62 0.78-1.52 1.52-3.06 2.28-4.41 8.27-0.58 14.78 1.15 22.05 1.91 0.59 0.35 1.71 0.35 2.51 0.57 3.63 0.58 6.51 1.34 9.96 2.34 0 3.04 3.45 5.73 1.35 8.98-1.17 1.35-3.26 3.08-2.52 4.95 1.56 1 2.52-0.93 4.04-0.93 1.17-1.52 2.69-1.72 4.6-1.33 0.18 0.74-0.18 1.91 0.18 2.85-1.14 2.51-3.44 5.18-3.24 7.87 2.3 0.98 2.88-3.08 5.18-3.43 0.94 0.35 1.35-0.58 2.3-0.43-0.19 1.76 1.15 4.25-1.16 5.19 0 5.18-1.72 12.28 1.73 16.51l-0.19 3.43c-3.82 1.34-4.62-5.36-8.62-3.26-1.35 3.84 3.24 6.55 0.93 10.37-0.93 0.94-1.32 2.48-0.54 3.43 2.08 4.99 9.57 6.16 8.62 12.48 0.38 1.15 0.21 3.08 0 4.01-2.32-3.25-5.19-6.7-9.21-8.42-1.91-1.54-1.15-4.42-2.88-5.96-2.67 0.58-1.13 4.21-1.33 6.16 1.7 5.54 8.23 7.48 9.59 13.41 0.18 1.72 0.76 3.63-0.38 4.99-2.13-0.97-3.26-2.89-4.24-4.8-0.76-1.36 0-4.4-2.3-4.79-1.91 1.52-3.45 4.41-2.88 7.66 1.54 3.45 1.54 7.86-0.57 10.92-0.56 0.41-1.34 1.15-1.91 0.99-2.49-4.05-0.76-10.37-5.75-12.69-0.97 0-1.34 0.96-1.34 1.74 0.95 3.82 2.49 6.9 1.17 10.95-2.71 3.04 0.35 7.25-1.54 10.9-0.39 2.47-2.71 4.6-4.82 5.38l-4.01 0.37c0.39-1.74 1.52-3.43 2.3-4.98l-0.2-4.61c-2.3-3.84-5.55-8.43-3.06-13.22 2.3-3.82 6.9-6.71 6.9-11.5 0-0.39-0.58-0.57-0.76-0.76-3.08 0.76-4.03 4.01-5.77 5.94-8.63 9.59-11.67 21.47-19.74 31.23-2.48 2.89-5.95 4.99-9.79 3.47-2.86-2.32-2.65-6.35-4.01-9.2-3.65-1.17-3.84 4.21-6.49 5.93-2.91 1.73-5.38 3.82-8.83 4.01-2.89-0.19-5.19-1.71-6.14-4.38 0.58-1.54-0.78-2.3-1.35-3.47 4.21-2.09 8.03 4.23 12.46 0.99 2.69-1.36 5.77-3.08 6.7-6.16 0.39-1.17 0.39-2.3 0.2-3.24-0.76-0.77-1.33 0-1.93 0.55-1.11 3.06-4.19 6.12-7.86 6.32-4.01-1.72-9.37-3.63-13.02 0.21-1.34 1.33-2.49 3.45-4.38 3.45 0.17-2.32 2.08-4.79 2.84-6.7-0.39-0.59-1.52-0.22-2.08 0.17-3.49 3.84-7.51 6.92-12.48 8.05 1.33-5.73 4.04-10.93 5.73-16.47 2.32-3.45 4.25-8.81 9.03-9.22 0.78-0.19 0.78-0.93 0.41-1.52-1-0.78-2.52-0.94-3.84-0.58l-2.34 1.55c-8.03 9.4-10.14 24.53-23.35 29.13-9.98 4.79-22.63 2.3-30.88-4.21-0.95-0.78-1.34-2.32-1.34-3.08 6.9 1.75 11.89 9.59 19.92 6.7 10.95-0.95 18.98-9.38 23.58-18.96l6.51-14c-1.71-1.52-3.43 0.96-4.97 1.93-6.31 5.38-12.63 13.99-22.22 10.91-0.58-0.38-1.34-1.14-0.97-1.92 4.03 0 8.63-0.57 12.28-2.48 3.45-2.69 7.48-6.35 6.12-11.31-0.74-0.97-1.74-1.71-2.48-0.38-2.47 3.62-6.53 7.85-11.71 6.7-1.33 0.19-2.67-0.39-4.02-0.94v-0.58c2.3-0.78 4.6-1.93 6.9-2.89 1.17-2.88 3.84-4.99 4.8-7.85-3.63-1.35-5.75 4.02-9.59 2.3 3.27-1.93 5.75-4.99 7.09-8.44-0.19-0.96-0.37-2.11-1.34-2.69-2.89-0.57-3.84 2.88-6.14 3.86-0.76 0.74-2.28 0.54-3.24 0.17 0.76-1.15 0.57-1.93 0.39-3.06l-2.32-1.54c1.54-1.92 1.93-5 4.6-5.55 2.69-0.2 5.19 0.18 7.47 0.76 2.69-1.15 2.12-4.04 2.3-6.71-0.18-4.23 0.78-9-2.85-11.3 1.13-0.57 1.72-1.93 1.33-3.08-0.14-0.35-0.43-0.61-0.76-0.8-0.55-0.31-1.27-0.33-1.74 0.04-0.76 1.13-1.34 2.86-0.19 3.43-2.69-0.74-4.6 1.56-6.71 2.53h0.2c-0.76 0.74-1.52-0.6-1.91-0.78-0.98-1.34 1.34-4.99-1.93-5.77l0.56-0.39c-0.37-0.17-0.37-0.93-0.93-0.74v0.18c0 0.39-0.39 0.21-0.59 0.21l-0.37-0.21c1.89-1.72 6.51 0.21 7.66-3.45 0.96-0.57 0.76-0.94 1.74-1.13 1.83 0.6 2.9 3.12 4.83 3.86 0.51 0.19 1.03 0.27 1.66 0.15 2.51 0.2 4.23-1.71 5.38-3.62 1.54-2.73 0-5.77-0.96-7.88 1.13 0 2.3-1.17 2.67-2.1l0.96-0.06c0.29 5.09 3.84 5.4 6.53 6.18 1.73-0.2 3.25-0.78 4.77-1.52 0.61-0.59 0.98-1.33 1.19-2.09l6.92 1.27z"/>
		<path id="path2189" fill="#e51819" d="m238.77 405.98c0.37-0.78-0.74-1.74-1.71-1.74-1.52-0.19-2.11 1.15-3.04 2.13l0.74 0.37c-0.57 0.93-2.11-0.18-3.26 0.56v-0.19c-1.54 0.39-1.15 0-2.47-0.74l0.56-0.61c0.18 0.22 0.96 0 0.76-0.17 0.2-0.39 0.39-0.57 0-0.96 0.39-1.34 4.41-2.71 3.67-4.81 0.17-0.16 0.74-0.16 0.74-0.74-0.94-0.78-0.57-1.74-0.74-2.5 0.93-0.19 1.32 0.59 1.89 1.52 0.76 3.43 4.97-0.76 5.75 2.3-0.18 2.89-1.87 2.69-1.83 6.01l-1.06-0.43z"/>
		<path id="path2191" fill="#e51819" d="m177.76 513.98c-0.23-0.87-0.7-1.71-1.48-2.39-1.91-1.56-7.64 0.56-7.27-2.3 0.96 0.19 0.59-0.78 0.96-1.13 1.15-2.15 5.55-1.74 5.36-5.21v-1.73c0.95 0.19 2.32 0 3.08 0.78 0.56 1.15 0.95 2.88 2.67 3.27 1.73 0 3.06-1.54 3.84 0.74 0.54 2.46-1.7 4.62-1.48 6.82l-5.68 1.15z"/>
		<path id="path2193" fill="#e51819" d="m164.98 527.88c-1.91 1.91-2.11 5.38-5.56 4.99-1.52-0.78-1.93-1.93-2.28-3.27 0.35-0.96-0.41-0.96 0.35-1.91-0.56-2.11-2.28-4.21-5.16-4.6l-0.18-0.39c0.37-1.13 2.48-1.72 3.26-1.91 1.73-0.59 2.67 1.54 4.6 0.78 1.52-1.54 2.1-3.08 4.6-3.28 0.17 1.09 1.89 2.01 1.26 2.92l-0.89 6.67z"/>
		<path id="path2195" fill="#e51819" d="m335.98 657.46c-0.97-0.76-1.74-0.97-2.89-0.76-0.93 1.15-0.76 2.46-2.1 2.67-0.96-0.39-1.13 0.39-1.93-0.21-0.55-0.74 0.19-1.89 0.19-2.46 0.2-0.21 0.4-2.9 1.74-3.45 0.78-0.97 0.19-2.3-0.59-3.08-1.52-0.97-3.62-1.71-4.21-1.52l0.59-0.19-0.2-0.22c0.57-0.76 2.11-0.95 3.28-0.37 0.91 0.37 2.3 1.15 3.23 0.2 1.52-1.35 0.98-4.6 4.23-4.25 1.33 0.82-0.4 2.9 0.2 4.25 0.37 2.88 3.64 3.62 6.12 4.4l-7.66 4.99z"/>
		<path id="path2197" fill="#e51819" d="m339.04 670.48c-1.15 0.98-2.12 1.52-2.12 3.28 1.16 2.28 0.19 4.38-0.36 6.51-1.36 0.39-3.27-0.59-4.99-1.13-1.54 0.74-3.66 1.3-5.55 2.08-0.8-0.56 0-2.08 0.76-2.86 1.52-1.33 3.99-1.74 3.25-4.25-0.97-0.74-1.34-0.92-1.91-2.11 3.06-1.32 6.69-1.71 9.4-4.4l1.52 2.88z"/>
		<path id="path2199" fill="#ffe900" d="m349 682.37l0.76-0.58c0.39-2.5 1.56-7.68-1.91-9.79-2.11-1.71-5.75-2.08-8.81-1.52l-1.52-2.88c0.17-2.11 2.28-3.24 1.13-5.54-0.96-1.36-2.87-2.69-2.67-4.6l7.66-4.99c1.73-0.19 4.6 0.78 6.12-0.78 1.56-1.52 3.08-3.04 3.08-5.36 1.93-0.95 3.84-1.93 3.47-4.4-0.21-8.44-5.36-14.76-7.13-22.63-0.76-0.59-1.53 0.21-2.27 0.58-0.6-1.91 2.27-4.97-0.97-5.38-1.91 1.72-0.76 5.77-4.41 6.34-3.45 0.95-6.92 1.93-10.76 2.47 2.13-5.73 9.4-5.73 12.3-11.07 2.87-6.35 2.87-14.97-2.1-20.13 2.3-3.67 7.66-2.71 8.79-7.31 2.5-4.02 1.19-9.01 1.56-13.22-0.78-1.34-0.37-3.47-2.14-4.21-3.44-0.58-2.27 3.65-4.2 4.8-0.19 1.32-1.71 1.71-2.51 2.47-0.94-0.37-0.76 0.96-1.7 0.39-1.94-11.69-5.57-23.19-14.58-31.83-8.05-5.53-19.18-6.88-23.58-17.23-1.91-1.54-4.21-0.97-5.95 0.18-3.82 3.45-5.73 8.44-9.96 11.71-2.1-1.19-2.88-5.77-6.33-4.25-4.19 3.86-4.39 9.44-6.49 14-0.61 1.93-1.93 3.84-3.84 4.62-0.59-1.93 0.76-3.65 1.13-5.38 1.71-3.06 4.62-7.66 1.71-11.31-1.3-1.15-3.23-2.28-4.58-0.56-4.21 4.01-5.18 9.59-8.83 13.99-0.74-0.39-1.52-1.36-1.91-2.3-1.34-3.27 2.3-7.48-1.71-9.59-4.99 0.2-4.99 5.97-6.9 9.2-0.59 1.93-1.74 3.43-3.08 4.99-0.94 0.18-0.78-0.78-0.78-1.34-0.37-3.08 5.01-6.88-0.16-8.83-4.42 2.49-10.74 3.84-12.47 9.39-1.15 2.3-1.52 4.8-3.43 6.73-0.59-2.52-1.19-6.14 0.56-8.44 0-0.57 0.37-2.11-0.76-2.11-4.62 1.54-5.77 7.27-10.76 7.84-1.71-2.67 0.78-5.93 0-8.81-1.54-2.11-5.75 0.78-6.31-2.3-0.59-0.57-1.35-0.57-1.91-0.2-2.5 4.6-4.23 10.37-9.03 13.04-1.54 1.54-1.71-1.73-3.25-0.76l-0.18-0.19c1.72-2.5 3.26-5.58 3.65-8.44-1.93-0.18-3.65-1.54-5.38-0.76-0.59-1.52-0.76-3.26-1.74-4.82-4.6-4.19-11.67-4.38-17.25-2.45-1.34 0.76-2.67 1.52-2.49 3.06l-4.8-6.14c-0.37-2.87-1.32-6.69-4.4-7.86l0.89-6.67c-0.02 0.04-0.07 0.08-0.11 0.14 2.1 1.74 3.06 2.13 5.92 1.91 2.32-1.15 4.43-2.67 5.77-4.97 0.45-1.48 0.63-2.98 0.31-4.31l5.68-1.15c0.05 0.9 0.58 1.82 1.87 2.79 4.21 2.87 9.37 5.17 14.75 4.58 5.17-2.1 10.74-2.47 16.47-2.47 11.13-1.74 21.09-6.14 32.2-7.7 5.19-1.87 9.61-5.15 13.65-9.36 1.3 0.74 2.28 2.48 3.62 3.24 2.89 0.58 5.58 3.08 8.79 1.36 3.47-0.78 6.55-3.08 8.85-5.94 1.54 0.76 1.54 2.86 2.48 4.21 2.1 2.88 4.99 3.84 8.46 3.84 3.82 0 6.88-2.3 9.39-5.38 1.54-7.45 8.6-12.07 10.33-19.17 0.59-0.75 0.98-1.52 1.74-2.1 1.54 3.06 4.79 6.49 2.69 10.35-0.39 2.11-3.84 4.21-1.35 5.95 1.54 0.58 3.45 0.76 4.99 1.52 2.85-0.59 5.17-1.15 7.66-2.48 2.87 6.12 10.33 7.47 14.95 12.63 16.3 13.8 27.22 33.18 34.68 52.53 4.44 1.33 9.22 0.22 13.04-1.54 4.23-2.1 7.68-5.75 8.05-10.33-1.52-19.94-11.67-36.99-22.22-53.29-6.53-12.47-9.39-27.02-10.17-40.46-2.29-12.07 3.46-22.03 0.39-33.36-0.39-3.06-1.52-6.68-2.5-9.96 2.89-0.58 5.95 6.14 7.68 1.54 0.37-4.97 2.5-10.35 0.97-15.73-0.4-4.38-2.53-7.46-3.46-11.5 3.25 1 4.58 4.6 5.94 7.49 2.87 7.44 4.58 16.29 2.48 24.71 0.19 2.3-0.75 4.99 0.97 6.55 3.27 0.92 4.21-4.81 7.68-4.64-4.99 9.79-9 18.23-7.49 30.49-0.58 2.1 0.38 4.6 0 6.9 0.2 6.92 2.5 13.04 5.37 18.79 0.95 0.39 1.92 0.76 2.86 0 3.28-4.4 2.69-10.35 5.95-14.74 0.78-1.93 2.32-3.86 4.42-4.6 0.76 1.52 0.18 4.02-0.58 6.12-2.3 5.17-5.58 10.35-4.8 16.3-0.95 6.88-0.78 15.52 5.95 19.73 0.76 0.19 1.54 0.97 2.3 0.39 3.06-2.89 1.15-7.29 3.64-10.37 2.3-4.02 6.34-7.26 6.9-11.85 0.57-1.17 2.11-2.11 3.08-2.89-1.73 7.48-5.77 14.17-7.5 21.64-1.91 6.33-0.76 14.77-0.94 21.11 0.94 2.3 1.91 4.77 4.23 6.14 0.76 0.17 1.89 0 1.7-1.17 0.58-3.63 0.19-6.51 1.93-9.77 2.86-4.42 7.85-6.14 11.09-10.17l0.21 0.19c-1.73 7.08-8.63 12.09-9.2 19.75-0.95 4.4-1.15 9.2-0.19 13.43 0.19 1.15 1.52 1.54 2.49 1.34 2.5-0.58 4.02-3.27 5.75-5.18 3.26-3.24 8.05-3.82 11.11-7.29 1.17 5.94-6.12 8.26-9.37 11.89-5.56 4.38-5.75 12.26-11.89 16.29-1.35 1.15-2.69 2.69-1.93 4.6 1.34 2.5 4.03 2.11 6.14 2.5 11.11-3.28 17.83-16.49 29.14-19.36 4.6-0.78 7.48 2.87 9.39 6.12 0.96 3.65-1.34 5.75-3.08 8.05-0.56 0.39-1.32 0.78-1.91 0.78-0.17-0.97 0-1.54 0.39-2.88 1.35-1.91 3.84-3.45 2.69-6.14-0.97-1.54-2.69-2.48-4.42-2.87-7.27 0.78-12.07 9.4-18.4 13.02-5.19 3.84-10.72 8.25-17.62 8.44-4.6 0.39-5.19 5.36-6.34 8.83-2.88-0.39-4.99-9.02-8.05-3.62-0.39 3.99-1.73 7.46-2.49 11.11-1.52-0.78-1.93-2.5-2.69-3.84-1.15-2.13-2.11-5.01-4.78-5.36-1.93 0-3.45-0.78-5.18-0.59-2.11 0.39-4.43 1.35-5.17 3.43 0.18 7.12 4.41 12.67 3.26 20.31-1.35 4.8-2.3 9.81-3.46 14.78 0.38 1.75 0.94 3.47 2.11 4.79 3.63 3.43 7.64 0.39 11.68-0.37 4.05-1.75 7.11-5.18 9.78-8.44 6.14-2.9 10.74 4.02 17.64 0.94 1.52-0.55 2.87-1.89 4.6-1.89l0.59 2.86c1.52 0 2.49 1.52 4.21 0.78 0 3.82-4.6 4.6-7.29 5.75-3.63-0.95-7.29-2.88-11.31-1.54-1.71 0.2-3.27 0.59-4.97 0.74-1.93 2.89-4.81 2.89-6.92 5.6-0.19 1.13 1.15 0.93 1.74 1.34 2.28 0.35 4.4 1.13 7.09 0.94 0 1.91-1.15 4.03-2.12 5.75-2.11 3.25-6.12 2.3-8.23 5.38 0.18 0.76 1.13 1.15 1.91 0.95 4.8-0.19 7.08-6.33 11.89-5.96 2.5-0.37 5.36 0.58 7.29-0.94 0 3.24-3.66 4.99-6.16 6.32-0.37 1.93 1.93 1.34 2.89 2.51-3.26 3.43-8.25-0.58-12.46 1.52-1.34 0.57-3.84 0.18-3.84 2.5-0.19 1.54 1.52 0.95 2.32 1.54 3.82-0.59 6.88 2.47 10.53 3.23 0.39 0.78 1.54 1.93 0.95 2.69-3.82-2.3-7.85-0.95-12.28-1.73-1.52 0.17-2.47 1.73-3.23 2.9 0.95 3.82 5.94 4.41 6.12 8.81 0.58 1.7 0.39 3.82 0.19 5.36-1.54 0.76-3.25-0.95-3.82 0.96l-0.39 1.95c-2.49 0.15-3.84-2.54-4.79-4.06-1.15-2.88-3.28-6.7-6.71-6.7-2.69 2.88 0.74 5.55 0.74 8.42 2.13 3.08 5.97 5.77 4.62 9.8-3.45-1.19-5.36-5.38-7.46-8.24-0.59-0.41-1.74-0.59-2.13 0.15-2.28 2.89-1.91 7.31-4.03 9.98-0.18-2.88-1.13-6.12-4.02-7.48-2.09-1.13-4.6-1.52-7.27-1.33-0.39-1.56 0.2-3.45-0.58-4.79 0-1.17-0.38-2.69-1.74-3.43-2.09 0.74-2.65 3.23-3.04 5.14-0.78 4.41-2.12 8.81-2.69 13.24-1.15 1.71-1.15 4.23-3.47 5.16-2.28 0.59-5.54 0-6.7 2.5l-3.26-1.72z"/>
		<path id="path2201" fill="#e51819" d="m352.26 684.09c-0.57 2.51 3.07 3.25 2.51 6.16-3.08 0.93-5.95 0.93-7.86 3.43-0.6 0.19-1.34-0.39-1.73-0.39-1.15-2.11 3.06-4.41 0-5.58-0.78 0.24-1.74-0.74-1.91-0.93 1.31-2.5 4.38-1.74 5.73-4.41l3.26 1.72z"/>
		<path id="path2203" fill="#e51819" d="m174.18 541.88c-0.57 1.52 1.15 2.69 0 4.01-2.5 1.15-3.24 0.96-5.73 0.2-1.74 0.39-3.08 2.12-4.06 2.69l0.22 0.37c0.37 1.34-0.76 1.34-1.54 2.12-0.78-0.39 0.19-1.34-0.59-2.12 0.78-0.37-0.19-0.37 0-0.76 1.15-0.96 0-1.54 0.78-2.69h0.2c0-2.5-2.32-4.21 0.58-5.73 2.67 0.17 4.6-2.11 5.34-4.23l4.8 6.14z"/>
		<path id="path2205" fill="#1b1c20" d="m320.83 391.79c0.57 0.56 0.37 1.54 0.18 2.3-1.35 1.91-4.41 0-5.38 2.49-3.43 0.2-0.92-4.99-4.78-4.99-0.37-0.19-0.37-0.6-0.37-0.95 3.43-2.87 6.9 0.76 10.35 1.15z"/>
		<path id="path2207" fill="#e51819" d="m278.65 400.01c-0.56 4.23 0.59 8.27 3.82 10.74 6.34 1.54 11.72 5.38 17.86 7.51 4.58-0.2 9.2 0 12.45 2.84-5.36 3.06-10.74-1.52-16.47-1.71-7.11-1.52-17.85-2.3-19.18-11.72-1.15-4.01 0.18-7.46 0.37-11.09 1.15 0.76 0 2.5 1.15 3.43z"/>
		<path id="path2209" fill="#ffe900" d="m297.62 408.86c-0.18 0.55-0.76 0.94-1.31 1.33-0.8-0.2-1.36-0.98-1.36-1.72l0.19-0.97c0.78 0.58 2.89-0.2 2.48 1.36z"/>
		<path id="path2211" fill="#ffe900" d="m304.52 409.6c0 1.15-0.94 1.52-1.91 1.72-1.15 0.39-2.11-0.2-2.85-0.94 0.2-0.97-0.41-2.1 0.57-2.49 1.34 0.78 3.25 0.19 4.19 1.71z"/>
		<path id="path2213" fill="#1b1c20" d="m256.63 409.04c-0.41 0.76-1.35 1.34-2.34 1.15-1.13 0.19-0.55-1.15-0.55-1.72 0.76-0.8 2.28-0.39 2.89 0.57z"/>
		<path id="path2215" fill="#1b1c20" d="m329.06 416.31c0 5.38-1.15 10.56-5.93 13.41h-1.15c3.24-3.82 4.6-9.01 4.21-14.37-0.97-1.91-1.54-4.23-3.25-5.75-0.18-0.56 0.19-0.93 0.56-1.13 3.28 0.94 5.19 4.41 5.56 7.84z"/>
		<path id="path2217" fill="#ffe900" d="m308.92 411.32v0.39c-1.13 0.58-1.32-0.96-2.1-1.33 0.6-0.39 2.32-0.19 2.1 0.94z"/>
		<path id="path2219" fill="#1b1c20" d="m377.01 431.08c-0.58 7.29 0.94 13.8-1.74 20.33-0.17 0.57-0.58 0.94-1.16 1.12-0.55-1.12 0-2.85 0.39-4.2 0.19-5.75 0.19-11.67-1.15-17.07-0.2-0.96 0.21-2.09 0.76-3.06 2.1-0.55 2.1 1.91 2.9 2.88z"/>
		<path id="path2221" fill="#1b1c20" d="m251.81 429.54c0 0.96-0.95 1.54-1.71 1.93-0.98 0-2.3 0.37-2.67-0.78 0.56-1.52 2.47-0.76 3.04-2.49 0.97-0.37 1.34 0.58 1.34 1.34z"/>
		<path id="path2223" fill="#1b1c20" d="m241.48 439.7c-1.34 2.49-3.25 5.96-6.53 6.16-0.76-1.72 1.35-2.73 2.28-4.06 3.84-4.01 1.17-8.61 3.28-13.21 2.69 2.49 1.54 7.85 0.97 11.11z"/>
		<path id="path2225" fill="#1b1c20" d="m321.4 430.11c0 1.36-1.91 1.91-3.26 2.32-0.56 0-0.95-0.22-1.32-0.41 0.76-1.91 3.04-1.72 4.58-1.91z"/>
		<path id="path2227" fill="#1b1c20" d="m331.36 434.92c3.25 4.97 2.51 12.07 0.41 17.25-0.41 0.36-0.78 0.96-1.37 0.76-1.71-2.51 0.96-4.6 0.22-7.48 0.95-0.57 0.56-1.74 0.56-2.49-0.56-2.68-1.93-4.78-2.3-7.47 0.77-0.39 0-2.11 1.35-1.91l1.13 1.34z"/>
		<path id="path2229" fill="#1b1c20" d="m251.44 434.92c0.57 1.15-0.78 1.91-1.34 2.48-0.98 0-2.3-0.19-2.3-1.33 0.56-0.97 2.3-1.75 3.64-1.15z"/>
		<path id="path2231" fill="#1b1c20" d="m253.16 440.85c-0.37 1.54-1.91 1.73-3.06 2.11l-1.74-0.18c0-1.93 1.91-1.54 2.89-2.89 0.95 0 1.54 0.2 1.91 0.96z"/>
		<path id="path2233" fill="#1b1c20" d="m326.19 450.07c-1.54 4.97-3.25 10.15-7.85 13.78-0.39-5.75 5.55-9.18 5.36-14.95 0.95-2.11 2.88-0.39 2.49 1.17z"/>
		<path id="path2235" fill="#1b1c20" d="m256.22 449.29c-0.2 2.3-2.67 2.12-4.02 2.88-0.58-0.97-0.19-1.54-0.39-2.49 0.59-0.78 1.35-0.96 1.93-1.35 0.96 0 2.11 0.18 2.48 0.96z"/>
		<path id="path2237" fill="#1b1c20" d="m318.34 451.2c-1.74 6.71-8.62 12.47-15.34 13.41-0.2 0-0.39 0.59-0.78 0.59 0.58 0.97 2.69 0.77 3.66 0.19 1.54-0.97 3.26-1.54 4.76-2.1-0.74 6.7-5.73 12.64-11.66 16.09-0.58 0-1.15 0.59-1.75 0.2 0.8-4.21 6.55-4.99 6.74-9.59-5.57-1.74-10.95 1.15-15.53 3.45-0.59-0.18-2.32 0.18-2.13-1.35 5.19-1.71 5.97-8.24 11.52-9.39 5.95-1.91 13.24-2.48 16.47-9.01l3.08-4.4c0.76 0.19 0.57 1.13 0.96 1.91z"/>
		<path id="path2239" fill="#1b1c20" d="m308.92 450.26c-1.91 3.24-4.58 6.3-7.07 8.81-0.96 0.96-2.5 0.96-3.63 0.57-0.39-0.18-0.78-0.97-0.19-1.35 3.82-1.91 5.94-7.29 10.35-8.61l0.54 0.58z"/>
		<path id="path2241" fill="#1b1c20" d="m296.66 451.78c-0.74 3.26-5.16 3.43-6.29 6.71-0.98 0.39-2.71 0.58-3.08-0.2 0.93-3.08 4.79-3.83 5.92-6.7 0.78-0.78 3.1-1.17 3.45 0.19z"/>
		<path id="path2243" fill="#1b1c20" d="m269.65 451.41c0 1.35-0.59 3.05-1.93 3.8-0.76 0-1.72-0.37-1.52-1.14 0.39-1.54 2.1-2.87 3.45-2.66z"/>
		<path id="path2245" fill="#1b1c20" d="m285.36 453.3c-1.54 4.06-5.75 6.92-9.38 8.66-0.97 0-1.73 0.19-2.1-0.78 0.54-2.11 2.84-1.72 4.01-3.45 2.11-1.54 3.67-5.95 7.29-4.97l0.18 0.54z"/>
		<path id="path2247" fill="#1b1c20" d="m260.62 463.09c-1.71 2.11-4.6 3.63-7.46 2.88-0.59-0.39-1.35-0.21-1.35-0.95 2.3-1.54 5.58-2.13 8.25-2.5l0.56 0.57z"/>
		<path id="path2249" fill="#1b1c20" d="m284.4 469.05c-5.75 7.65-16.47 5.35-23 11.86-0.78 1.34-2.1 2.69-3.62 2.69 0-0.59 0-1.52 0.37-2.29 5.16-5.55 11.89-8.45 19.16-9.99 2.3-1.72 5.36-2.48 6.51-5.35 1.54 0.2 0.78 2.28 0.58 3.08z"/>
		<path id="path2251" fill="#1b1c20" d="m386.76 493.19l0.58-0.2c0.2-3.27-0.37-7.07 2.13-9.2 0.76 5.56 0.95 10.94-0.59 15.91-2.3-0.76-3.08-3.63-4.78-5.56-2.33-3.84-3.85-7.87-5.57-12.06l0.98-1.35c4.21 3.26 4.77 8.42 7.25 12.46z"/>
		<path id="path2253" fill="#1b1c20" d="m281.17 482.83c-0.8 1.74-3.47 1.16-4.82 2.68-0.17-0.36-0.76 0-1.15-0.18-0.41-1.54 0.59-2.5 1.74-3.25 1.32-0.59 3.62-0.77 4.23 0.75z"/>
		<path id="path2255" fill="#1b1c20" d="m316.21 485.51v0.19l-0.37-0.55 0.37-0.19c0.18 0.19 0 0.37 0 0.55z"/>
		<path id="path2257" fill="#1b1c20" d="m293.6 487.63c0.59 1.52 0.39 4.39 2.71 4.97 3.45-0.78 4.19-4.79 6.86-6.33 1.56 2.71-0.37 5.55-2.1 7.68-1.91 1.93-5.15 3.25-7.86 2.12-3.06-1.34-2.1-4.79-2.65-7.31 0.55-1.13 0.18-3.43 1.91-3.43l1.13 2.3z"/>
		<path id="path2259" fill="#1b1c20" d="m405.55 502.19c-0.96 7.1-1.35 13.8-3.45 20.51h-0.57c-1.73-4.02-4.01-8.23-4.42-13.02 0.41-0.98 1.75-0.98 1.93 0 1.34 1.13 1.15 2.69 2.1 4.01 2.11-3.25 0.39-8.81 3.65-11.69l0.76 0.19z"/>
		<path id="path2261" fill="#1b1c20" d="m482.23 507.38c0 0.37-0.37 0.37-0.57 0.37 0-0.37 0.37-0.37 0.57-0.37z"/>
		<path id="path2263" fill="#1b1c20" d="m181.86 514.08c-0.96 0.57-1.93 0.39-2.69-0.19-0.2-0.78 0.58-1.74 1.34-2.11 1.15 0.59 2.3 0.78 1.35 2.3z"/>
		<path id="path2265" fill="#1b1c20" d="m281.56 512.56c-0.22 3.06 3.99 7.27 0 9.55-3.67-2.28-8.87-0.93-12.3 0.59-5.17 2.3-5.36 9.96-11.11 11.11-0.2-3.06 2.1-5.73 4.03-8.42 3.82-1.72 4.6-5.56 4.78-9.01l1.54-1.34c1.15 0.76 1.15 2.49 1.34 3.84 3.43-0.2 1.52-5.19 4.58-6.14 1.37 1.15 1.93 3.06 1.93 4.99 3.45-0.41 1.35-4.8 4.41-5.95l0.8 0.78z"/>
		<path id="path2267" fill="#1b1c20" d="m244.72 517.73c0.58 0.37 0.21 0.95 0.21 1.52-1.17 1.34-3.45 0-4.99 0.95-4.4 2.69-10.56 5.19-15.53 2.69 3.43-1.54 7.66-1.91 11.13-3.82 2.86-0.58 6.12-4.6 9.18-1.34z"/>
		<path id="path2269" fill="#1b1c20" d="m320.83 521.18c-2.88 4.21-7.09 6.9-11.69 8.24-0.22-0.21-0.41-0.37-0.76-0.6 1.34-4.19 6.1-4.02 8.81-7.1l3.82-3.62c0.78 0.58 0.39 2.1-0.18 3.08z"/>
		<path id="path2271" fill="#1b1c20" d="m323.7 523.67c-0.57 4.41-5.36 4.97-8.07 7.45-0.35 0-1.15 0.58-1.33-0.18 1.33-4.23 5.75-5.36 8.64-7.85 0.37-0.2 0.76 0.39 0.76 0.58z"/>
		<path id="path2273" fill="#1b1c20" d="m169.38 526.56c0 0.74-0.74 1.52-1.32 1.13-0.98 0.19-1.17-0.39-1.17-0.98-0.18-1.52 2.32-1.32 2.49-0.15z"/>
		<path id="path2275" fill="#1b1c20" d="m504.08 526.34c0 0.22-0.18 0.22-0.18 0.37l-0.39-0.56c0.2 0 0.39 0 0.57 0.19z"/>
		<path id="path2277" fill="#1b1c20" d="m503.9 526.91c0.18 0.58-0.97 0.58-1.36 0.58-0.37 0.39 0.97-0.58 1.36-0.58z"/>
		<path id="path2279" fill="#1b1c20" d="m325.41 527.88c-0.93 2.69-2.84 4.41-5.16 5.73-0.76 0-1.33 0-1.72-0.54 1.13-1.37 1.52-3.28 3.45-3.86 0.2-1.13 1.33-1.33 2.3-1.72 0.37 0 0.94-0.19 1.13 0.39z"/>
		<path id="path2281" fill="#1b1c20" d="m188.17 529.99c0.39 0.76 0.39 2.3-0.56 2.88-3.08 1.52-5.56-1.75-8.64-1.52-0.39-0.6-0.56-1.75 0.39-2.3 3.06-2.34 5.56 1.13 8.81 0.94z"/>
		<path id="path2283" fill="#1b1c20" d="m209.85 530.75c-0.2 0.95 0.56 2.71-0.59 3.06-1.52 0-2.1-1.52-1.91-2.69 0-1.7 2.11-1.52 2.5-0.37z"/>
		<path id="path2285" fill="#1b1c20" d="m215.21 531.35c0 0.94 0.39 1.72-0.76 2.26-1.15 0.2-1.91-0.95-2.13-1.91-0.17-0.76 0.59-1.32 0.98-1.71 0.95-0.2 1.52 0.76 1.91 1.36z"/>
		<path id="path2287" fill="#1b1c20" d="m201.04 532.09c0 0.78-0.39 1.37-0.98 1.72-0.95-0.55-1.34-1.91-0.78-2.87 0.78-1.89 2.91 0 1.76 1.15z"/>
		<path id="path2289" fill="#1b1c20" d="m205.05 532.09c-0.39 0.57 0 1.72-1.15 1.72-1.34-0.2-0.78-1.91-0.95-2.87 0.95-1.73 1.91 0.18 2.1 1.15z"/>
		<path id="path2291" fill="#1b1c20" d="m328.88 531.53c-0.76 1.93-2.86 4.01-4.99 4.42-0.39 0-0.95-0.21-1.13-0.58 1.52-1.56 3.43-5.77 6.12-3.84z"/>
		<path id="path2293" fill="#1b1c20" d="m173.42 532.29c-0.57 0.78-0.76 2.69-2.3 2.1-0.76-0.19-1.35-1.32-1.35-1.91-0.17-0.58 0.2-1.13 0.59-1.36 1.32-0.18 2.69-0.18 3.06 1.17z"/>
		<path id="path2295" fill="#1b1c20" d="m332.16 534.2c-0.22 1.75-1.76 3.08-3.28 3.84-0.76 0-1.73 0.17-2.3-0.18 0.96-1.91 2.48-2.88 4.04-4.4 0.56-0.2 1.32 0.15 1.54 0.74z"/>
		<path id="path2297" fill="#1b1c20" d="m410.93 539.38c0 3.45 0.56 7.88-1.93 9.98-0.57-2.69-1.72-5.77-0.94-8.44 0-1.34-0.39-2.88 0.37-3.84 1.15 0.2 1.72 1.74 2.5 2.3z"/>
		<path id="path2299" fill="#1b1c20" d="m334.81 538.82c0 1.89-1.72 2.28-2.87 3.43-0.76 0-1.54 0.8-2.29 0.21-0.77-0.78 0.38-1.54 0.58-2.49 1.34-0.78 3.45-4.02 4.58-1.15z"/>
		<path id="path2301" fill="#1b1c20" d="m337.52 543.05c-0.6 1.52-2.32 2.84-3.84 3.04l-1.17-1.15c1.36-0.96 4.21-5.56 5.01-1.89z"/>
		<path id="path2303" fill="#1b1c20" d="m339.62 547.43c-0.79 0.96-2.1 2.28-3.27 1.15-0.76-0.58 0.21-1.15 0.37-1.73 0.8-0.57 3.64-1.54 2.9 0.58z"/>
		<path id="path2305" fill="#1b1c20" d="m341.92 549.93c0 0.95-1.15 1.69-1.93 1.91-0.74 0.39-1.54-0.39-1.54-0.96 0-0.58 0.8-1.34 1.35-1.52 0.76 0 1.73 0 2.12 0.57z"/>
		<path id="path2307" fill="#1b1c20" d="m404.79 552.23c0.19 0.76 0 1.93-1.15 1.93-0.98 0.17-1.15-0.78-1.35-1.37-0.19-0.74 0.59-1.34 0.96-1.71 0.76-0.2 1.15 0.76 1.54 1.15z"/>
		<path id="path2309" fill="#1b1c20" d="m343.83 553.38c0.57 1.32-0.56 2.1-1.54 2.49-0.93 0.2-1.73-0.19-2.12-0.97 0-0.96 0.99-1.13 1.75-1.52 0.77 0.19 1.35-0.39 1.91 0z"/>
		<path id="path2311" fill="#1b1c20" d="m402.1 557.22c-0.37 0.37-0.96 0.37-1.52 0.37-1.15-0.59-0.39-1.72-0.59-2.5 0.96-1.52 3.08 0.78 2.11 2.13z"/>
		<path id="path2313" fill="#e51819" d="m224.6 618.95c-2.12-1.56-6.53 0.35-6.92-2.15 0.39-0.17 1.95-1.13 2.32-1.89 0-1.15 1.15-0.95 1.15-1.93l-0.95-3.08c0.19 0 0.37-0.17 0.56-0.39l-0.19-0.15c0.19-0.61 0.78 0.37 1.15 0.74-0.18 0.21 0.58 1.36 1.34 1.36 1.93-0.78 3.84-1.73 5.97-1.56 1.52 0.98 1.71 2.5 1.91 4.06-1.17 0.74 0.19 2.49-0.78 3.62l-5.56 1.37z"/>
		<path id="path2315" fill="#ffe900" d="m228.23 647.48c0.21-2.84 0-4.97-2.28-6.7-1.91-1.72-4.41-2.87-6.9-1.72l-2.13-7.48c3.47 0.58 6.14-2.5 7.68-5.38 0.39-2.3 2.67-5.56 0-7.25l5.56-1.37c1.15 2.3 3.66 4.21 6.33 4.8 0.18 2.69 2.87 1.17 4.39 1.52 2.88-2.5 4.05-6.32 7.68-7.86 5.94-3.25 14.01-1.54 19.37-5.73 2.28-2.32-0.39-5.38-1.34-7.87-1.74-2.28-3.67-5.56-1.93-8.64 1.73-4.01 6.7-4.97 8.85-8.81-0.63-2.47-2.54-4.6-1.37-7.48-0.37-1.13-1.73-1.72-2.88-1.52-0.96 3.08-3.84 0.97-5.17 3.45-3.25 0.76-7.27 0.95-10.17-0.76-1.13-1.72-2.67-2.5-2.48-4.8 0.37-1.15 0.96-2.1 2.3-2.1 0.37 0 0.76 0 0.96 0.39-1.54 0.93-0.41 2.3 0.19 3.23 1.33 1.35 3.26 0 4.8-0.37 4.79-3.25 10.91-8.81 16.66-4.58 1.74 0.94 3.65-1.73 4.41 1.13 1.34 0.98 2.32-0.93 3.25-1.54 1.93-3.99 5.95-6.12 9.77-7.27 4.25 0.94 9.39 0 13.45 1.33 1.5-0.39 3.41-0.94 4.97-0.59 1.17 2.54 0.58 5.6 2.1 8.07 1.33 1.15 2.69 2.69 4.43 2.48 0.93-1.15-0.98-2.48-0.98-4.02 0.2-2.67-1.15-4.99-2.47-7.07 0.56-0.78 1.11-1.93 2.1-1.74h0.37c-0.76 4.21 2.11 7.66 5.19 9.79 0.76-0.22 1.54 1.15 2.1 0-0.76-3.26-3.84-4.97-3.45-8.46 0.2-1.52-1.54-3.8 1.17-4.02h0.94c0.19 2.3 0.19 5.75 2.69 7.29 0.95 0.76 2.12 1.93 3.47 1.17 0.76-1.56-1.17-3.29-1.74-4.81-0.21-2.3-0.39-4.41-1.93-5.95l0.96-0.95c1.73 1.32 3.62 2.69 5.36 4.79 2.3 2.11 2.1 4.97 3.27 7.68 0.57 2.48 0.94 5.56 1.33 8.62-1.71 3.23-4.95 4.79-8.6 5.57-3.29 2.26-6.53 5.15-10.76 5.73-3.84 3.06-9.02 4.6-11.87 9.01 0-2.11 0.57-4.8-1.36-6.51-1.91-0.2-1.72 1.52-2.3 2.49-1.52 6.71 0.58 13.02-3.06 18.95-0.18 0.21-0.37 1.36-0.94 0.78-2.88-4.99-0.19-11.48-2.3-16.45-1.34 1.13-0.78 3.62-1.73 5.14-1.17 8.07-1.17 16.69 0 24.56 0.56 1.33 1.52 2.3 2.67 3.04-4.99 4.43-8.23 10.74-6.9 17.23 0.19 3.1 0.6 7.51-2.3 9.59-2.3-2.26-2.48-5.34-1.91-8.4 0-1.54 2.69-3.64 0-4.42-1.15 0.95-2.3 2.69-2.5 4.21-1.91 4.05-1.69 9.2-5.94 11.89h-1.33c-0.78-4.99-0.58-9.2 2.11-13.41 0.37-0.74 1.91-1.15 1.32-2.5-0.37-0.58-1.15-0.78-1.91-0.37-2.3 4.97-5.55 9.59-7.09 14.76-0.76 1.89-1.91 4.21-3.82 5.16-1.93-2.3-1.17-5.73-0.2-8.24 0-2.28 3.06-4.6 0.57-6.51-4.39-0.96-4.78 3.82-7.66 5.94-1.15 1.15-2.67 2.48-4.6 2.11-1.35-3.45 4.99-6.34 0-8.83-2.3-0.74-3.84 2.49-5.97 3.47-1.52-0.78-3.23-2.3-5.16-1.52-2.09 1.13-4.8 1.32-6.71 2.1-2.28-0.97-2.84 1.72-4.6 2.3l-4.03-5.77z"/>
		<path id="path2317" fill="#e51819" d="m232.26 653.25c-0.58 1.91-0.76 3.45-0.19 5.54-0.57 0.58-0.18 1.34-0.94 1.34l-3.66-1.89c-4.02 0.35-4.99 5.73-7.84 6.12-1.56-1.17 0.76-3.66 0.57-5.77h0.19c0.37-1.71-1.15-3.82 0.57-5.34l3.25 0.37c2.3-1.52 4.02-3.25 4.02-6.14l4.03 5.77z"/>
		<path id="path2319" fill="#e51819" d="m219.05 639.06c-2.13 0.37-4.8 1.91-7.1 0.37-2.69-0.56 0.37-3.64-2.1-4.01-2.32-0.59-4.99 1.34-6.9-0.22 1.13-1.91 5.73-0.74 5.55-3.43 0.57-0.97 2.11-3.25 3.82-4.03 3.08-0.57 2.3 3.25 4.6 3.84l2.13 7.48z"/>
		<path id="path2321" fill="#1b1c20" d="m345.37 558.54c0.37 1.93-0.79 3.45-1.73 4.43-0.95-1.17-1.54-3.08-1.17-4.8 0.41-1.17 2.9-0.95 2.9 0.37z"/>
		<path id="path2323" fill="#1b1c20" d="m399.62 559.5c0 1.13-1.17 0.97-1.93 1.13-0.76 0-1.34-0.35-1.34-1.13-0.18-1.13 0.97-1.33 1.56-1.72 0.76 0 2.28 0.39 1.71 1.72z"/>
		<path id="path2325" fill="#1b1c20" d="m395.59 561.8c-0.39 0.76-0.96 1.91-1.91 1.71-0.57 0-1.35-0.74-1.35-1.32-0.19-0.74 0.78-1.35 1.13-2.11 1.17 0 2.32 0.55 2.13 1.72z"/>
		<path id="path2327" fill="#1b1c20" d="m390.03 563.71c-0.39 0.78-0.39 2.34-1.72 2.12-0.77 0-0.97-0.95-1.16-1.73 0-0.59 0.58-1.13 1.16-1.54 0.77 0 1.53 0.41 1.72 1.15z"/>
		<path id="path2329" fill="#1b1c20" d="m407.28 564.29c0.39 1.54-1.54 1.15-2.3 0.76-0.19-0.56-0.58-1.89 0.39-2.49 0.96 0.21 1.15 1.36 1.91 1.73z"/>
		<path id="path2331" fill="#1b1c20" d="m385.24 564.68c0 0.76 0.17 1.72-0.57 2.11-1.15 0.21-1.93-0.74-2.12-1.74-0.18-0.56 0.19-1.34 0.76-1.54 0.79 0.2 1.93 0.2 1.93 1.17z"/>
		<path id="path2333" fill="#1b1c20" d="m380.05 565.64c0.2 0.95 0 1.73-0.94 1.93-1.16 0.37-1.36-0.98-1.73-1.52-0.37-1.95 2.48-2.13 2.67-0.41z"/>
		<path id="path2335" fill="#1b1c20" d="m355.71 565.64c0.6 0.76 0 1.54-0.75 1.54-0.97 0.58-1.93-0.18-2.9-0.39-0.94-0.74-0.19-1.91 0.41-2.3 1.33-0.2 2.3 0.56 3.24 1.15z"/>
		<path id="path2337" fill="#1b1c20" d="m402.88 566.79c0 0.39-0.39 0.97-0.78 1.15-0.57-0.18-1.15-0.37-1.52-0.94 0-0.41-0.39-1.36 0.37-1.36 0.97-0.39 1.54 0.41 1.93 1.15z"/>
		<path id="path2339" fill="#1b1c20" d="m298.59 568.72c0.39 0.76-0.37 1.32-0.97 1.73-0.76 0-1.91-0.21-1.7-1.17 0-0.76-0.41-2.1 0.74-1.91 0.96 0 1.93 0.39 1.93 1.35z"/>
		<path id="path2341" fill="#1b1c20" d="m305.51 568.89c0 1.15-1.36 1.56-2.14 2.13-1.15 0-2.87 0.17-2.67-1.54-0.2-0.96 0.37-1.17 0.97-1.37 1.33 0.2 3.06-0.17 3.84 0.78z"/>
		<path id="path2343" fill="#1b1c20" d="m294.58 570.24c0 0.95-0.98 1.15-1.74 1.54-0.97 0.19-1.17-0.76-1.73-1.33 0-0.97 0.56-1.56 0.97-2.14 1.33-0.37 2.87 0.41 2.5 1.93z"/>
		<path id="path2345" fill="#1b1c20" d="m357.25 570.45c0 0.74-0.4 1.33-0.94 1.52-1.17 0-2.12-0.19-2.89-1.17-0.19-0.56 0.18-0.93 0.77-1.32 1.14 0.19 2.49-0.2 3.06 0.97z"/>
		<path id="path2347" fill="#1b1c20" d="m376.02 573.69c0 0.78-0.57 0.78-1.12 1.34-0.6 0-1.34 0.2-1.34-0.56-0.41-0.98 0.37-1.37 0.94-1.56 0.6 0 1.52 0 1.52 0.78z"/>
		<path id="path2349" fill="#1b1c20" d="m282.67 575.99c0 1.71-1.91 1.93-3.06 2.86-1.52-0.93-3.63 1.74-4.02-0.74 0.59-3.47 4.78-1.36 6.32-4.05 1.17 0 0.56 1.17 0.76 1.93z"/>
		<path id="path2351" fill="#1b1c20" d="m358.22 575.6v1.36c-1.37 0.37-2.51-0.21-3.45-0.97-0.58-0.59-0.37-1.72 0.56-1.72 1.15-0.21 2.29 0.2 2.89 1.33z"/>
		<path id="path2353" fill="#1b1c20" d="m331.18 576.57c0 0.94-0.19 1.91-1.15 2.28-0.78 0-1.15-0.74-1.15-1.52 0.57-0.58-0.58-2.1 0.77-1.93 0.58 0.2 1.53 0.2 1.53 1.17z"/>
		<path id="path2355" fill="#1b1c20" d="m377.01 576.38c0.37 0.78-0.8 1.54-1.35 1.73-0.76-0.19-1.36 0.37-1.73-0.41-0.58-1.91 1.91-1.91 3.08-1.32z"/>
		<path id="path2357" fill="#1b1c20" d="m326.58 579.61c0.2 0.78-0.39 1.56-1.36 1.37-0.74 0.19-0.94-0.78-1.13-1.15-0.59-2.32 2.69-2.13 2.49-0.22z"/>
		<path id="path2359" fill="#1b1c20" d="m358.01 579.61c0.21 1.37-1.33 1.95-2.3 2.52-0.75 0.17-0.94-0.78-1.31-1.35 0.37-0.95 0.37-2.1 1.52-2.49 0.93 0 1.7 0.39 2.09 1.32z"/>
		<path id="path2361" fill="#1b1c20" d="m378.14 580.78c-0.76 1.35-2.3 1.91-3.45 0.78-0.39-0.39-0.76-0.78-0.58-1.17 0.79-0.95 2.1-0.95 2.9-0.56 0.37 0.37 0.94 0.56 1.13 0.95z"/>
		<path id="path2363" fill="#1b1c20" d="m321.79 581.17c0 0.78-0.59 1.72-1.35 1.72-0.58-0.2-1.52-0.37-1.34-1.33-0.18-0.78 0.19-1.52 0.95-1.73 0.96-0.22 1.35 0.56 1.74 1.34z"/>
		<path id="path2365" fill="#1b1c20" d="m306.82 580.78c-0.2 1.35-1.5 2.69-2.48 3.08-0.56-1.56 0.18-3.08 1.17-4.03 0.55 0 1.11 0.37 1.31 0.95z"/>
		<path id="path2367" fill="#1b1c20" d="m317.38 583.08c-0.19 0.78 0.2 1.33-0.56 1.72-0.98 0.19-1.74-0.39-2.11-1.15-0.41-0.76 0.37-1.35 0.92-1.7 0.76-0.19 1.75 0.18 1.75 1.13z"/>
		<path id="path2369" fill="#1b1c20" d="m378.14 583.86c0.39 1.52-1.34 1.33-2.12 1.72-0.75 0.19-1.12-0.39-1.52-0.78 0-0.74 0.19-1.52 0.95-1.72 0.98 0 2.13-0.19 2.69 0.78z"/>
		<path id="path2371" fill="#1b1c20" d="m313.37 585.58c-0.39 0.39-0.98 0.97-1.56 0.56 0-0.76-1.17-1.34-0.57-2.08 0.76-1.76 3.06 0 2.13 1.52z"/>
		<path id="path2373" fill="#1b1c20" d="m280.37 585.58c0.97 3.04-2.67 4.03-3.06 6.53-0.96 0.56-0.96-0.76-1.33-1.15-1.19-2.71 1.72-4.41 2.48-6.55 0.95 0 1.54 0.39 1.91 1.17z"/>
		<path id="path2375" fill="#1b1c20" d="m310.48 586.14c0 0.76-0.58 1.15-1.15 1.37-0.78 0.17-0.78-0.78-1.34-1.19 0-1.7 2.49-2.26 2.49-0.18z"/>
		<path id="path2377" fill="#1b1c20" d="m354.96 586.32c-1.73 1.36 0.18 3.29-1.73 4.64-2.69 0.56-0.57 3.45-2.87 4.4-1.18-0.78-3.45 0-3.64-1.91-0.41-2.1 2.67-2.1 2.1-4.25 0.76-1.69 3.84-1.13 3.05-3.62 0.97-0.96 2.9-0.78 3.09 0.74z"/>
		<path id="path2379" fill="#1b1c20" d="m298.03 586.73c0.56 2.28-0.98 3.64-2.32 4.97-1.33-0.35 0-2.3-1.13-2.87 0.56-1.15 1.91-5.75 3.45-2.1z"/>
		<path id="path2381" fill="#1b1c20" d="m378.53 588.07c-0.95 1.54-2.32 2.89-4.23 3.08-0.74 0-1.93 0.2-1.93-0.78 0.78-2.3 3.65-2.49 5.97-2.86l0.19 0.56z"/>
		<path id="path2383" fill="#1b1c20" d="m280.37 595.56c0 4.6-5.17 2.45-7.84 4.01-0.76-0.58-0.19-1.73 0.35-2.1 1.74-1.17 4.43-0.39 5.21-3.06 0.95-0.61 2.28-0.22 2.28 1.15z"/>
		<path id="path2385" fill="#1b1c20" d="m377.95 595.17c-0.94 2.3-3.26 2.84-5.58 3.06-0.76-0.39-2.1-0.96-1.13-2.13 1.91-1.13 4.21-0.74 6.14-1.91 0.57-0.19 0.96 0.39 0.57 0.98z"/>
		<path id="path2387" fill="#1b1c20" d="m351.32 601.09c0 0.78-0.96 1.17-1.56 1.17-1.13 0.37-2.11-0.39-2.85-0.78-0.4-0.56-1.17-1.32-0.6-2.3 1.93-1.54 4.23 0 5.01 1.91z"/>
		<path id="path2389" fill="#1b1c20" d="m377.38 600.16c-0.37 2.86-3.82 3.04-5.94 4.21-0.59 0.19-1.17-0.22-1.35-0.8 0.96-3.41 4.81-2.87 7.29-3.41z"/>
		<path id="path2391" fill="#1b1c20" d="m276.94 603.39c0 3.67-1.35 6.92-3.67 9.59-0.58 0-1.13 0.59-1.91 0.18-0.19-1.33 1.17-2.28 1.52-3.65 1.54-2.45-0.19-6.31 2.13-8.03 0.97 0 1.54 1.15 1.93 1.91z"/>
		<path id="path2393" fill="#1b1c20" d="m376.43 607.06c-2.32 1.69-4.43 4.4-7.29 3.25-0.59-0.58-0.59-1.56 0-1.93 2.3-0.97 4.97-1.52 7.29-2.1v0.78z"/>
		<path id="path2395" fill="#1b1c20" d="m376.62 611.83c-1.52 2.28-4.03 4.97-7.1 4.62-0.38-0.41-0.58-1.17-0.38-1.75 1.91-2.11 5.16-1.54 7.29-3.24l0.19 0.37z"/>
		<path id="path2397" fill="#1b1c20" d="m398.28 617.39c-0.37 2.88-3.65 5.18-4.99 7.87 2.3 0.76 4.03-1.36 6.51-0.78-0.76 2.69-3.45 4.21-6.12 4.6 1.52 1.15 4.4-0.19 5.36 1.33-0.96 2.88-3.65 2.12-5.75 2.71-0.96 0-1.35-0.59-2.11 0-0.19 0.95 0.96 0.95 1.35 1.34 0.58 0 1.32-0.19 1.71 0.18-0.78 2.88-4.77 0.56-4.99 4.03-0.94 1.13-1.91-0.19-2.86-0.39-1.91 0.59-4.43 0.94-5.75 2.87 1.13 0.78 2.49 2.49 3.84 3.64-0.2 0.96 0.38 2.5-0.38 3.08-2.14-2.49-5.96-1.95-7.09-5.18-0.21-1.33 0-3.26 1.33-4.41 4.03-3.27 12.43-4.01 11.69-10.91-2.3-0.59-5.36 0-5.93-3.08l0.18-0.57c5.56 0.76 9.78-2.67 13.41-6.53l0.59 0.2z"/>
		<path id="path2399" fill="#1b1c20" d="m272.88 618.36c0.2 0.94-0.54 1.7-1.3 2.11-0.78 0-2.13 0.37-1.74-0.96 0.37-0.8 0.37-1.93 1.52-1.93 0.78-0.19 1.33 0.39 1.52 0.78z"/>
		<path id="path2401" fill="#1b1c20" d="m257.78 620.06c-2.69 4.62-8.83 2.71-11.91 6.92-1.72 1.54-2.48 3.06-4.02 4.6l-0.37-0.2c1.13-4.4 3.82-9 8.42-10.54 2.5 1.54 1.72-1.72 3.84-1.54 1.54 0 3.08-0.35 4.04 0.76z"/>
		<path id="path2403" fill="#1b1c20" d="m268.5 622.38c-0.57 0.39-1.72 0.39-2.5 0-0.41-0.2 0-0.78-0.19-1.15 0.78-1.93 4.23-0.96 2.69 1.15z"/>
		<path id="path2405" fill="#1b1c20" d="m265.05 622.18c0.17 1.37-1.15 2.3-2.13 2.5h-1.34c-0.18-1.13 0.19-2.11 0.6-3.08 0.94-0.55 3.04-1.13 2.87 0.58z"/>
		<path id="path2407" fill="#1b1c20" d="m361.46 623.9c0 1.17 0 2.49-1.33 2.3-0.95-0.39-2.51-1.13-1.35-2.48 0.4-1.34 2.5-1.54 2.68 0.18z"/>
		<path id="path2409" fill="#1b1c20" d="m231.5 623.9c0 1.17-0.56 2.49-1.54 2.88-0.76 0.2-1.34-0.39-1.73-1.13 0.6-0.97 1.93-3.86 3.27-1.75z"/>
		<path id="path2411" fill="#1b1c20" d="m361.07 631.38c0 0.96 0 1.91-1.13 2.11-0.59-0.2-1.53-0.55-1.53-1.33 0.18-0.78 0.37-1.56 1.14-1.75 0.77-0.18 0.97 0.58 1.52 0.97z"/>
		<path id="path2413" fill="#1b1c20" d="m234.58 639.22c0 1.56 0.96 4.05-0.76 5.18-0.8 0.59-1.75 0.98-2.88 1.17-1.17-2.3 2.08-4.6 0-7.09-1.91-2.48-4.99-2.48-7.49-3.47 0-1.13 1.74-1.33 2.87-1.33 3.64-0.39 6.92 2.11 8.26 5.54z"/>
		<path id="path2415" fill="#1b1c20" d="m361.46 638.09c0.19 0.78-0.57 0.97-0.94 1.34-0.97-0.21-1.93-0.95-1.74-1.91 0.4-1.93 2.5-1.17 2.68 0.57z"/>
		<path id="path2417" fill="#1b1c20" d="m361.07 645.18c0.39 1.54-1.31 0.98-2.29 1.15-0.77 0-1.16-0.76-1.34-1.34 0.18-0.76 0.18-1.72 1.34-1.72 0.98-0.19 1.74 1.13 2.29 1.91z"/>
		<path id="path2419" fill="#1b1c20" d="m241.85 644.4c-0.19 1.93-2.49 3.08-3.82 3.67-1.17 0-2.49 0-3.08-1.17-0.37-1.91 1.72-0.57 2.67-1.52 1.15-1.15 3.08-2.87 4.23-0.98z"/>
		<path id="path2421" fill="#1b1c20" d="m361.28 650.37c0.18 1.13-1.52 1.73-2.1 2.49-1.35 0.57-3.08 0.39-4.04-0.19-0.74-0.39-0.37-1.37-0.37-1.93 1.54-1.54 4.01-0.57 6.12-0.96l0.39 0.59z"/>
		<path id="path2423" fill="#1b1c20" d="m363.97 663.19c-0.58 0.78-0.58 2.3-2.11 1.91-0.58 0-0.97-0.56-0.97-1.13 0.39-0.97 0.57-2.1 1.71-2.3 0.96-0.19 0.96 0.98 1.37 1.52z"/>
		<path id="path2425" fill="#1b1c20" d="m361.65 667.81c0.21 0.57-0.58 0.96-0.96 1.15-0.75 0-1.91 0-1.91-0.97 0-0.74 0.4-1.52 0.98-1.91 0.93 0.19 1.52 0.78 1.89 1.73z"/>
		<path id="path2427" fill="#1b1c20" d="m359.94 672.41c0.38 0.57-0.39 0.96-0.98 0.78-1.13-0.21-3.04-0.99-2.11-2.71 1.16-1.91 3.28 0.57 3.09 1.93z"/>
		<path id="path2429" fill="#1b1c20" d="m357.62 676.04c0 0.76-0.77 1.34-1.31 1.73-0.78 0-1.54-0.39-1.74-1.15-0.38-0.97 0.57-1.54 1.14-1.91 0.97-0.19 2.3 0.18 1.91 1.33z"/>
		<path id="path2431" fill="#1b1c20" d="m350.54 685.82c-0.39 0.2-0.78 1.35-1.72 1.15-0.58 0-0.78-0.37-0.97-0.95 0.39-0.98 2.51-1.74 2.69-0.2z"/>
		<path id="path2433" fill="#e51819" d="m229.71 420.01c0.08-0.11 0.27-0.43 0.21-0.54-0.07-0.28-0.48-0.47-0.68-0.61-0.23-0.17-0.49-0.37-0.74-0.54-0.25-0.22-0.39-0.45-0.56-0.69-0.22-0.23-0.51-0.38-0.71-0.6-0.48-0.45-0.87-0.92-1.42-1.31-0.41-0.31-0.49-0.35-0.88-0.19-0.37 0.19-0.66 0.27-0.91 0.6-0.45 0.55-1 1-1.42 1.58-0.47 0.61-0.73 1.04-1.54 1.13-0.78 0.08-1.56 0.2-2.36 0.28-0.76 0.07-1.64 0.17-2.38 0.46-0.37 0.16-1.03 0.43-0.49 0.78 0.33 0.26 1.09 0.34 1.07-0.29 0.65 0.33 0.22 0.64 0.02 1.03 0.65 0.41 1.35 0.59 1.72 1.33 0.13 0.29 0.17 0.64 0.21 0.95 0.06 0.39 0 0.71-0.04 1.08-0.05 0.82-0.21 1.42 0.02 2.22 0.22 0.7 0.76 1.21 1.45 1.21 0.41 0.04 0.58 0 0.85-0.24 0.31-0.33 0.49-0.43 0.9-0.5 0.66-0.16 1.19-0.74 1.77-1.02 0.59-0.27 1.21-0.82 1.84-0.85 0.37-0.04 2.24 0.37 2.08-0.28-0.04-0.13-0.25-0.23-0.33-0.33-0.16-0.17-0.21-0.33-0.29-0.54-0.1-0.36-0.12-0.84 0.08-1.23 0.05-0.14 0.21-0.24 0.29-0.35 0.13-0.24 0.17-0.43 0.35-0.61 0.29-0.35 0.76-0.25 1.05-0.52 0.37-0.32 0.61-1.02 0.84-1.41z"/>
	</g>
</svg>
