<?xml version="1.0" encoding="utf-8"?>
<!-- Generator: Adobe Illustrator 14.0.0, SVG Export Plug-In . SVG Version: 6.00 Build 43363)  -->
<!DOCTYPE svg PUBLIC "-//W3C//DTD SVG 1.1//EN" "http://www.w3.org/Graphics/SVG/1.1/DTD/svg11.dtd">
<svg version="1.1" id="레이어_1" xmlns="http://www.w3.org/2000/svg" xmlns:xlink="http://www.w3.org/1999/xlink" x="0px"
	 y="0px" width="128px" height="128px" viewBox="0 0 128 128" enable-background="new 0 0 128 128" xml:space="preserve">
<g>
	<path fill="#BD1339" d="M76.12,17.62c0.238,0.372,0.55,0.703,0.585,1.075c0.354,1.087,1.36,1.739,1.484,2.85
		c0.042,0.369,0.522,0.516,0.773,0.681c0.271,0.346,0.081,0.738,0.604,1.251c0.249,0.162,0.06,0.555,0.102,0.926
		c0.248,0.162,0.507,0.326,0.752,0.487c2.255,3.531,2.475,7.627-0.142,11.427c-0.418,0.414-0.815,1.011-0.986,1.588
		c-0.213,0.208-0.65,0.437-0.863,0.644c0.041,0.375,0.291,0.534,0.561,0.883c-1.129,0.294-1.258,1.237-2.122,1.886
		c-0.228,0.018-0.688,0.064-0.92,0.084c-0.634,0.619-1.305,0.87-1.957,1.306c-0.206,0.208-0.149,0.765-0.127,0.947
		c-1.07,0.849-2.646,1.373-4.283,1.337c-0.228,0.025-0.398,0.601-0.63,0.621c-1.155,0.111-2.558,0.054-3.713,0.162
		c-0.482-0.141-0.753-0.487-1.237-0.633c-0.46,0.046-0.921,0.087-1.406-0.052c-0.751-0.495-1.692-0.59-2.431-0.895
		c-0.481-0.146-1.365,0.31-1.864-0.013c-1.55-1.357-3.095-2.701-3.949-4.123c-0.565-0.88-1.529-1.162-1.863-2.068
		c-0.038-0.372,0.135-0.947-0.354-1.088c-0.966-0.287-0.562-0.885-0.621-1.439c-0.294-0.534-0.338-0.903-0.856-1.419
		c-0.294-0.534,0.083-1.319-0.224-2.035c-0.021-0.187,0.188-0.396,0.169-0.58c-0.353-1.09,0.218-2.263,0.115-3.189
		c-0.065-0.554,0.088-1.321,0.254-1.896c0.571-1.178,1.121-2.54,2.152-3.759c-0.022-0.18-0.063-0.549-0.082-0.738
		c0.211-0.21,0.44-0.227,0.651-0.439c0.359-0.965,0.736-1.75,1.353-2.555c0.816-1.011,2.122-1.883,3.175-2.917
		c0.627-0.619,1.512-1.075,2.101-2.071c0.213-0.205,0.946,0.101,1.159-0.102c0.628-0.624,1.574-0.523,2.225-0.96
		c0.648-0.431,0.519,0.511,1.19,0.262c0.464-0.043,0.67-0.249,1.114-0.479c0.669-0.246,1.425,0.239,2.14,0.364
		c0.689-0.069,1.404,0.056,2.158,0.543c1.004,0.654,3.313,0.434,3.686,1.714C74.555,16.088,75.557,16.743,76.12,17.62z"/>
	<path fill="#008BD0" d="M115.186,32.268c-0.026-0.581,0-0.931-0.23-1.54c-0.063-0.577,0.392-1.221,0.194-2.012
		c-0.133-0.212-0.426-0.464-0.39-0.641c0.39-1.216,0.421-2.33,0.323-3.653c-0.1-0.398-0.228-0.611-0.359-0.829
		c0.031-0.177,0.098-0.536,0.165-0.893c0.028-1.11-0.329-1.934-0.654-2.94c-0.1-0.39-0.394-0.644-0.457-1.216
		c-0.132-0.213-0.426-0.469-0.397-0.647c0.295-1.614-0.489-2.904-0.719-4.443c-0.362-1.755-2.023-2.864-2.55-4.654
		c0.027-0.183,0.571-0.106,0.735-0.068c1.308,1.217,2.749,2.648,3.107,4.404c0.229,0.613,0.132,1.146,0.396,1.581
		c1.107,1.356,1.306,3.079,1.503,4.797c-0.029,0.182,0.327,0.072,0.457,0.292c-0.031,0.174-0.098,0.534,0.033,0.749
		c0.85,0.929,0.328,1.932,0.494,2.902c0.099,0.395,0.225,0.608,0.355,0.821c-0.031,0.182-0.453,0.652-0.489,0.826
		c0.691,0.896,0.982,2.081,0.79,3.153c0.784,0.362,0.425,1.396,0.619,2.187c0.126,0.215,0.297,0.25,0.46,0.287
		c0.224-0.323,0.452-0.646,0.52-1.006c0.1-1.468,0.164-2.758-0.101-4.118c-0.227-0.608-0.298-1.183,0.13-1.646
		c-0.327-0.072-0.428-0.47-0.556-0.686c-0.587-2.365-0.835-5.013-1.533-7.432c0,0,0.193-0.142,0.231-0.318
		c-0.248-2.117-1.86-4.111-2.625-6.245c-0.121-0.382-0.742-0.836-1.031-1.247c0,0,0.02-0.18,0.04-0.362
		c0.827,0.116,1.457,0.914,1.891,1.529c0.861,1.224,1.856,2.582,2.116,3.941c0.458,1.216,1.133,2.504,1.405,3.689
		c0.179,0.79,0.756,1.308,1.135,1.965c0.217,0.616,0.106,1.147,0.16,1.722c0.234,1.368,0.653,2.692,0.907,4.059
		c0.328,0.998,0.466,2.145,0.133,3.007c-0.451,1.576,0.593,3.297,1.017,4.693c0.23,0.61-0.061,1.291-0.321,1.793
		c-0.032,0.177,0.261,0.431,0.226,0.608c-0.294,0.677-0.062,1.29-0.197,2.009c-0.192,0.141,0.232,0.606,0.006,0.926
		c-0.198,0.146-0.358,0.11-0.558,0.257c-0.26,0.498-0.029,1.111-0.131,1.647c-0.521,1-0.259,2.363-1.238,3.081
		c-0.36,0.103-0.396,0.285-0.588,0.431c0.161,0.034,0.294,0.25,0.423,0.465c-0.195,0.141-0.362,0.104-0.554,0.25
		c-0.063,0.356,0.628,0.797,0.763,1.01c-0.266,1.437-1.339,2.688-1.308,4.375c-0.064,0.359-0.164,0.896-0.224,1.255
		c-0.33,0.859-0.95,1.47-1.277,2.327c-0.063,0.356-0.748,0.397-0.814,0.754c-0.427,0.464-0.388,1.216-0.688,1.898
		c-0.227,0.323-0.718,0.218-1.109,0.5c-0.454,0.644-0.392,1.219-0.683,1.901c-0.491,0.823-1.088,1.709-1.575,2.532
		c-0.554,1.186-1.491,2.324-2.499,3.22c-0.166-0.033-0.525,0.072-0.722,0.219c-0.521,1-1.117,1.757-2.226,2.258
		c-0.166-0.034-0.411,0.746-0.606,0.891c-0.767,0.568-1.208,1.215-2.134,1.754c-0.348,0.107-0.54,0.252-0.928-0.395
		c-1.208,2.154-2.833,3.838-4.594,5.308c-0.917,0.538-1.853,0.478-2.462,1.081c-2.002,1.978-5.192,4.068-5.555,4.361
		c-0.152-0.039-0.764,0.877-0.764,0.877c-0.651,0.057-0.278,0.115-0.876-0.023c0,0-0.026,1.012-0.843,1.176
		c-1.724,0.344-2.178,2.345-2.313,3.174c-0.068,0.41-0.354,0.128-0.552,0.297c-0.196,0.168-0.066,0.408-0.263,0.58
		c-0.748,0.462-1.396,1.383-2.02,2.088c-0.192,0.168-0.321-0.082-0.519,0.091c-0.198,0.163-1.112,1.303-1.44,2.299
		c-0.786,1.744-1.645,3.308-2.726,4.541c-0.264,0.3,0.61,1.468,0.546,1.862c-0.25,0.552-0.746,0.645-0.99,1.193
		c-0.228,1.373-0.289,2.895-0.523,4.344c-0.393,1.416,0.094,2.422,0.286,3.684c0.214,1.063-0.057,2.436-0.003,3.467
		c0.076,0.832,0.642,1.742,0.551,2.55c0.031,1.239-0.254,1.073,0.015,2.114c-0.035,0.61-0.235,1.209-0.096,1.627
		c-0.049,0.818-0.179,1.322-0.224,2.137c-0.175,0.195-0.53,0.58-0.539,0.783c-0.123,2.037-1.458,3.833-2.854,5.17
		c-0.863,0.555-1.615,1.403-2.605,1.332c-0.493-0.029-2.151,1.018-2.702,1.148c-1.467,0.416-2.636,0.424-4.037,0.23
		c-1.551-0.423-2.777-0.811-3.842-2.396c-0.634-0.706-1.728-0.442-2.135-1.528c-0.125-0.428-1.019-0.65-1.17-0.876
		c-0.808-0.731-1.238-1.614-1.847-2.519c-0.41-1.081-0.112-1.822-0.601-2.871c-0.512-0.647-0.73-1.102-1.236-1.748
		c-0.674-0.854,0.157-2.084-0.338-2.928c-0.351-0.225-0.686-0.654-0.848-1.074c-0.323-0.84-0.249-2.051-0.749-2.936
		c-0.269-1.063-0.097-4.9,0.104-5.935c0.042-0.21-0.556-0.5-0.521-0.714c0.081-1.486,0.599-2.934,0.479-4.471
		c0.161-0.826,0.083-1.488,0.833-2.193c0,0-0.354-0.288-0.318-0.496c0.434-1.203,0.432-2.125,0.665-3.371
		c0.038-0.207,0.479-0.333,0.521-0.541c-0.243-0.911-0.255-2.764-0.097-3.596c0.078-0.415,1.15-1.031,1.396-1.405
		c0.036-0.202-0.154-0.736,0.247-1.452c0.104-0.177,0.385-0.123,0.589-0.287c0.034-0.211-0.102-0.457-0.065-0.664
		c0.102-0.619,1.151-1.068,1.223-1.48c0.416-1.409,1.125-1.996,1.862-3.143c0.271-0.501,0.372-1.04,0.807-1.504
		c0.197-0.145,0.295-0.006,0.328-0.186c0.035-0.18-0.061-0.576-0.033-0.752c0.417-0.469,0.989-0.897,1.085-1.436
		c0.289-0.683,0.544-1.184,0.959-1.652c0.766-0.57,1.529-1.147,2.008-1.969c0.414-0.469,0.892-0.358,1.31-0.826
		c0.604-0.61,0.766-1.503,1.212-2.146c1.053-1.261,2.199-2.119,3.35-2.979c0.952-0.721,2.169-1.006,3.092-1.544
		c0.956-0.716,1.532-2.076,2.456-2.615c0.57-0.43,1.244-0.467,1.818-0.898c0.575-0.428,1.054-1.254,1.914-1.434
		c1.907-0.505,0.542,0.035,2.328-0.682c1.114-0.68,0.653-0.868,1.766-1.553c1.852-1.078,2.815-1.763,2.971-1.729
		c0.191-0.139,0.382-0.285,0.448-0.639c0.444-0.652,2.814-2.309,3.169-2.42c0.35-0.104,0.765,0.359,1.174-0.104
		c0.229-0.323-0.224-0.611,0-0.934c0.608-0.608,1.19-1.432,1.777-1.861c0.196-0.144,0.655,0.141,1.013,0.031
		c0.195-0.139,0.262-0.5,0.456-0.64c0.229-0.323-0.194-0.787,0.031-1.113c0.262-0.503,0.521-1,0.885-1.105
		c0.555-0.256,1.303-0.646,1.207-1.039c0.128-0.719,0.424-1.401,1.176-1.793c0.029-0.177,0.067-0.365,0.101-0.539
		c0.419-0.47,0.811-0.75,1.235-1.216c0.458-0.649,0.259-1.434,0.523-1.937c0.847-0.932,1.665-1.683,1.894-2.938
		c-0.067-0.575-0.427-1.398-0.165-1.904c0.225-0.318,0.944-0.534,1.011-0.893c0.132-0.715-0.229-1.542-0.26-2.293
		c0.092-0.536,0.681-0.965,0.614-1.54c-0.063-1.506,0.035-2.976-0.191-4.516c0.517-0.072,0.583-0.431,0.647-0.788
		c-0.131-1.147-0.783-2.219-1.077-3.405c-0.032-0.751,0.581-1.362,0.551-2.114c-0.065-0.572-0.614-1.254-1.211-1.757
		c-0.552-0.683-0.19-1.717-0.39-2.504c-0.162-0.967-0.884-1.688-1.015-2.83c-0.064-0.575-0.751-0.541-0.981-1.149
		c-0.196-0.788-0.391-1.577-0.391-2.509c-0.099-0.393-0.618-0.321-0.914-0.572c-0.657-1.075-0.428-3.261-1.867-3.761
		c0.132-0.716-0.52-0.862-0.753-1.468c0.854,0,1.634,0.356,2.124,1.398c0.134,0.213,0.624,0.321,0.786,0.357
		c0.429,0.464,0.394,1.575,0.85,1.865c0.586,0.498,1.471,0.321,1.697,0.931c0.327,0.998,1.082,1.537,1.44,2.363
		c-0.032,0.18,0.067,0.572,0.194,0.787c0.592,0.501,0.654,1.072,1.076,1.538c0.982,1.149,1.965,2.299,1.506,3.871
		c-0.287,0.683,0.589,0.503,0.855,0.929c0.656,1.08,0.389,2.511,1.239,3.44c-0.159,1.832,0.723,3.515,1.278,5.126
		c-0.946,1.47-0.419,4.043,0.333,5.511c0,0,0.52-0.066,0.559-0.249c0.156-0.895,1.791-1.193,1.525-1.622
		c-0.326-1.009-0.819-3.102-0.819-4.033c0.101-1.47,0.161-2.761-0.066-4.3c-0.131-0.217-0.262-0.433-0.393-0.646
		c-0.199-0.788-0.393-1.58-0.229-2.473c-0.1-0.393-0.393-0.642-0.489-1.036c0.033-0.183,0.097-0.537,0.131-0.716
		c0.358-0.11,0.816,0.18,1.144,0.251c0.297,0.249,0.029,0.747,0.162,0.965c0.521,0.862,1.308,1.219,1.47,2.186
		c-0.03,0.178-0.099,0.537-0.126,0.718c0.132,1.146,0.814,2.04,0.979,3.01c0.068,0.573-0.422,1.394-0.19,2.009
		c0.747,1.465,0.779,3.149,0.657,4.798c-0.138,0.716,0.776,1.288,0.517,1.791c-0.259,0.503,0.07,0.572-0.195,1.078
		c-0.033,0.18-0.39,0.282-0.422,0.464c0.487,1.039-0.251,2.614-0.416,3.51c-0.03,0.179,0.557,0.37,0.681-0.288
		c0.07-0.398,0.748-0.393,1.105-0.5C114.927,33.697,115.217,33.017,115.186,32.268z M118.703,35.847
		c0.033-0.911,0.46-1.575,0.295-2.543c-0.323-1.002-1.063-0.007-1.591,0.068c0.298,1.18-0.189,2.001-0.553,3.04
		c-0.224,0.324-0.39,1.222,0.133,1.15C117.805,37.739,118.677,36.957,118.703,35.847z M117.305,40.752
		c0.204-0.285,0.108-0.859-0.185-1.113c-0.456-0.285-1.044,0.146-1.307,0.646c-0.263,0.501-0.065,1.291,0.624,1.252
		C116.599,41.576,117.073,41.08,117.305,40.752z"/>
	<path fill="#008BD0" d="M107.697,10.185c0.866,0.659,1.212,1.76,1.898,2.655l-0.07,0.359c-1.203,1.037-2.253-0.685-2.578-1.686
		c-0.489-1.039-0.981-2.078-1.869-2.83c0.035-0.176,0.073-0.359,0.106-0.539c-0.429-0.469-0.981-1.146-0.429-1.398
		c0.225-0.321,0.621,0.326,1.076,0.608C106.52,8.253,106.65,9.397,107.697,10.185z"/>
	<path fill="#008BD0" d="M112.642,5.587c0.013,0.18-0.277,0.49-0.319,0.667c-0.569-0.523-1.14-1.051-1.634-1.929
		c-0.158-0.049-0.479-0.131-0.608-0.354c-0.158-0.043-0.122-0.221-0.084-0.395c0.523-0.052,0.934,0.434,1.382,0.739
		c0.158,0.041,0.365-0.092,0.521-0.051C112.347,4.569,112.597,5.01,112.642,5.587z"/>
	<path fill="#3C9148" d="M38.912,38.561c0.156,0.131,0.389,0.337,0.514,0.493c0.266,0.174,0.537,0.197,0.819,0.072
		c0.271,0.019,0.512,0.721,0.788,0.739c0.392,0.185,0.639,0.883,1.025,1.216c0.262,0.17,0.534,0.421,0.796,0.596
		c0.371,0.482,0.614,0.949,1.001,1.283c0.251,0.32,0.664,0.208,0.941,0.229c0.533,0.192,0.747,0.962,1.124,1.444
		c0.138,0.01,0.376,0.482,0.37,0.632c0.258,0.169,0.51,0.49,0.908,0.672c0.116,0.164,0.104,0.461,0.223,0.623
		c0.982,1.586,2.28,2.591,3.115,4.313c0,0,0.109,0.311,0.102,0.462c1.021,0.985,1.466,2.376,2.343,3.5
		c0.237,0.47,0.459,1.239,0.683,1.858c0.254,0.322,0.517,0.495,0.763,0.815c0.364,0.632,0.72,1.414,0.8,2.171
		c-0.021,0.3-0.222,1.186-0.736,0.692c-0.638-0.654-0.568-1.547-1.217-2.055c0.014-0.146-0.163-0.539-0.292-0.693
		c-0.262-0.313-0.732-0.295-0.836-0.749c0.034-0.451-0.471-0.816-0.731-1.129c-0.649-0.929-1.589-1.275-2.369-2.211
		c-0.141-0.005-0.278-0.013-0.42,0.13c-0.144,0.29-0.572,0.724-0.182,1.191c0.531,0.325,0.782,0.938,1.453,1.271
		c0.398,0.317,0.499,1.223,0.742,1.984c0.259,0.311,0.524,0.624,0.926,0.796c0.396,0.315,0.238,0.796,0.614,1.278
		c-0.014,0.15-0.157,0.283-0.174,0.433c0.244,0.476,0.798,0.367,1.176,0.85c0.292-0.274,0.693-0.057,0.932,0.377
		c-0.444,0.418-0.327,0.726-0.498,1.17c-0.464,0.709,0.581,1.394,1.236,1.747c0.414,0.033,0.354,0.783,0.743,1.111
		c0.242,0.475,0.919,0.528,1.285,1.159c0.119,0.313-0.168,0.439-0.325,0.727c-0.036,0.452,0.497,0.642,0.756,0.813
		c0.265,0.174,0.378,0.488,0.492,0.795c-0.419,0.113-1.227-0.443-1.631-0.48c-0.258-0.115-0.75-0.707-1.276-0.822
		c-0.179-0.039-0.302,0.395-0.499,0.354c-0.244-0.044-0.513-0.098-0.781-0.146c-0.289-0.051-0.979-0.813-1.281-0.861
		c-0.342-0.06-0.756,0.566-1.088,0.513c-1.23-0.212-1.275-0.294-1.667-0.457c-0.456-0.182-0.887-0.395-1.295-0.626
		c-0.267-0.144-0.191-0.498-0.438-0.656c-0.251-0.162-0.787-0.159-1.037-0.316c-0.985-0.603-1.915-1.965-2.753-2.403
		c-0.56-0.288-1.024-0.569-1.638-0.868c-0.305-0.188-0.519-0.604-0.897-0.732c-1.153-0.389-2.081-1.121-3.398-1.491
		c-2.499-0.708-4.57,0.722-6.603,1.772c-0.106-0.006-0.322-0.02-0.434,0.055c-0.466,0.396-1.021,0.615-1.48,0.924
		c-0.633,0.5-1.508,0.631-2.204,1.039c-0.224,0.128-0.243,0.533-0.462,0.664c-0.33,0.192-0.916,0.233-1.242,0.436
		c-0.297,0.189-0.333,0.539-0.623,0.752c-0.58,0.47-1.15,0.854-1.94,1.227c-0.446,0.226-4.19,0.867-4.816,0.875
		c-0.966,0.016-1.632,0.813-3.071,0.809c-2.187-0.011-4.377-0.057-6.197-1.408c-0.383-0.334-0.456-1.242-0.714-1.412
		c-0.784-0.516-0.71-1.559-0.931-2.332c-0.254-0.17-0.803-0.213-0.768-0.664c0.301-2.232,1.406-4.252,2.754-5.794
		c0.316-0.577,1.018-0.821,1.074-1.567c0,0,1.219-1.706,1.955-2.396c0.158-0.29-0.08-0.762,0.076-1.049
		c1.118-2.166,3.145-3.654,4.795-5.627c0.44-0.413,0.758-0.992,1.446-1.085c0.278,0.021,0.548,0.041,0.704-0.244
		c0.326-0.726,0.906-1.129,1.341-1.398c1.579-1.075,2.908-2.699,4.716-3.002c0.279-0.128,0.439-0.413,0.724-0.544
		c0.296-0.277,0.817,0.064,1.101-0.062c1.344-0.605,2.568-1.907,3.949-2.096c0.281-0.124,0.443-0.411,0.58-0.406
		c1.224,0.105,2.67-0.979,3.819,0.165C36.709,37.789,38.26,38.007,38.912,38.561z M48.295,51.695c0.01-0.151,0.012-0.3,0.017-0.449
		c-0.534-0.326-0.771-1.239-1.445-1.421c-0.135-0.008-0.417,0.133-0.422,0.282c-0.036,0.897,0.349,1.516,0.727,2.283
		c0.162-0.589,0.569-0.572,0.827-0.11C48.139,52.139,48.289,51.844,48.295,51.695z"/>
</g>
</svg>
