<?xml version="1.0" encoding="UTF-8" standalone="no"?>
<!-- Created with Inkscape (http://www.inkscape.org/) -->

<svg
   xmlns:dc="http://purl.org/dc/elements/1.1/"
   xmlns:cc="http://creativecommons.org/ns#"
   xmlns:rdf="http://www.w3.org/1999/02/22-rdf-syntax-ns#"
   xmlns:svg="http://www.w3.org/2000/svg"
   xmlns="http://www.w3.org/2000/svg"
   xmlns:xlink="http://www.w3.org/1999/xlink"
   xmlns:sodipodi="http://sodipodi.sourceforge.net/DTD/sodipodi-0.dtd"
   xmlns:inkscape="http://www.inkscape.org/namespaces/inkscape"
   version="1.0"
   width="345"
   height="420"
   id="svg4166"
   sodipodi:version="0.32"
   inkscape:version="0.47 r22583"
   sodipodi:docname="Stockholm_län_vapen_b.svg"
   inkscape:output_extension="org.inkscape.output.svg.inkscape">
  <title
     id="title36939">Coat of Arms of Stockholm</title>
  <metadata
     id="metadata2485">
    <rdf:RDF>
      <cc:Work
         rdf:about="">
        <dc:format>image/svg+xml</dc:format>
        <dc:type
           rdf:resource="http://purl.org/dc/dcmitype/StillImage" />
        <cc:license
           rdf:resource="http://creativecommons.org/licenses/publicdomain/" />
        <dc:title>Coat of Arms of Stockholm</dc:title>
        <dc:creator>
          <cc:Agent>
            <dc:title>Koyos</dc:title>
          </cc:Agent>
        </dc:creator>
      </cc:Work>
      <cc:License
         rdf:about="http://creativecommons.org/licenses/publicdomain/">
        <cc:permits
           rdf:resource="http://creativecommons.org/ns#Reproduction" />
        <cc:permits
           rdf:resource="http://creativecommons.org/ns#Distribution" />
        <cc:permits
           rdf:resource="http://creativecommons.org/ns#DerivativeWorks" />
      </cc:License>
    </rdf:RDF>
  </metadata>
  <sodipodi:namedview
     inkscape:window-height="1150"
     inkscape:window-width="1600"
     inkscape:pageshadow="2"
     inkscape:pageopacity="0.0"
     guidetolerance="10.0"
     gridtolerance="10.0"
     objecttolerance="10.0"
     borderopacity="1.0"
     bordercolor="#666666"
     pagecolor="#ffffff"
     id="Sankt Erik"
     showgrid="false"
     inkscape:zoom="0.70710678"
     inkscape:cx="19.549001"
     inkscape:cy="162.03399"
     inkscape:window-x="-8"
     inkscape:window-y="-8"
     inkscape:current-layer="svg4166"
     showguides="false"
     inkscape:guide-bbox="true"
     inkscape:window-maximized="1">
    <inkscape:grid
       type="xygrid"
       id="grid13797"
       visible="true"
       enabled="true"
       empspacing="5"
       snapvisiblegridlinesonly="true" />
    <sodipodi:guide
       orientation="1,0"
       position="175.07174,100.76804"
       id="guide3422" />
    <sodipodi:guide
       orientation="1,0"
       position="287.03623,173.03603"
       id="guide3424" />
    <sodipodi:guide
       orientation="1,0"
       position="58.526891,28.500051"
       id="guide3426" />
  </sodipodi:namedview>
  <defs
     id="defs4168">
    <inkscape:perspective
       sodipodi:type="inkscape:persp3d"
       inkscape:vp_x="0 : 380 : 1"
       inkscape:vp_y="0 : 1000 : 0"
       inkscape:vp_z="620 : 380 : 1"
       inkscape:persp3d-origin="310 : 253.33333 : 1"
       id="perspective3008" />
    <inkscape:perspective
       id="perspective3398"
       inkscape:persp3d-origin="0.5 : 0.33333333 : 1"
       inkscape:vp_z="1 : 0.5 : 1"
       inkscape:vp_y="0 : 1000 : 0"
       inkscape:vp_x="0 : 0.5 : 1"
       sodipodi:type="inkscape:persp3d" />
    <inkscape:perspective
       id="perspective4238"
       inkscape:persp3d-origin="0.5 : 0.33333333 : 1"
       inkscape:vp_z="1 : 0.5 : 1"
       inkscape:vp_y="0 : 1000 : 0"
       inkscape:vp_x="0 : 0.5 : 1"
       sodipodi:type="inkscape:persp3d" />
    <inkscape:perspective
       id="perspective4351"
       inkscape:persp3d-origin="0.5 : 0.33333333 : 1"
       inkscape:vp_z="1 : 0.5 : 1"
       inkscape:vp_y="0 : 1000 : 0"
       inkscape:vp_x="0 : 0.5 : 1"
       sodipodi:type="inkscape:persp3d" />
    <inkscape:perspective
       id="perspective4619"
       inkscape:persp3d-origin="0.5 : 0.33333333 : 1"
       inkscape:vp_z="1 : 0.5 : 1"
       inkscape:vp_y="0 : 1000 : 0"
       inkscape:vp_x="0 : 0.5 : 1"
       sodipodi:type="inkscape:persp3d" />
    <inkscape:perspective
       id="perspective4619-1"
       inkscape:persp3d-origin="0.5 : 0.33333333 : 1"
       inkscape:vp_z="1 : 0.5 : 1"
       inkscape:vp_y="0 : 1000 : 0"
       inkscape:vp_x="0 : 0.5 : 1"
       sodipodi:type="inkscape:persp3d" />
    <inkscape:perspective
       id="perspective5199"
       inkscape:persp3d-origin="0.5 : 0.33333333 : 1"
       inkscape:vp_z="1 : 0.5 : 1"
       inkscape:vp_y="0 : 1000 : 0"
       inkscape:vp_x="0 : 0.5 : 1"
       sodipodi:type="inkscape:persp3d" />
    <inkscape:perspective
       id="perspective5269"
       inkscape:persp3d-origin="0.5 : 0.33333333 : 1"
       inkscape:vp_z="1 : 0.5 : 1"
       inkscape:vp_y="0 : 1000 : 0"
       inkscape:vp_x="0 : 0.5 : 1"
       sodipodi:type="inkscape:persp3d" />
    <inkscape:perspective
       id="perspective5365"
       inkscape:persp3d-origin="0.5 : 0.33333333 : 1"
       inkscape:vp_z="1 : 0.5 : 1"
       inkscape:vp_y="0 : 1000 : 0"
       inkscape:vp_x="0 : 0.5 : 1"
       sodipodi:type="inkscape:persp3d" />
  </defs>
  <path
     style="fill:#d40000"
     d="M 175.4375 0.90625 L 286.9375 382.4375 C 347.26613 365.31964 345.21875 315.40625 345.21875 315.40625 L 345.21875 0.90625 L 175.4375 0.90625 z "
     id="path4255" />
  <path
     style="fill:#ffcd50;fill-opacity:1"
     d="M 174.6875 0.90625 L 58.59375 382.53125 C 73.666112 386.78307 87.341641 389.38224 99.65625 391.34375 C 111.98355 393.30729 122.94151 394.63041 132.59375 396.375 C 144.64117 398.5525 154.65263 401.36993 162.6875 406.84375 C 164.29567 407.93889 165.8297 409.11318 167.28125 410.4375 C 167.28674 410.44251 167.27576 410.46374 167.28125 410.46875 C 170.18168 413.11666 172.77924 416.24295 175.0625 420 C 176.40594 418.10388 177.77335 416.37945 179.1875 414.78125 C 180.60165 413.18305 182.06678 411.70809 183.5625 410.375 C 204.49843 391.71217 233.964 397.42338 286.84375 382.46875 C 286.87714 382.45931 286.90414 382.44696 286.9375 382.4375 L 175.4375 0.90625 L 174.6875 0.90625 z "
     id="path4253" />
  <path
     style="fill:#003d8f"
     d="M 0 0.90625 L 0 315.40625 C 0 315.40625 -2.0237497 365.37675 58.40625 382.46875 C 58.47309 382.48766 58.526965 382.51241 58.59375 382.53125 L 174.6875 0.90625 L 0 0.90625 z "
     id="Shield" />
  <g
     id="g3412"
     transform="matrix(0.25,0,0,0.25,-12.039719,29.909723)">
    <path
       sodipodi:nodetypes="cccccccccccccccccccccccccccccccccccccccccc"
       id="Figurbakgrund"
       d="m 308.87518,52.624997 c -15.86901,8.023678 -16.9651,37.397407 -20.71476,44.528085 -20.4705,-19.350121 -51.32053,6.276468 -40.88627,30.156748 7.44619,24.06011 43.18282,9.46254 48.35103,10.00206 -3.68579,29.70256 -48.90081,35.92904 -65.25747,13.80596 4.00723,-9.15427 -3.39031,-33.12514 -20.82704,-28.27204 -10.33974,12.19063 2.36469,26.8497 5.1176,33.51573 5.31688,28.86075 -43.78098,24.2976 -41.26759,14.22496 23.18276,2.38022 29.40941,-34.6069 7.68083,-41.38108 -18.17967,-7.32472 -25.82342,20.88758 -40.7944,1.92373 -12.47647,-4.52463 -28.17935,-30.94622 -15.30437,-6.09522 11.74922,23.09504 20.4468,50.64665 42.93369,65.59107 7.0518,21.26785 25.98046,42.19434 2.54686,54.67495 -30.36784,30.33915 -45.53227,79.0537 -25.29082,118.99787 13.02889,31.33893 48.41803,50.96095 51.31566,86.64658 -0.67043,27.89425 -38.13357,5.32024 -35.93078,8.31055 -4.33047,22.45441 23.17052,43.24339 34.52119,53.74861 15.05448,7.00803 29.76569,-22.27325 25.1211,3.42355 -0.81453,22.05117 6.37291,49.67515 -14.26604,65.13015 -4.66366,5.78981 9.39513,14.15757 12.71353,21.04646 6.11241,5.00101 9.05032,16.67579 17.58532,16.58378 50.62379,0 101.24759,0 151.87138,0 9.67708,-11.88542 19.35417,-23.77083 29.03125,-35.65625 -22.45825,-15.68628 -19.4432,-44.71836 -18.33036,-68.57855 -5.13847,-25.42057 20.45281,11.93785 32.83036,-4.5777 8.46521,-9.6781 9.61516,-18.11407 22.8343,-23.23149 9.45982,-12.72711 7.02602,-43.03263 -11.17424,-22.77715 -32.45315,5.30718 -19.85096,-40.85688 -2.66678,-52.16214 24.18269,-27.97683 49.82979,-62.4161 41.75152,-101.76248 -4.33284,-29.25351 -20.73568,-56.00022 -43.21355,-74.91049 -4.48289,-20.22565 12.08265,-44.47036 28.43678,-57.81707 13.76814,-20.43892 23.9171,-43.12613 32.43822,-66.18293 -13.72727,10.16684 -31.39339,38.33839 -45.03734,17.96018 -19.12314,-10.37788 -39.75279,17.29185 -24.49371,32.94245 5.47428,13.12386 34.08826,4.26965 11.93668,13.85728 -21.82115,17.06365 -52.31394,-18.29496 -27.47835,-30.56213 4.76408,-19.75127 -15.98988,-32.60741 -25.03072,-10.51656 -5.80256,11.76851 7.97309,22.07859 -11.07913,27.273 -19.90678,6.79834 -51.62049,-0.28395 -54.88344,-24.84257 4.23119,-2.28088 39.76748,14.54664 46.10905,-9.34089 13.40293,-24.1631 -20.68638,-49.180798 -40.99578,-31.378625 -4.84151,-6.096804 -4.11539,-35.914759 -20.20341,-44.298388 z"
       style="fill:#ffcd50;fill-opacity:1;fill-rule:evenodd;stroke:none" />
    <path
       id="Figurkant"
       d="m 310.59393,46.5625 -1.8125,0.8125 c -4.17425,1.862494 -7.33746,5.503798 -10.09375,9.8125 -2.75629,4.308702 -5.05976,9.408307 -6.875,14.5625 -1.81524,5.154193 -3.12668,10.341373 -3.8125,14.90625 -0.17238,1.147379 -0.20671,2.107111 -0.3125,3.15625 -4.45765,-2.463945 -9.06645,-4.148169 -13.71875,-4.65625 -6.9506,-0.75908 -13.9821,1.084884 -19.78125,5.90625 -6.25824,5.203045 -10.19936,13.7989 -10.875,22.6875 -0.67564,8.8886 2.30213,18.47748 10.8125,24.03125 9.38414,6.12397 18.14344,7.47417 25.78125,6 4.55894,-0.87992 8.56581,-2.73252 12.375,-4.8125 -1.80901,6.05847 -4.76034,10.25349 -8.6875,13.1875 -5.46207,4.08075 -13.14467,5.96155 -22.375,6.25 -9.16896,0.28653 -14.20911,-1.2721 -18.1875,-3.8125 -3.15029,-2.01161 -5.90777,-5.05347 -9.03125,-8.53125 1.80946,-2.29992 3.04066,-5.2139 2.96875,-8.59375 -0.10935,-5.13976 -3.09023,-10.67529 -9.5,-15.59375 -3.87923,-2.97668 -7.12116,-4.81806 -10.28125,-5.5625 -3.16009,-0.74444 -6.50383,-0.03 -8.6875,1.875 -4.36734,3.80992 -4.86442,9.60736 -5.65625,15.375 -0.62447,4.54858 -0.99227,9.05951 0.90625,13.1875 1.44506,3.14202 4.5194,5.46119 8.53125,6.46875 -0.38644,4.56334 -1.02355,8.60846 -2.4375,11.5 -1.77566,3.63124 -4.37094,6.11627 -10.0625,7.84375 -4.87398,1.47933 -7.59525,1.71405 -11.1875,0.71875 -1.34816,-0.37354 -3.0692,-1.18969 -4.8125,-2.03125 5.70927,-1.95957 10.15974,-5.89058 12.8125,-10.6875 4.504,-8.14448 4.7187,-18.48847 -0.25,-26.21875 -6.90755,-10.74674 -17.6987,-13.17281 -26.25,-11.125 -4.27565,1.02391 -8.08339,3.02781 -11.09375,5.4375 -1.4811,1.18557 -2.79008,2.4463 -3.84375,3.84375 -9.83712,-6.35648 -22.36852,-10.12822 -31.71875,-24.78125 l -6.65625,3.65625 c 6.13096,13.1316 13.7869,30.87986 22.3125,46.53125 8.16599,14.99121 16.75939,28.15631 27.3125,33.625 10.00736,20.72307 9.83184,26.07646 13.90625,37.96875 -9.83142,9.6603 -36.34272,34.69847 -44.125,69.71875 -9.99304,44.96869 10.81219,77.34159 32.28125,101.875 11.49778,13.13889 19.46383,25.37013 23.1875,35.21875 3.72367,9.84862 3.23732,16.54332 -0.71875,20.71875 -3.21046,3.38849 -6.67509,3.97235 -11.28125,2.8125 -4.60616,-1.15985 -10.00753,-4.50893 -14.8125,-9.03125 l -5.71875,-5.375 -0.65625,7.84375 c -1.80912,22.01098 2.2606,32.40297 7.9375,37.8125 2.83845,2.70477 5.85349,3.9859 7.78125,4.875 0.96388,0.44455 1.65691,0.81237 1.90625,1 0.24934,0.18763 0.0518,0.013 0.0312,-0.0625 1.04496,3.83156 3.1343,8.43487 7.21875,12.15625 4.08445,3.72138 10.17445,6.34375 18.21875,6.34375 7.20042,0 12.48046,-2.4148 16.25,-5.09375 0.0587,6.46862 0.15997,18.61299 0.5,37.65625 0.38674,21.65868 -15.625,30.46875 -15.625,30.46875 l -3.875,2.21875 2.8125,3.46875 29.03125,35.65625 1.125,1.40625 1.8125,0 155.9375,0 1.8125,0 1.125,-1.40625 29.03125,-35.65625 2.53125,-3.09375 -3.21875,-2.34375 c 0,0 -16.67159,-12.42696 -17.21875,-32.125 -0.31114,-10.89019 0.17258,-21.14437 0.46875,-36.875 4.2075,2.90629 8.45168,4.89207 12.71875,5.6875 6.38603,1.19042 12.69277,-0.16429 18.25,-3.53125 6.15297,-3.7279 9.28517,-9.46106 9.59375,-15.625 2.73096,-0.90452 5.14968,-1.59322 7.5625,-2.8125 3.11404,-1.57363 5.91726,-4.19768 8.84375,-8.75 6.53301,-10.16249 3.13548,-21.83462 1.78125,-31.59375 l -0.96875,-6.9375 -5.28125,4.59375 c -4.38688,3.8089 -9.04039,6.82982 -13.09375,8.28125 -4.05336,1.45143 -7.13999,1.39433 -9.59375,-0.15625 -3.34598,-2.11438 -5.94125,-5.81636 -6.15625,-11.71875 -0.215,-5.90239 2.1513,-14.16861 9.625,-24.5625 12.909,-17.9529 50.83105,-53.09485 51.5,-95.25 0.95731,-59.4118 -41.33034,-93.04837 -47.25,-97.5 0.15336,-0.81865 0.20648,-1.72185 1.875,-6.78125 2.01292,-6.1037 5.84019,-16.14285 12.28125,-30.4375 1.59539,-0.27199 3.12923,-0.92091 4.5,-1.78125 2.33435,-1.46511 4.50199,-3.55408 6.75,-6.125 4.49601,-5.14184 9.20377,-12.30475 13.875,-20.53125 9.34245,-16.453 18.50998,-37.05757 24.1875,-53.125 l -6.53125,-3.65625 c -4.06798,4.99978 -10.69313,10.37324 -17.21875,15.21875 -5.08014,3.77219 -9.72698,7.05962 -13.59375,10.09375 -4.80018,-6.50485 -11.71509,-10.515 -19.09375,-10.84375 -8.735,-0.38918 -17.7407,4.37373 -23.1875,14.15625 -4.7931,8.60845 -2.37747,19.29076 3.5,26.96875 2.9331,3.83163 6.93538,7.02998 11.5625,8.78125 -2.20099,0.97215 -4.3606,1.8762 -6.15625,2.3125 -4.59599,1.11673 -8.03247,0.80479 -12.03125,-0.53125 -5.0123,-1.67467 -7.47095,-4.509 -9.25,-8.375 -1.34395,-2.9205 -2.06575,-6.48017 -2.6875,-10.125 2.42815,-0.62002 4.83831,-1.59772 6.78125,-3.8125 3.034,-3.45849 3.96557,-8.76872 2.6875,-15.96875 -0.77807,-4.38327 -1.7587,-8.09836 -3.1875,-11.1875 -1.4288,-3.08914 -3.38829,-5.78175 -6.5,-7 -3.11171,-1.21825 -6.66272,-0.4338 -9.75,1.46875 -3.08728,1.90255 -6.17151,4.91595 -9.625,9.1875 -4.06948,5.03345 -6.14274,9.87873 -5.90625,14.53125 0.15442,3.03796 1.53333,5.71749 3.5625,7.84375 -4.28645,4.73574 -9.05607,7.34811 -13.9375,8.5625 -5.78417,1.43897 -11.66362,1.0289 -16.1875,0.125 -7.90536,-1.57954 -14.94156,-3.46813 -20,-7.25 -3.58033,-2.67678 -6.37452,-6.37511 -8.09375,-12.0625 6.1815,3.01693 12.53802,4.32266 18.3125,4.28125 8.21835,-0.0589 15.2478,-2.40599 19.6875,-6.28125 5.36172,-4.68005 9.54498,-12.91313 9.78125,-22.1875 0.23627,-9.27437 -4.20969,-19.590968 -15.875,-26.15625 -7.44424,-4.189643 -15.1231,-4.267084 -21.5,-2.625 -3.35911,0.864989 -6.34128,2.178346 -8.96875,3.59375 -0.31317,-5.717647 -1.43583,-12.262912 -3.5,-18.78125 -3.01565,-9.522992 -7.83939,-18.890898 -15.875,-23.71875 l -1.6875,-1.03125 z m -0.40625,9.03125 c 4.49646,3.710253 8.3589,10.449259 10.75,18 2.71209,8.564393 3.65909,17.87785 3.125,23 l -0.90625,8.5625 6.9375,-5.09375 c 2.95772,-2.184478 7.45375,-4.904158 12.4375,-6.1875 4.98375,-1.283342 10.28922,-1.268699 15.875,1.875 9.56243,5.38177 12.17666,12.37784 12,19.3125 -0.17666,6.93466 -3.8796,13.80015 -7.1875,16.6875 -2.36614,2.06532 -8.06993,4.35835 -14.75,4.40625 -6.68007,0.0479 -14.30515,-1.91794 -21.25,-7.40625 l -7,-5.5 0.875,8.84375 c 1.1893,12.29072 5.9325,20.4731 12.65625,25.5 6.72375,5.0269 14.91958,6.99799 23.0625,8.625 5.31108,1.06119 12.25075,1.5847 19.5,-0.21875 7.24925,-1.80345 14.79798,-6.05726 20.65625,-14.15625 l 2.5625,-3.5625 -3.875,-2.03125 c -2.28776,-1.19168 -3.11812,-2.39525 -3.21875,-4.375 -0.10063,-1.97975 0.90239,-5.23441 4.25,-9.375 3.14312,-3.88767 5.80935,-6.34259 7.6875,-7.5 1.87815,-1.15741 2.54126,-1.0546 3,-0.875 0.45874,0.1796 1.42336,0.99993 2.40625,3.125 0.98289,2.12507 1.88268,5.3379 2.59375,9.34375 1.06594,6.00504 0.11614,8.45957 -0.90625,9.625 -1.02239,1.16543 -2.9927,1.82454 -5.8125,2.09375 l -4,0.375 0.59375,3.96875 c 0.73997,4.84056 1.52953,10.4548 3.9375,15.6875 2.40797,5.2327 6.75978,10.04993 13.71875,12.375 5.01579,1.67583 10.35257,2.18295 16.25,0.75 5.89743,-1.43295 12.33214,-4.629 20.46875,-9.96875 l -3.34375,-6.75 c -7.44253,2.62785 -13.93033,-0.68164 -18.3125,-6.40625 -4.38217,-5.72461 -5.78006,-13.49485 -2.90625,-18.65625 4.28474,-7.69543 10.33168,-10.51229 16.21875,-10.25 5.88707,0.26229 11.77384,3.82396 15.25,10.46875 l 2.28125,4.3125 3.625,-3.25 c 3.2699,-2.91271 9.7184,-7.31528 16.40625,-12.28125 2.02076,-1.50049 4.0203,-3.14595 6.03125,-4.75 -5.10428,12.25882 -11.31491,25.41108 -17.59375,36.46875 -4.52377,7.96682 -9.06973,14.8534 -12.96875,19.3125 -1.94951,2.22955 -3.75596,3.81661 -5.09375,4.65625 -1.33779,0.83964 -1.96287,0.79889 -2.03125,0.78125 l -3.0625,-0.78125 -1.34375,2.875 c -7.26332,15.91008 -11.2925,26.61777 -13.53125,33.40625 -2.23875,6.78848 -2.71875,9.9375 -2.71875,9.9375 l -0.3125,2.3125 1.875,1.34375 c 0,0 47.11787,33.25839 46.15625,92.9375 -0.59633,37.57835 -35.92416,71.27492 -50.0625,90.9375 -8.14054,11.3213 -11.35914,21.13756 -11.0625,29.28125 0.29664,8.14369 4.30154,14.44026 9.6875,17.84375 4.89874,3.09559 10.82434,2.83789 16.21875,0.90625 3.49888,-1.25288 6.87154,-3.33374 10.1875,-5.6875 1.15443,7.80429 1.8727,14.75009 -1.5625,20.09375 -2.51377,3.9103 -4.00704,5.13402 -5.90625,6.09375 -1.89921,0.95973 -4.76973,1.6082 -9.1875,3.28125 l -2.75,1.03125 0.34375,2.9375 c 0.5766,5.02611 -0.74591,8.21633 -6.0625,11.4375 -4.21841,2.55582 -8.37589,3.41283 -12.9375,2.5625 -4.56161,-0.85033 -9.64063,-3.54272 -15.125,-8.71875 l -6.3125,-5.96875 -0.0937,8.6875 c -0.23114,21.50891 -0.97134,31.65883 -0.59375,44.875 0.49814,17.93327 11.68894,30.39614 17.21875,35.46875 l -25.5,31.34375 -152.375,0 -25.375,-31.1875 c 5.68899,-4.69041 16.24029,-15.88612 15.90625,-34.59375 -0.41987,-23.51443 -0.625,-46.5 -0.625,-46.5 l -7.125,-1.75 c 0,0 -3.87847,8.25 -16.59375,8.25 -6.46306,0 -10.37787,-1.90053 -13.09375,-4.375 -2.71588,-2.47447 -4.2628,-5.71359 -5.03125,-8.53125 -0.47394,-1.73778 -1.6448,-3.14481 -2.78125,-4 -1.13645,-0.85519 -2.24102,-1.36399 -3.28125,-1.84375 -2.08046,-0.95952 -3.99158,-1.79315 -5.75,-3.46875 -3.02358,-2.88118 -6.0267,-9.32491 -5.78125,-24.21875 3.79611,2.6808 7.79894,4.77039 11.9375,5.8125 6.4711,1.62945 13.58653,0.41334 18.65625,-4.9375 6.56007,-6.92384 6.58734,-17.40126 2.34375,-28.625 -4.24359,-11.22374 -12.71341,-23.95519 -24.59375,-37.53125 -20.92116,-23.90729 -39.94387,-53.14322 -30.59375,-95.21875 7.46024,-33.5711 34.60842,-58.54592 43.71875,-67.65625 l 1.71875,-1.71875 -0.84375,-2.28125 c -4.88173,-13.2519 -3.81824,-18.26328 -15.4375,-42.0625 l -0.5938,-1.21875 -1.28125,-0.5625 c -7.44766,-3.31233 -16.84428,-15.8919 -25.125,-31.09375 -4.53349,-8.32264 -8.7741,-17.23754 -12.78125,-25.90625 8.39754,5.95027 16.56377,8.98541 21.1875,12.71875 l 4.6875,3.78125 1.375,-5.84375 c 0.18813,-0.79297 1.40856,-2.76961 3.53125,-4.46875 2.12269,-1.69914 5.03662,-3.19791 8.125,-3.9375 6.17677,-1.47918 12.68761,-0.51849 18.0625,7.84375 3.16105,4.91794 3.203,12.7021 0.0312,18.4375 -3.17175,5.7354 -8.75549,9.57691 -18.34375,7.6875 l -2.75,6.9375 c 7.52956,4.70453 12.62506,7.65985 17.6875,9.0625 5.06244,1.40265 9.86871,0.93073 15.40625,-0.75 7.23634,-2.19634 12.0806,-6.48137 14.6875,-11.8125 2.6069,-5.33113 3.22172,-11.37498 3.53125,-17.875 l 0.1875,-3.875 -3.875,-0.0937 c -4.27378,-0.11489 -5.11063,-1.03096 -5.84375,-2.625 -0.73312,-1.59404 -0.87101,-4.90058 -0.3125,-8.96875 0.75629,-5.5088 2.27712,-9.92057 3.15625,-10.6875 0.43957,-0.38346 0.49595,-0.5271 1.9375,-0.1875 1.44155,0.3396 4.0029,1.57598 7.40625,4.1875 5.18031,3.97506 6.48085,7.34964 6.53125,9.71875 0.0504,2.36911 -1.2172,4.20271 -2.625,5.09375 l -3.84375,2.4375 3.0625,3.34375 c 4.15365,4.54082 7.65436,9.05529 13,12.46875 5.34564,3.41346 12.3258,5.31795 22.5,5 10.11282,-0.31603 19.40336,-2.33131 26.65625,-7.75 7.25289,-5.41869 12.02492,-14.17424 13.3125,-26.40625 l 0.8125,-7.90625 -6.65625,4.3125 c -5.66797,3.65696 -11.25482,6.96075 -17.125,8.09375 -5.87018,1.133 -12.14663,0.39276 -20.21875,-4.875 -5.88481,-3.84036 -7.90056,-10.2108 -7.375,-17.125 0.52556,-6.9142 3.98576,-13.93894 8.15625,-17.40625 4.27959,-3.55801 8.91516,-4.784308 14.09375,-4.21875 5.17859,0.565558 10.90738,3.076302 16.4375,7.3125 l 10.65625,8.1875 -4.8125,-12.5625 c -0.20187,-0.524863 -0.50394,-3.865447 0.0937,-7.84375 0.59769,-3.978303 1.83638,-8.776322 3.5,-13.5 1.66362,-4.723678 3.77518,-9.375548 6.09375,-13 1.71021,-2.673449 3.4813,-4.449945 5.09375,-5.6875 z"
       style="fill:#000000;fill-opacity:1;fill-rule:evenodd;stroke:none;stroke-width:7.58999968;marker:none;visibility:visible;display:inline;overflow:visible;enable-background:accumulate" />
    <path
       sodipodi:nodetypes="cccccccccccccccccc"
       id="Vänster"
       d="m 208.96893,274.53125 c -8.65828,3.25361 -11.8434,12.61908 -9.3881,21.06659 1.56535,21.70473 0.77207,43.76726 5.42983,65.12442 3.95048,6.97003 3.74563,15.1549 4.60112,22.97261 1.32317,18.50829 3.95307,36.89223 4.77839,55.4299 0.0936,7.03743 3.71275,13.38761 3.08881,20.4412 0.32185,15.01342 1.08044,30.05269 0.23995,45.05903 2.99918,-0.42359 7.32609,6.1615 7.78482,-2.70054 -0.14903,-11.56314 -0.18643,-24.99401 -0.28482,-34.08071 3.81598,4.70625 20.02064,3.1259 8.6568,-7.5836 -6.92053,-7.59312 -13.96755,-16.80782 -12.79996,-27.718 -1.92039,-21.50474 -3.63541,-43.02978 -5.48184,-64.54215 4.61735,1.79583 8.57005,4.1183 10.12007,9.02064 2.78289,5.20145 5.56579,10.40291 8.34868,15.60436 -3.4375,-8.28125 -6.875,-16.5625 -10.3125,-24.84375 -6.4637,-2.75545 -14.12711,-6.57939 -13.61957,-15.05283 -1.9262,-24.27374 -3.86678,-48.69749 -2.4627,-73.04693 0.26154,-1.73847 0.2824,-3.63324 1.30102,-5.15024 z"
       style="fill:#000000;fill-opacity:1;fill-rule:evenodd;stroke:none;stroke-width:7.58999968;marker:none;visibility:visible;display:inline;overflow:visible;enable-background:accumulate" />
    <path
       sodipodi:nodetypes="cccccccccccccccccccccc"
       id="Höger"
       d="m 423.06268,279.09375 c -8.58468,2.89984 -6.21787,8.58632 -7.73562,21.51497 -1.1957,13.63854 -0.53798,27.60578 -3.69565,40.9669 -3.00195,7.4233 -3.28806,17.66142 -11.59505,21.39812 -4.71856,1.18776 -7.10475,4.30214 -8.26783,8.78564 -4.01653,9.79896 -8.03307,19.59791 -12.0496,29.39687 6.29167,-9.40625 12.58333,-18.8125 18.875,-28.21875 8.08571,-5.66125 2.7842,9.43231 3.29967,12.98529 -1.69935,18.8468 -2.11073,37.95442 -6.1482,56.48688 -0.95843,4.00794 -7.18265,8.73252 -0.12747,8.45276 2.0208,3.8613 0.56805,8.55095 1.00725,12.78306 0,12.86817 0,25.73634 0,38.60451 2.26072,-0.57819 6.86137,1.18355 7.59375,-0.92298 0,-11.89025 0,-23.78051 0,-35.67077 2.7555,6.14829 12.46997,15.11287 15.11634,15.12353 -8.73437,-6.70084 -13.09842,-17.84249 -14.02676,-28.50934 -0.51789,-13.9635 5.208,-27.15016 9.49604,-40.19006 8.36991,-24.00296 20.08249,-47.22478 23.3496,-72.68415 0.65318,-9.44987 -0.66757,5.87266 -1.89998,9.03487 -4.26212,15.05259 -14.21464,27.54125 -22.94149,40.22515 7.24687,-29.2174 15.44186,-58.84505 14.52714,-89.21387 -0.43662,-6.9654 -1.51724,-14.09038 -4.77714,-20.34863 z"
       style="fill:#000000;fill-opacity:1;fill-rule:evenodd;stroke:none;stroke-width:7.58999968;marker:none;visibility:visible;display:inline;overflow:visible;enable-background:accumulate" />
    <path
       sodipodi:nodetypes="ccccscscccscscccccccsc"
       id="Lockar"
       d="m 296.93768,215.03125 c -46.4525,0.24303 -90.78335,3.93852 -116.0625,11.875 l 2.28125,7.25 c 9.17955,-2.88195 21.5546,-5.22219 35.96875,-7.03125 -0.67582,19.86261 -24.35399,59.78528 -29.46875,72.9375 -2.69074,6.91903 -6.91277,26.36369 -9.9375,45.53125 4.83559,-23.32163 14.19569,-53.11073 20.0625,-52.875 6.57856,0.26433 25.79491,-37.11802 32.71875,-60.625 26.75329,-2.13489 59.61544,-3.49545 73.03125,-3.15625 28.4513,0.72302 64.01683,3.09195 92.15625,5.40625 5.75308,21.75972 18.84358,50.66148 25,52.84375 5.86311,2.0783 16.68865,31.93454 21.80707,56.89373 -2.94609,-20.07617 -6.9166,-35.01021 -9.77582,-42.36248 -5.16238,-13.27467 -29.25417,-52.58381 -29.5,-72.25 23.10778,2.21245 34.28125,8.3125 34.28125,8.3125 0.3632,0.26464 0.70883,0.54245 1.0625,0.8125 0.90268,-0.30648 1.5,-0.46875 1.5,-0.46875 -0.80744,-2.76803 -1.99449,-5.59092 -2.53125,-7.75 -1.03656,-0.23665 -2.12182,-0.45509 -3.25,-0.6875 l 0.59375,-2.21875 c -30.32571,-8.04559 -80.85398,-12.20989 -130.625,-12.4375 -3.11069,-0.0142 -6.21567,-0.0162 -9.3125,0 z"
       style="fill:#000000;fill-opacity:1;fill-rule:evenodd;stroke:none;stroke-width:7.58999968;marker:none;visibility:visible;display:inline;overflow:visible;enable-background:accumulate" />
    <path
       sodipodi:nodetypes="csssssscssscsscsssccsscssccscsscsscscccscsscsscsccccccccsccsscccsssccccccc"
       id="Ansikte"
       d="m 399.00018,262.90625 c -6.68953,2.98005 -23.78447,1.74784 -41.5625,2.0625 -16.46911,0.29149 -29.21317,6.72826 -36,13.875 -8.42287,8.86953 -9.67383,19.75848 -9.75,31.1875 -0.15407,23.12353 1.01843,47.18292 1.96875,52.5 0.7788,4.35746 4.96983,9.80136 -0.71875,16.53125 -7.66717,9.07066 -14.11125,0.6045 -19.34375,4.75 -5.16121,4.089 -7.87041,4.13666 -12.3125,2.03125 2.89394,3.48396 8.08433,7.17067 13.5625,6.09375 4.00675,-0.78766 9.01397,8.0105 14.84375,8.15625 5.82977,0.14574 8.51978,-7.85942 13.3125,-7.125 8.54829,1.3099 15.6875,-7.15625 15.6875,-7.15625 0,0 -7.80187,1.79134 -10.90625,-1.21875 -4.4851,-4.34887 -2.9747,-6.48721 -3.25,-11.8125 -1.27805,-24.72133 -5.63458,-19.59546 -4.34375,-53.375 0.93657,-24.68371 3.8552,-27.56251 9.1875,-33.65625 5.24842,-5.99788 15.26709,-8.45806 22.09375,-9 9.73886,-0.77312 29.30628,1.89361 36.15625,-1.75 6.84999,-3.64361 9.52926,-8.91638 11.375,-12.09375 z m -166.5,0.375 c 9.91993,9.01941 13.62252,4.8615 23.75,8.28125 11.2223,3.78946 18.24285,9.64106 25.5,19.25 6.41209,8.49003 9.98946,19.46255 10.9375,29.15625 3.86293,-11.00199 2.02803,-29.2963 -3.21875,-36.875 -6.14682,-8.87873 -12.33435,-12.49628 -22.875,-15.75 -9.02443,-2.78568 -18.75033,0.6744 -34.09375,-4.0625 z m 16.5,21.15625 c -7.21687,0.0819 -10.55959,0.85002 -15.4375,3.96875 -4.50681,2.88147 -5.26292,5.21945 -8,7.8125 4.57903,-4.28696 10.83912,-4.12368 14.21875,-0.0312 2.49925,3.02638 1.75595,8.13796 -0.375,10.4375 -3.21387,3.46813 -7.43997,3.16065 -10,2.5625 4.0815,1.23133 12.96545,3.6633 18.875,3.53125 8.26577,-0.18471 13.57969,-3.0812 16.4375,-4.78125 4.13619,-2.4605 7.21872,-3.3878 13.28125,-6.09375 -8.17306,-4.80371 -9.04841,-8.18149 -13.3125,-12.09375 -4.5685,-4.19155 -9.70729,-5.38101 -15.6875,-5.3125 l 0,-5e-5 z m 116.78125,0 c -7.21687,0.0819 -10.93459,1.19377 -15.8125,4.3125 -4.50681,2.88147 -5.23167,5.21945 -7.96875,7.8125 4.57903,-4.28696 10.80787,-4.09243 14.1875,0 2.49925,3.02638 1.7717,8.09244 -0.34375,10.40625 -3.18364,3.48214 -7.47521,3.16545 -10.03125,2.5625 4.0815,1.23133 12.99671,3.6633 18.90625,3.53125 8.26578,-0.18471 13.54843,-3.04995 16.40625,-4.75 4.13619,-2.4605 7.21872,-3.41905 13.28125,-6.125 -8.17306,-4.80371 -9.01716,-8.18149 -13.28125,-12.09375 -4.56851,-4.19155 -9.36354,-5.72476 -15.34375,-5.65625 z M 227.21893,308.5 c 0,0 0.82829,0.35621 2.0625,0.65625 -1.22661,-0.37271 -2.0625,-0.65625 -2.0625,-0.65625 z m 116.75,0.46875 c 0.31882,0.12261 0.9067,0.32512 1.59375,0.5 -0.90087,-0.27564 -1.40758,-0.43864 -1.59375,-0.5 z M 300.34393,416.5 c -5.12819,0 -7.40307,1.4303 -12.53125,4.53125 -5.1282,3.10096 -11.55046,4.24918 -18.25,7.09375 22.49993,-1.22919 53.57054,-0.98516 76.53125,0 -8.0115,-2.31751 -12.79315,-4.25018 -17.53125,-8.1875 -3.02964,-2.5176 -6.82904,-3.47825 -11.125,-3.4375 -4.02888,0.0382 -8.46875,2.625 -8.46875,2.625 0,0 -3.4968,-2.625 -8.625,-2.625 z m -21.8125,22.375 c -0.83538,1.67271 8.7931,4.39212 14.65625,6.71875 6.51198,2.58414 11.39723,5.1875 16.28125,5.1875 4.88398,0 10.01302,-3.02837 14.09375,-5.1875 4.88399,-2.58412 15.95251,-4.90035 15.21875,-6.71875 -15.66285,1.80585 -49.4651,1.14001 -60.25,0 z m 30.4375,31.65625 c -1.87553,4.37048 -6.66403,4.18814 -8.8125,8.34375 7.41061,-3.70828 10.65642,-3.33073 19.15625,0.0937 -4.36806,-3.15853 -3.74977,-7.34617 -10.34375,-8.4375 l 0,5e-5 z"
       style="fill:#000000;fill-opacity:1;fill-rule:evenodd;stroke:none" />
    <path
       id="Krondetalj"
       d="m 310.31268,170.46875 c -0.69138,4.68922 -0.60291,9.74753 -1.77073,14.21126 -3.16879,2.05549 -3.41441,4.10438 -0.0916,6.14519 1.31052,3.38789 0.91067,7.58913 1.56884,11.28724 0.29167,5.61286 0.58198,-0.52309 0.87274,-2.79488 0.68674,-2.82302 -0.14724,-6.36897 1.49646,-8.73705 3.64745,-2.03481 2.19896,-4.08126 -0.56412,-6.13071 -0.62983,-4.5963 -0.98741,-9.33671 -1.51162,-13.98105 z m -44.78125,3.375 c -0.18906,4.47338 0.42008,9.2257 -0.26453,13.52591 -3.20647,2.4181 -2.20543,4.37777 0.98323,6.09909 0.88542,4.23958 1.77083,8.47917 2.65625,12.71875 0.20689,-4.41745 -0.40918,-9.128 0.29925,-13.36682 3.24932,-2.39593 2.21912,-4.3577 -0.9555,-6.10193 -0.90621,-4.29165 -1.81259,-8.58343 -2.7187,-12.875 z m 89.40625,0 c -1.11986,4.33575 -1.51667,9.11214 -3.08557,13.17425 -3.6643,1.69455 -3.04907,3.82325 -0.28943,6.1695 0,4.33333 0,8.66667 0,13 1.10566,-4.2791 1.46368,-9.01538 3.02465,-13.01605 3.67969,-1.66783 3.03733,-3.80655 0.3191,-6.17145 0.0104,-4.3854 0.0207,-8.77093 0.0312,-13.15625 z m -127.875,4.75 c 0.18985,4.36846 1.20636,9.05365 0.92333,13.23662 -2.94621,2.60722 -1.78136,4.41711 1.45162,5.82588 1.23958,4.0625 2.47917,8.125 3.71875,12.1875 -0.1836,-4.33291 -1.18871,-8.87962 -0.85862,-13.07884 3.03468,-2.6397 1.73191,-4.4379 -1.51638,-5.85866 -1.0768,-3.97756 -2.50938,-8.24125 -3.7187,-12.3125 z m 166.34375,0 c -1.4484,4.09195 -2.36717,8.90513 -4.11214,12.57585 -3.74244,1.32488 -3.39077,3.44406 -0.85661,5.98665 -0.375,4.22917 -0.75,8.45833 -1.125,12.6875 1.45449,-4.08887 2.23333,-8.67616 4.11059,-12.45315 3.73691,-1.31104 3.24135,-3.44296 0.79566,-5.9531 0.45206,-4.21675 0.78279,-8.57744 1.1875,-12.84375 z m -199.25,8.0625 c 0.55637,4.24218 1.95086,8.71746 2.01976,12.81992 -2.7132,2.83168 -1.37262,4.49458 1.94894,5.58633 1.54167,3.85417 3.08333,7.70833 4.625,11.5625 -0.52862,-4.20282 -1.92028,-8.54819 -1.92862,-12.66508 2.68491,-2.827 1.34447,-4.50094 -1.94638,-5.61617 -1.57288,-3.89582 -3.14594,-7.79176 -4.7187,-11.6875 z m 232.15625,0 c -1.79301,3.90046 -2.94435,8.36559 -5.13162,11.91911 -3.78817,0.97278 -3.49516,3.11461 -1.30588,5.79964 -0.71875,4.08333 -1.4375,8.16667 -2.15625,12.25 1.76738,-3.85319 2.8714,-8.29187 5.0393,-11.79155 3.82211,-0.95032 3.46769,-3.09708 1.2732,-5.77095 0.86148,-4.0067 1.50599,-8.30067 2.28125,-12.40625 z"
       style="fill:#000000;fill-opacity:1;fill-rule:evenodd;stroke:none" />
    <path
       id="Haka"
       d="m 396.25018,444.125 c -13.54126,15.0198 -27.46308,30.03066 -44.51055,41.1604 -5.09456,4.25727 -11.84851,6.74841 -15.37983,12.62345 -8.22901,10.10416 -21.60785,19.29644 -35.12516,14.5555 -9.31137,-3.22026 -16.47796,-10.67499 -21.89061,-18.62065 -15.41726,-8.85865 -29.80203,-19.35375 -43.23122,-30.99123 -5.66076,-3.80308 -10.53454,-10.10593 -16.60236,-12.59746 -5.64437,4.46526 2.06387,12.13742 4.84977,16.5801 12.74303,15.21597 28.5057,28.05586 46.02259,37.39387 6.96333,1.84561 10.06159,8.81594 14.80303,13.62143 8.41079,9.67633 19.99989,19.57485 33.75194,17.68084 9.00261,-0.743 17.20678,-5.3156 23.02649,-12.12762 4.99111,-5.6904 12.81689,-7.12579 18.77568,-11.54317 14.93288,-9.4815 27.39806,-22.2324 39.51033,-34.98546 -1.07619,-10.94646 -2.56648,-21.84637 -4.0001,-32.75 z"
       style="fill:#000000;fill-opacity:1;fill-rule:evenodd;stroke:none;stroke-width:1.64999998px;marker:none;visibility:visible;display:inline;overflow:visible;enable-background:accumulate" />
  </g>
  <path
     d="m 314.77889,144.15327 c 0.002,18.61194 -15.08512,33.70107 -33.69705,33.70107 -18.61194,0 -33.69927,-15.08913 -33.69706,-33.70107 -0.002,-18.61194 15.08512,-33.70107 33.69706,-33.70107 18.61193,0 33.69927,15.08913 33.69705,33.70107 l 0,0 z"
     style="fill:#ffcd50;fill-opacity:1;stroke:#000000;stroke-opacity:1"
     id="Orb" />
  <path
     id="rect1875"
     style="fill:#ffcd50;stroke:#000000;stroke-width:0.35132864000000003;stroke-linecap:round;stroke-opacity:1;fill-opacity:1"
     d="m 271.73058,112.18322 0,25.73796 -25.18901,0.047 c -0.54583,0 -0.98812,0.65292 -0.98812,1.45864 0,0.80573 0.44229,1.45864 0.98812,1.45864 l 28.15334,-0.047 0,-2.91728 -0.047,0 0,-25.73796 c -0.61892,-0.19477 -2.29685,-0.15277 -2.91729,0 z" />
  <rect
     id="use2762"
     style="fill:#ffcd50;stroke:#000000;stroke-width:0.35132864000000003;stroke-linecap:round;stroke-opacity:1;fill-opacity:1"
     y="153.2778"
     x="246.79597"
     ry="2.9388974"
     rx="1.8943729"
     height="2.916919"
     width="68.571701" />
  <use
     xlink:href="#rect1875"
     height="332"
     width="280"
     y="0"
     x="0"
     id="use2784"
     transform="matrix(-1,0,0,1,562.16366,7.6583574e-6)" />
  <rect
     id="rect2788"
     style="fill:#225500;stroke:#001900;stroke-width:0.20000000000000001;stroke-linecap:square;stroke-opacity:1;fill-opacity:1;stroke-miterlimit:4;stroke-dasharray:none"
     y="143.65269"
     x="275.98718"
     ry="1.086221"
     rx="1.7490116"
     height="6.8620028"
     width="11.049062" />
  <rect
     id="use2792"
     style="fill:#003d8f;stroke:#000020;stroke-width:0.20000000000000001;stroke-linecap:square;fill-opacity:1;stroke-opacity:1;stroke-miterlimit:4;stroke-dasharray:none"
     y="143.05463"
     x="266.07578"
     ry="0.47309798"
     rx="0.88731557"
     height="2.9887102"
     width="5.6054544" />
  <use
     xlink:href="#use2792"
     height="332"
     width="280"
     y="0"
     x="0"
     id="use2796"
     transform="translate(0,5.0694567)"
     style="stroke:#000020;stroke-opacity:1;stroke-width:0.20000000000000001;stroke-miterlimit:4;stroke-dasharray:none;stroke-linecap:square" />
  <use
     xlink:href="#use2792"
     height="332"
     width="280"
     y="0"
     x="0"
     id="use2798"
     transform="translate(25.094904,0)"
     style="stroke:#000020;stroke-opacity:1;stroke-width:0.20000000000000001;stroke-miterlimit:4;stroke-dasharray:none;stroke-linecap:square" />
  <use
     xlink:href="#use2792"
     height="332"
     width="280"
     y="0"
     x="0"
     id="use2800"
     transform="translate(25.094904,5.0694567)"
     style="stroke:#000020;stroke-opacity:1;stroke-width:0.20000000000000001;stroke-miterlimit:4;stroke-dasharray:none;stroke-linecap:square" />
  <use
     xlink:href="#use2792"
     height="332"
     width="280"
     y="0"
     x="0"
     id="use2802"
     transform="matrix(0,1,-1,0,423.03315,-131.44841)"
     style="stroke:#000020;stroke-opacity:1;stroke-width:0.20000000000000001;stroke-miterlimit:4;stroke-dasharray:none;stroke-linecap:square" />
  <use
     xlink:href="#use2802"
     height="332"
     width="280"
     y="0"
     x="0"
     id="use2804"
     transform="translate(5.1952775,0)"
     style="stroke:#000020;stroke-opacity:1;stroke-width:0.20000000000000001;stroke-miterlimit:4;stroke-dasharray:none;stroke-linecap:square" />
  <use
     xlink:href="#use2802"
     height="332"
     width="280"
     y="0"
     x="0"
     id="use2806"
     transform="translate(0,-21.732187)"
     style="stroke:#000020;stroke-opacity:1;stroke-width:0.20000000000000001;stroke-miterlimit:4;stroke-dasharray:none;stroke-linecap:square" />
  <use
     xlink:href="#use2802"
     height="332"
     width="280"
     y="0"
     x="0"
     id="use2808"
     transform="translate(5.1952775,-21.732187)"
     style="stroke:#000020;stroke-opacity:1;stroke-width:0.20000000000000001;stroke-miterlimit:4;stroke-dasharray:none;stroke-linecap:square" />
  <path
     id="path2810"
     style="fill:#d40000;stroke:#000000;stroke-width:0.216;stroke-linecap:round;fill-opacity:1;stroke-opacity:1;stroke-miterlimit:4;stroke-dasharray:none"
     d="m 284.67433,126.19282 c 10e-4,2.67507 -1.60744,4.84462 -3.5925,4.84462 -1.98506,0 -3.59387,-2.16955 -3.5925,-4.84462 -10e-4,-2.67506 1.60744,-4.84461 3.5925,-4.84461 1.98506,0 3.59387,2.16955 3.5925,4.84461 l 0,0 z" />
  <use
     xlink:href="#path2810"
     height="332"
     width="280"
     y="0"
     x="0"
     id="use2812"
     transform="matrix(0,-1,1,0,131.75417,428.16556)"
     style="fill:#d40000;fill-opacity:1;stroke:#000000;stroke-opacity:1" />
  <use
     xlink:href="#use2812"
     height="332"
     width="280"
     y="0"
     x="0"
     id="use2814"
     transform="translate(48.182216,-3.629874e-6)" />
  <path
     id="use2839"
     style="fill:#003d8f;stroke:#000020;stroke-width:0.20000000000000001;stroke-linecap:square;fill-opacity:1;stroke-opacity:1;stroke-miterlimit:4;stroke-dasharray:none"
     d="m 246.70124,143.05462 2.90295,0 c 0.24672,0 0.44534,0.1059 0.44534,0.23745 l 0,2.51381 c 0,0.13155 -0.19862,0.23745 -0.44534,0.23745 l -2.90295,0 c -0.24672,0 -0.44534,-0.1059 -0.44534,-0.23745 l 0,-2.51381 c 0,-0.13155 0.19862,-0.23745 0.44534,-0.23745 z" />
  <use
     xlink:href="#use2839"
     height="332"
     width="280"
     y="0"
     x="0"
     id="use2844"
     transform="translate(0.20078834,5.0694567)"
     style="stroke:#000020;stroke-opacity:1;stroke-width:0.20000000000000001;stroke-miterlimit:4;stroke-dasharray:none;stroke-linecap:square" />
  <use
     xlink:href="#use2839"
     height="332"
     width="280"
     y="0"
     x="0"
     id="use2846"
     transform="translate(66.401166,0)"
     style="stroke:#000020;stroke-opacity:1;stroke-width:0.20000000000000001;stroke-miterlimit:4;stroke-dasharray:none;stroke-linecap:square" />
  <use
     xlink:href="#use2839"
     height="332"
     width="280"
     y="0"
     x="0"
     id="use2848"
     transform="translate(66.200407,5.0694567)"
     style="stroke:#000020;stroke-opacity:1;stroke-width:0.20000000000000001;stroke-miterlimit:4;stroke-dasharray:none;stroke-linecap:square" />
  <g
     id="Korsarm-bas"
     style="fill:#f0aa18;stroke:#000000;stroke-width:0.9962182;stroke-opacity:1;stroke-miterlimit:4;stroke-dasharray:none"
     transform="matrix(0.50189808,0,0,0.50189808,212.21514,31.54084)">
    <path
       id="path4629"
       style="stroke:#000000;fill:#ffcd50;fill-opacity:1;stroke-opacity:1;stroke-width:0.9962182;stroke-miterlimit:4;stroke-dasharray:none"
       d="m 146.21244,136.2452 c 0,23.05338 4.52125,24.28717 -8.85471,24.41777 -14.8433,0.14636 -8.85471,-1.80533 -8.85471,-24.41777 0,-15.14813 -0.86293,-27.44227 8.85471,-27.44227 7.66861,0 8.85471,12.29414 8.85471,27.44227 z" />
    <path
       id="use4627"
       d="m 158.94794,160.46754 c -1.75631,-2.19538 -7.82228,0.41139 -11.26962,-8.78154 -1.02452,-2.4881 -1e-5,-32.34528 -1e-5,-32.34528 0,-8.04973 -6.65407,-11.65225 -9.80603,-10.39147 3.80533,1.17087 9.5846,6.49435 4.82984,13.90408 -1.30971,2.04102 -12.87958,8.63517 -9.9524,19.02664 0.13494,0.40481 1.583,-2.82312 3.44416,-3.25765 1.86117,-0.43453 4.13544,1.92435 5.9228,-0.54768 -7.2277,8.85058 -5.67345,12.06237 -0.7318,19.46571 0.45891,0.68751 2.92718,-0.58543 3.36626,-3.65896 0,0 2.4341,11.7158 14.1968,6.58615 z"
       style="fill:#ffcd50;fill-opacity:1;stroke:#000000;stroke-opacity:1;stroke-width:0.9962182;stroke-miterlimit:4;stroke-dasharray:none" />
    <path
       id="path3739"
       d="m 115.47706,160.46754 c 1.75631,-2.19538 7.82228,0.41139 11.26962,-8.78154 1.02452,-2.4881 1e-5,-32.34528 1e-5,-32.34528 0,-8.04973 6.65407,-11.65225 9.80603,-10.39147 -3.80533,1.17087 -9.5846,6.49435 -4.82984,13.90408 1.30971,2.04102 12.87958,8.63517 9.9524,19.02664 -0.26987,0.80961 -5.79225,1.13873 -9.36696,-3.80533 7.2277,8.85058 5.67345,12.06237 0.7318,19.46571 -0.45891,0.68751 -2.92718,-0.58543 -3.36626,-3.65896 0,0 -2.4341,11.7158 -14.1968,6.58615 z"
       style="fill:#ffcd50;fill-opacity:1;stroke:#000000;stroke-opacity:1;stroke-width:0.9962182;stroke-miterlimit:4;stroke-dasharray:none" />
  </g>
  <g
     id="Korsarm"
     style="fill:#f0aa18;stroke:#000000;stroke-width:0.9962182;stroke-opacity:1;stroke-miterlimit:4;stroke-dasharray:none"
     transform="matrix(0.50189808,0,0,0.50189808,211.21138,31.54084)">
    <path
       id="path5530"
       style="stroke:#000000;fill:#ffcd50;fill-opacity:1;stroke-opacity:1;stroke-width:0.9962182;stroke-miterlimit:4;stroke-dasharray:none"
       d="m 147.21238,65.949 c 0,-23.05338 4.52125,-17.31168 -8.85471,-17.44228 -14.8433,-0.14636 -8.85471,-5.17016 -8.85471,17.44228 0,15.14813 -0.86293,27.44227 8.85471,27.44227 7.66861,0 8.85471,-12.29414 8.85471,-27.44227 z" />
    <path
       id="path5526"
       style="fill:#ffffff;stroke:#000000;stroke-opacity:1;stroke-width:0.69473124;stroke-miterlimit:4;stroke-dasharray:none"
       transform="matrix(1.433962,0,0,1.433962,-58.01878,-18.15999)"
       d="m 144.60246,40.160633 c 0,4.284081 -3.47293,7.757015 -7.75702,7.757015 -4.28408,0 -7.75701,-3.472934 -7.75701,-7.757015 0,-4.284081 3.47293,-7.757015 7.75701,-7.757015 4.28409,0 7.75702,3.472934 7.75702,7.757015 z" />
    <path
       id="path5532"
       d="m 159.94788,41.72666 c -1.75631,2.19538 -7.82228,-0.41139 -11.26962,8.78154 -1.02452,2.4881 -1e-5,32.34528 -1e-5,32.34528 0,8.04973 -6.65407,11.65225 -9.80603,10.39147 3.80533,-1.17087 9.5846,-6.49435 4.82984,-13.90408 -1.30971,-2.04102 -12.87958,-8.63517 -9.9524,-19.02664 0.13494,-0.40481 1.583,2.82312 3.44416,3.25765 1.86117,0.43453 4.13544,-1.92435 5.9228,0.54768 -7.2277,-8.85058 -5.67345,-12.06237 -0.7318,-19.46571 0.45891,-0.68751 2.92718,0.58543 3.36626,3.65896 0,0 2.4341,-11.7158 14.1968,-6.58615 z"
       style="fill:#ffcd50;fill-opacity:1;stroke:#000000;stroke-opacity:1;stroke-width:0.9962182;stroke-miterlimit:4;stroke-dasharray:none" />
    <path
       id="path5534"
       d="m 116.477,41.72666 c 1.75631,2.19538 7.82228,-0.41139 11.26962,8.78154 1.02452,2.4881 1e-5,32.34528 1e-5,32.34528 0,8.04973 6.65407,11.65225 9.80603,10.39147 -3.80533,-1.17087 -9.5846,-6.49435 -4.82984,-13.90408 1.30971,-2.04102 12.87958,-8.63517 9.9524,-19.02664 -0.26987,-0.80961 -5.79225,-1.13873 -9.36696,3.80533 7.2277,-8.85058 5.67345,-12.06237 0.7318,-19.46571 -0.45891,-0.68751 -2.92718,0.58543 -3.36626,3.65896 0,0 -2.4341,-11.7158 -14.1968,-6.58615 z"
       style="fill:#ffcd50;fill-opacity:1;stroke:#000000;stroke-opacity:1;stroke-width:0.9962182;stroke-miterlimit:4;stroke-dasharray:none" />
  </g>
  <use
     xlink:href="#Korsarm"
     height="332"
     width="280"
     y="0"
     x="0"
     id="Korsarm-2"
     transform="matrix(0,-1,1,0,198.34825,362.81163)" />
  <use
     xlink:href="#Korsarm"
     height="332"
     width="280"
     y="0"
     x="0"
     id="Korsarm-3"
     transform="matrix(0,1,-1,0,363.81542,-198.34825)" />
  <path
     id="Kors-center"
     style="fill:#ffffff;stroke:#000000;stroke-opacity:1;stroke-width:0.6;stroke-miterlimit:4;stroke-dasharray:none"
     d="m 285.56272,82.231682 c 0.001,2.475451 -2.00544,4.482742 -4.48089,4.482742 -2.47545,0 -4.48191,-2.007291 -4.48089,-4.482742 -0.001,-2.475449 2.00544,-4.482741 4.48089,-4.482741 2.47545,0 4.48191,2.007292 4.48089,4.482741 l 0,0 z" />
  <g
     id="g5419"
     transform="matrix(0.98771965,0,0,0.98771965,514.09787,-63.567622)">
    <g
       id="Avslitet-Griphuvud-7"
       style="fill:#000000"
       transform="matrix(0.66446806,-0.30509867,0.34734919,0.58364414,-486.269,308.97535)">
      <path
         id="path1955-4"
         d="m 130.11974,277.95264 c 3.78802,-5.52299 6.35848,-12.9782 7.08881,-20.55995 0.61986,-6.43492 0.0924,-11.7203 -3.54695,-35.54257 -1.17587,-7.69696 -0.50444,-19.69805 1.47393,-26.34466 1.3614,-4.5738 0.99844,-20.67526 -0.46606,-20.67526 -0.43261,0 -2.0924,1.22499 -3.68842,2.72221 -1.59601,1.49721 -4.48282,3.83583 -6.41512,5.19694 -3.39519,2.39156 -4.8591,5.60852 -9.4596,20.78775 -0.27938,0.92179 0.18296,0.73411 1.21925,-0.49495 1.66926,-1.97979 1.66926,-1.97979 1.13722,0 -1.74951,6.51006 -2.15486,12.27998 -1.47726,21.02776 0.81604,10.53482 1.86931,15.61656 4.87438,23.51742 4.52828,11.9056 6.53961,25.79194 4.69184,32.39262 -1.05481,3.76807 1.31428,2.71664 4.56798,-2.02731 z" />
      <path
         id="path1953-0"
         d="m 91.249225,273.57202 c 8.856525,-6.78807 14.587565,-19.7729 16.711555,-37.8634 1.61763,-13.77764 3.95625,-28.33018 4.9314,-30.68668 1.73735,-4.19835 5.77182,-17.83868 5.39299,-18.23342 -0.80486,-0.83864 -10.87913,4.46868 -14.30095,7.53404 -4.115227,3.68652 -10.899902,17.28496 -13.743181,27.54528 -2.365626,8.53664 -3.185179,17.40349 -3.383652,36.60831 -0.08441,8.16662 -0.533681,15.62794 -0.998396,16.58071 -1.300175,2.66564 0.69047,2.11728 5.390234,-1.48484 z" />
      <path
         id="path1951-9"
         d="m 165.40719,273.97292 c 0,-0.46007 -0.86201,-1.61659 -1.91557,-2.57004 -1.05356,-0.95347 -2.8913,-3.80659 -4.08385,-6.34026 -4.65039,-9.88014 -5.2472,-13.59315 -5.35459,-33.31358 -0.0833,-15.30135 -0.43346,-19.77689 -1.87796,-24.0049 -1.82117,-5.33053 -3.31626,-7.17043 -2.19436,-2.70047 1.56474,6.23445 -5.88101,2.89634 -9.25863,-4.15085 -3.63547,-7.58518 -4.75379,-6.45499 -5.69543,5.7559 -0.61461,7.97014 2.25133,30.62914 5.18434,40.98897 2.29972,8.12295 7.07654,15.88058 12.63614,20.52127 6.56339,5.47857 12.55991,8.25435 12.55991,5.81396 z" />
      <path
         id="path1949-4"
         d="m 54.757387,253.52669 c 2.547638,-1.63333 6.082219,-3.86058 7.854622,-4.94947 1.772404,-1.08888 4.674136,-3.98432 6.448301,-6.4343 5.33779,-7.3711 8.503952,-10.81334 13.427284,-14.59812 3.61792,-2.78125 5.059214,-4.74318 6.323713,-8.60805 0.900783,-2.75318 2.75602,-7.23304 4.122755,-9.95524 1.679443,-3.34505 2.432484,-6.37151 2.323061,-9.33629 -0.08906,-2.41275 -0.316419,-4.54133 -0.505261,-4.73017 -0.312994,-0.31298 -21.273006,10.2563 -25.18833,12.70146 -2.186594,1.36555 -6.885061,12.33729 -7.633005,17.82438 -1.432226,10.50722 -3.907038,17.27145 -9.088325,24.84045 -2.877749,4.20391 -5.225706,8.4357 -5.217678,9.40399 0.01092,1.31749 0.327407,1.13777 1.257688,-0.71423 0.6837,-1.3611 3.327527,-3.81109 5.875175,-5.44441 z" />
      <path
         id="path1947-8"
         d="m 190.14689,251.19112 c -0.004,-0.34875 -1.76572,-1.63801 -3.91451,-2.86499 -2.14879,-1.22698 -5.24807,-4.18023 -6.88729,-6.56276 -4.51341,-6.56001 -9.16132,-22.22051 -11.49216,-38.72122 -0.30762,-2.17776 -1.627,-7.52319 -2.93194,-11.87871 -1.30494,-4.35553 -2.66689,-9.57372 -3.02654,-11.59598 -0.90761,-5.10317 -3.12734,-6.83719 -3.95853,-3.0923 -1.14153,5.14322 -3.66785,12.66641 -5.43885,16.19653 -1.48525,2.96051 -1.5631,3.93363 -0.51478,6.4343 0.67932,1.62044 1.79126,6.06443 2.47098,9.87552 1.70541,9.56184 3.93421,15.61072 8.94283,24.27041 7.10297,12.28075 16.3392,19.78971 23.33699,18.97276 1.88178,-0.21968 3.41799,-0.68479 3.4138,-1.03356 z" />
      <path
         id="path1945-8"
         d="m 204.01301,231.27296 c 0,-0.53407 -1.11639,-1.25123 -2.48087,-1.59369 -3.38883,-0.85055 -10.55014,-9.04571 -13.67882,-15.6536 -1.41716,-2.99308 -4.17585,-11.58879 -6.13041,-19.10156 -5.12953,-19.71644 -5.54589,-20.94095 -7.82116,-23.00164 -1.13314,-1.02627 -4.63077,-4.35549 -7.7725,-7.39825 -3.14174,-3.04276 -6.0473,-5.5323 -6.4568,-5.5323 -1.28432,0 0.32956,12.18508 2.1633,16.33323 2.57544,5.82593 6.60876,19.75114 8.10807,27.99349 2.29824,12.63442 9.79784,22.83909 19.71575,26.82716 5.17371,2.0804 14.35344,2.80127 14.35344,1.12716 z" />
      <path
         id="path1943-2"
         d="m 52.70528,226.02559 c 2.468229,-1.88258 5.62761,-5.73303 7.513119,-9.15651 4.706495,-8.54546 10.735992,-13.50795 22.472133,-18.49533 9.75977,-4.14752 10.197787,-4.4777 21.838248,-16.46164 6.53329,-6.72608 13.14047,-14.41198 14.68262,-17.07977 2.94281,-5.09082 2.6719,-6.14197 -0.76032,-2.95 -4.21277,3.91789 -16.82745,9.85377 -22.336393,10.51047 -3.158709,0.37653 -8.830379,2.27018 -13.509563,4.51054 -12.487202,5.97879 -19.019238,14.1329 -25.300416,31.58321 -3.423208,9.51032 -6.735282,15.67087 -9.820996,18.26733 -2.591936,2.18097 -2.728848,2.52042 -1.016581,2.52042 1.088338,0 3.895496,-1.46192 6.238149,-3.24872 z" />
      <path
         sodipodi:nodetypes="csssssssssc"
         id="path1941-4"
         d="m 148.43195,201.21103 c 0.12588,-2.43174 1.72617,-8.13724 3.5562,-12.67888 4.41226,-10.95001 6.70998,-17.93878 6.06199,-27.39259 -0.4542,-6.62677 -2.03289,-13.26354 -5.44966,-20.07434 -0.16952,-0.33792 -0.17604,2.21767 -3.59223,7.41004 -1.60728,2.44296 -6.13302,5.19525 -6.78891,5.2276 -0.41337,0.0204 -0.77727,-1.5841 -1.51696,-3.39741 -0.45853,-1.12408 -1.17703,3.38564 -1.49915,6.21173 -2.90961,25.52698 -2.23623,31.76553 1.11233,39.59572 2.10384,4.91956 6.16436,10.58445 7.15012,9.97522 0.40558,-0.25066 0.8404,-2.44535 0.96627,-4.87709 z" />
      <path
         sodipodi:nodetypes="cssssssssssssc"
         id="path1939-5"
         d="m 98.094473,198.55464 c 0,-1.30083 6.541037,-7.88615 7.833107,-7.88615 0.53343,0 3.7778,-1.61238 7.20972,-3.58306 19.65026,-11.28358 23.52337,-13.77031 24.86534,-26.26087 0.37473,-3.48784 1.89093,-9.92858 2.06752,-11.80203 0.10349,-1.09793 -1.7758,-4.72764 -2.01843,-5.62074 -0.64358,-2.36898 -1.26457,-4.03211 -1.56018,-5.6506 -0.19805,-1.08433 -0.97606,3.31081 -4.03064,9.12944 -2.08845,3.97824 -5.20595,7.13409 -8.26972,10.34626 -2.71639,2.84798 -1.66823,4.35395 -3.28065,7.47471 -1.76687,3.41965 -6.74042,9.60713 -12.51774,15.57301 -8.922447,9.21366 -12.278113,14.07474 -12.278113,17.78628 0,0.83415 0.445452,1.51663 0.989893,1.51663 0.544441,0 0.989893,-0.4603 0.989893,-1.02288 z" />
      <path
         sodipodi:nodetypes="csssssssssc"
         id="path1937-5"
         d="m 197.6864,180.25671 c -2.8001,0.25173 -5.92977,-1.41498 -7.60123,-3.01405 -4.31008,-4.12343 -6.15489,-7.49508 -10.25671,-18.74569 -5.09794,-13.98283 -10.90037,-22.29882 -12.18353,-24.48962 -1.2428,-2.12188 -1.72184,-3.58337 -3.0689,-8.19598 -1.40191,-4.8004 -19.43017,-10.24124 -19.58311,-10.08829 -0.99179,0.99178 3.3651,16.13877 6.30758,21.92876 1.95284,3.84265 4.56155,9.00819 5.79712,11.47898 2.29447,4.58826 9.22055,13.1716 12.70775,15.74845 1.06647,0.78806 4.65707,4.12895 7.97911,7.4242 6.99814,6.9417 16.289,9.83023 19.90192,7.95324 z" />
      <path
         sodipodi:nodetypes="cssssccsssc"
         id="path1933-7"
         d="m 210.0356,166.27924 c -3.90876,0.40342 -10.29641,-2.66447 -12.97289,-5.97532 -0.34142,-0.42234 -2.32359,-1.95397 -7.72336,-10.18145 -4.41684,-6.72983 -8.12614,-11.55317 -9.61835,-13.14478 -0.93849,-1.001 -3.3619,-3.24077 -6.68306,-5.14042 -6.5628,-3.75384 -17.29587,-4.33217 -16.47722,-3.88026 4.2738,3.08993 6.90226,4.74554 11.11286,7.67191 1.38845,1.5269 4.19063,4.35602 5.79235,6.48976 1.6017,2.13375 4.25193,6.55645 5.88937,9.82821 3.08917,6.1725 9.49065,11.6258 15.6711,13.34994 4.01164,1.11913 12.78917,2.19279 15.0092,0.98241 z" />
      <path
         sodipodi:nodetypes="cssssssssssc"
         id="path1929-1"
         d="m 216.43484,148.74051 c 0,-0.54444 -6.3866,-2.80078 -7.07522,-2.80078 -1.79877,0 -8.73624,-3.80044 -11.48403,-6.29109 -1.28819,-1.16765 -5.61626,-6.17853 -9.61793,-11.13527 -8.52352,-10.55784 -16.70532,-17.11399 -23.5844,-18.89839 -2.69336,-0.69866 -4.99463,-1.1636 -5.11393,-1.03324 -0.11929,0.13035 2.16162,5.17262 5.06871,11.20505 4.4212,9.17433 6.17052,11.72404 10.69661,15.59081 2.97607,2.54252 5.66696,4.62277 5.97979,4.62277 0.31283,0 3.35994,1.35986 6.77137,3.02191 3.41143,1.66206 7.76168,3.39912 9.66723,3.86014 4.92181,1.19077 18.6918,3.03081 18.6918,1.85809 z" />
      <path
         id="Eye-2"
         style="fill:#f0aa18"
         d="m 111.54014,86.862598 c -0.42642,-0.689955 -0.50798,-1.521792 -0.18124,-1.848536 0.88592,-0.885914 1.85186,0.417042 1.37337,1.852535 -0.3353,1.0059 -0.56847,1.005118 -1.19213,-0.004 z" />
      <path
         sodipodi:nodetypes="cssssssc"
         id="path1919-6"
         d="m 206.63244,122.42887 c -5.49344,-0.54561 -12.58912,-2.74428 -18.78302,-5.98241 -1.51511,-0.79209 -6.49118,-3.36789 -10.64983,-7.77103 -4.8165,-5.09966 -11.77571,-6.5751 -13.10723,-6.5751 -3.10032,0 -1.55673,1.30681 3.4973,5.11626 2.50199,1.88588 3.37216,4.91202 6.22916,8.9931 2.75538,3.93593 5.33651,5.01949 8.25701,5.94681 6.8399,2.1718 15.07084,5.07641 24.55661,0.27237 z" />
    </g>
    <path
       sodipodi:nodetypes="cscsccccccccccccccccccsccc"
       id="path5109-2-7"
       d="m -338.31968,294.80991 c -6.53126,0.1033 -6.65863,3.00964 -9.99849,5.55194 -2.54362,1.93619 -3.29067,1.42683 -6.42127,5.67881 -6.28924,-0.28152 -21.00915,0.15704 -26.38556,3.42809 -5.74129,3.49309 -11.86469,6.46125 -10.96875,13.84375 -7.8327,2.20106 -18.4536,10.14306 -22.34375,17.40625 -3.09582,7.72837 -0.81769,11.94418 7.3125,17.21875 -1.44817,-12.00249 15.21759,-16.04984 26.25,-13.25 -15.51198,3.41163 -22.22913,23.67226 -37.53125,24.9375 16.69764,2.33433 26.8464,-13.46676 37.94993,-17.70557 -3.27033,3.13803 -2.07525,2.26291 -8.51243,8.08057 8.67536,5.13106 16.42016,-6.51717 28.47892,-8.28653 1.54626,-0.17083 2.36105,-2.16644 3.17733,-3.26807 0.36274,4.5834 -0.33184,9.16988 -2.65212,12.84602 5.74352,-1.03867 11.22714,-6.01465 11.83962,-14.72892 2.97983,3.91863 5.97147,5.22736 9.8125,8.15625 3.61012,-4.89958 2.42902,-9.40023 0.5,-13.34375 2.20783,-0.0814 1.91062,1.17304 4.84737,1.06826 3.26507,1.84197 9.60207,4.02035 13.24021,2.21454 -3.64663,-2.03492 -11.1106,-8.34154 -10.30633,-9.65583 6.30913,-0.577 14.18964,-2.12919 15.27301,-6.25855 -7.32157,1.40335 -14.49451,-4.51915 -18.30426,-8.49342 0.54668,-1.07494 4.49351,-2.03109 8.625,-7.0625 5.04875,-6.14847 4.81561,-8.82068 5.28125,-15.59375 -8.06866,8.67092 -10.24718,3.07505 -22.30912,10.48118 2.96615,-5.48329 -0.19087,-5.96275 3.14569,-13.26502 z"
       style="fill:#000000;fill-opacity:1;fill-rule:evenodd;stroke:none" />
    <path
       d="m -370.4493,325.41619 c 0.0308,-0.0125 0.0616,-0.0251 0,0 z"
       id="path3654-3-9"
       style="fill:#feed01;fill-opacity:1;fill-rule:evenodd;stroke:none" />
    <path
       sodipodi:nodetypes="cccccccccc"
       d="m -363.9003,341.1602 c -9.43725,-5.17047 -11.44388,-14.36194 -17.2633,-13.69155 -5.75742,0.35471 -7.42645,0.0897 -9.70785,-2.27861 -11.81389,3.62806 -31.97153,19.55733 -17.84521,29.25977 -0.50903,-13.97936 28.5263,-15.50305 35.16419,-9.70852 5.04528,-3.19312 3.79948,-2.90367 9.65217,-3.58109 z m -21.35413,17.53753 c 5.078,3.17241 11.54277,-6.3174 22.52942,-8.19157 3.96425,0.0814 3.86199,-9.63616 -4.54012,-6.37804 -3.49741,0.75543 -11.50953,8.52418 -17.9893,14.56961 z"
       id="path3646-2-5"
       style="fill:#d40000;fill-opacity:1;fill-rule:evenodd;stroke:none" />
    <path
       sodipodi:nodetypes="cccccc"
       d="m -370.90846,323.85404 c 0.10855,6.17139 7.92534,2.36379 4.17711,-1.21379 1.64107,-0.21362 2.77836,-0.5702 4.33312,-0.053 0.64225,2.15295 -0.64081,5.10848 -2.29261,5.95781 -2.11061,1.61401 -9.30614,-0.68094 -10.0486,-2.06055 1.11906,-1.29465 1.72672,-1.83288 3.83098,-2.63049 z"
       id="path2430-2-4"
       style="fill:#ffcd50;fill-opacity:1;fill-rule:evenodd;stroke:none;stroke-width:1px;marker:none;visibility:visible;display:inline;overflow:visible;enable-background:accumulate" />
    <path
       sodipodi:nodetypes="cccc"
       id="path5048-6-4"
       d="m -362.34732,374.98518 c 2.35418,-3.89274 4.90255,-8.74515 5.36432,-12.77368 7.56129,-3.6248 7.71679,-10.17768 9.00613,-12.41217 2.57411,12.41128 -8.25071,23.80226 -14.37045,25.18585 z"
       style="fill:#000000;fill-opacity:1;fill-rule:evenodd;stroke:none;stroke-width:1px;marker:none;visibility:visible;display:inline;overflow:visible;enable-background:accumulate" />
  </g>
</svg>
